SplineFontDB: 3.0
FontName: Kalapi
FullName: Kalapi
FamilyName: Kalapi
Weight: Book
Copyright: (C) 2009-2012, GujaratiLexicon.com <info@gujaratilexicon.com>
Version: 1.0
ItalicAngle: 0
UnderlinePosition: -123
UnderlineWidth: 20
Ascent: 1158
Descent: 290
sfntRevision: 0x00010000
LayerCount: 2
Layer: 0 1 "Back"  1
Layer: 1 1 "Fore"  0
XUID: [1021 884 282742976 12770047]
FSType: 0
OS2Version: 0
OS2_WeightWidthSlopeOnly: 0
OS2_UseTypoMetrics: 1
CreationTime: 1255645485
ModificationTime: 1343323552
PfmFamily: 81
TTFWeight: 400
TTFWidth: 5
LineGap: 0
VLineGap: 0
Panose: 0 0 4 0 0 0 0 0 0 0
OS2TypoAscent: 290
OS2TypoAOffset: 1
OS2TypoDescent: -558
OS2TypoDOffset: 1
OS2TypoLinegap: 0
OS2WinAscent: 0
OS2WinAOffset: 1
OS2WinDescent: 0
OS2WinDOffset: 1
HheadAscent: 0
HheadAOffset: 1
HheadDescent: -293
HheadDOffset: 1
OS2SubXSize: 1014
OS2SubYSize: 941
OS2SubXOff: 0
OS2SubYOff: 207
OS2SupXSize: 1014
OS2SupYSize: 941
OS2SupXOff: 0
OS2SupYOff: 656
OS2StrikeYSize: 72
OS2StrikeYPos: 375
OS2Vendor: 'Pyrs'
OS2UnicodeRanges: 00000000.00000000.00000000.00000000
Lookup: 4 0 0 "'akhn' Akhand in Gujarati lookup 0"  {"'akhn' Akhand in Gujarati lookup 0 subtable"  } ['akhn' ('gujr' <'dflt' > ) 'zz01' ('gujr' <'zz01' > ) ]
Lookup: 4 0 0 "'pres' Pre Base Substitutions in Gujarati lookup 1"  {"'pres' Pre Base Substitutions in Gujarati lookup 1 subtable"  } ['pres' ('gujr' <'dflt' > ) 'zz02' ('gujr' <'zz01' > ) ]
Lookup: 4 0 0 "'pres' Pre Base Substitutions in Gujarati lookup 2"  {"'pres' Pre Base Substitutions in Gujarati lookup 2 subtable"  } ['pres' ('gujr' <'dflt' > ) 'zz03' ('gujr' <'zz01' > ) ]
Lookup: 4 0 0 "'blwf' Below Base Forms in Gujarati lookup 3"  {"'blwf' Below Base Forms in Gujarati lookup 3 subtable"  } ['blwf' ('gujr' <'dflt' > ) 'zz04' ('gujr' <'zz01' > ) ]
Lookup: 4 0 0 "'vatu' Vattu Variants in Gujarati lookup 4"  {"'vatu' Vattu Variants in Gujarati lookup 4 subtable"  } ['vatu' ('gujr' <'dflt' > ) 'zz05' ('gujr' <'zz01' > ) ]

StartChar: .notdef
Encoding: 65536 -1 0
Width: 724
GlyphClass: 2
Flags: W
LayerCount: 2
Fore
SplineSet
91 0 m 1,0,-1
 91 1448 l 1,1,-1
 634 1448 l 1,2,-1
 634 0 l 1,3,-1
 91 0 l 1,0,-1
181 91 m 1,4,-1
 543 91 l 1,5,-1
 543 1358 l 1,6,-1
 181 1358 l 1,7,-1
 181 91 l 1,4,-1
EndSplineSet
EndChar

StartChar: exclam
Encoding: 33 33 4
Width: 371
GlyphClass: 2
Flags: W
LayerCount: 2
Fore
SplineSet
191 993 m 2,0,-1
 191 223 l 2,1,2
 191 206 191 206 162 206 c 256,3,4
 133 206 133 206 133 223 c 2,5,-1
 133 993 l 2,6,7
 133 1011 133 1011 162 1011 c 256,8,9
 191 1011 191 1011 191 993 c 2,0,-1
236 74 m 0,10,11
 236 43 236 43 213 20 c 128,-1,12
 190 -3 190 -3 159 -3 c 0,13,14
 129 -3 129 -3 106 20 c 128,-1,15
 83 43 83 43 83 74 c 0,16,17
 83 106 83 106 105 129 c 128,-1,18
 127 152 127 152 159 152 c 256,19,20
 191 152 191 152 213.5 129 c 128,-1,21
 236 106 236 106 236 74 c 0,10,11
EndSplineSet
EndChar

StartChar: quotedbl
Encoding: 34 34 5
Width: 579
GlyphClass: 2
Flags: W
LayerCount: 2
Fore
SplineSet
487 875 m 0,0,1
 484 802 484 802 423 736 c 0,2,3
 375 683 375 683 359 683 c 1,4,-1
 342 721 l 1,5,6
 391 746 391 746 429 831 c 1,7,8
 404 831 404 831 384.5 848 c 128,-1,9
 365 865 365 865 365 889 c 0,10,11
 365 920 365 920 383 943 c 128,-1,12
 401 966 401 966 432 964 c 0,13,14
 490 962 490 962 487 875 c 0,0,1
262 873 m 0,15,16
 259 801 259 801 198 734 c 0,17,18
 151 682 151 682 135 682 c 1,19,-1
 120 717 l 1,20,21
 164 740 164 740 204 830 c 1,22,23
 180 830 180 830 160 847 c 128,-1,24
 140 864 140 864 140 888 c 0,25,26
 140 919 140 919 158.5 941.5 c 128,-1,27
 177 964 177 964 207 963 c 0,28,29
 265 960 265 960 262 873 c 0,15,16
EndSplineSet
EndChar

StartChar: numbersign
Encoding: 35 35 6
Width: 707
GlyphClass: 2
Flags: W
LayerCount: 2
Fore
SplineSet
659 443 m 1,0,-1
 473 443 l 1,1,-1
 442 284 l 1,2,-1
 637 287 l 1,3,-1
 630 230 l 1,4,-1
 434 230 l 1,5,-1
 392 0 l 1,6,-1
 332 0 l 1,7,-1
 375 235 l 1,8,-1
 248 235 l 1,9,-1
 204 -1 l 1,10,-1
 148 0 l 1,11,-1
 191 235 l 1,12,-1
 41 229 l 1,13,-1
 54 284 l 1,14,-1
 197 284 l 1,15,-1
 229 443 l 1,16,-1
 83 445 l 1,17,-1
 94 502 l 1,18,-1
 242 502 l 1,19,-1
 284 740 l 1,20,-1
 340 740 l 1,21,-1
 300 502 l 1,22,-1
 427 502 l 1,23,-1
 468 740 l 1,24,-1
 529 740 l 1,25,-1
 487 502 l 1,26,-1
 668 500 l 1,27,-1
 659 443 l 1,0,-1
413 443 m 1,28,-1
 285 443 l 1,29,-1
 253 284 l 1,30,-1
 381 284 l 1,31,-1
 413 443 l 1,28,-1
EndSplineSet
EndChar

StartChar: dollar
Encoding: 36 36 7
Width: 672
GlyphClass: 2
Flags: W
LayerCount: 2
Fore
SplineSet
355 371 m 1,0,-1
 355 41 l 1,1,2
 418 57 418 57 459 106 c 128,-1,3
 500 155 500 155 500 219 c 0,4,5
 500 274 500 274 452 314 c 0,6,7
 423 339 423 339 355 371 c 1,0,-1
310 447 m 1,8,-1
 310 731 l 1,9,10
 253 731 253 731 215.5 687.5 c 128,-1,11
 178 644 178 644 178 586 c 0,12,13
 178 536 178 536 222 500 c 0,14,15
 246 480 246 480 310 447 c 1,8,-1
310 38 m 1,16,-1
 310 392 l 1,17,18
 212 443 212 443 187 463 c 0,19,20
 129 510 129 510 129 584 c 0,21,22
 129 666 129 666 178 719.5 c 128,-1,23
 227 773 227 773 310 780 c 1,24,-1
 310 888 l 1,25,-1
 355 888 l 1,26,-1
 355 779 l 1,27,28
 463 762 463 762 511 672 c 1,29,-1
 473 641 l 1,30,31
 426 723 426 723 355 731 c 1,32,-1
 355 424 l 1,33,34
 464 368 464 368 488 348 c 0,35,36
 549 297 549 297 549 214 c 0,37,38
 549 133 549 133 492.5 70 c 128,-1,39
 436 7 436 7 355 -7 c 1,40,-1
 355 -125 l 1,41,-1
 310 -125 l 1,42,-1
 310 -9 l 1,43,44
 143 -6 143 -6 85 156 c 1,45,-1
 126 175 l 1,46,47
 181 33 181 33 310 38 c 1,16,-1
EndSplineSet
EndChar

StartChar: percent
Encoding: 37 37 8
Width: 741
GlyphClass: 2
Flags: W
LayerCount: 2
Fore
SplineSet
285 683 m 0,0,1
 285 631 285 631 247 593 c 128,-1,2
 209 555 209 555 156 555 c 0,3,4
 104 555 104 555 66.5 593 c 128,-1,5
 29 631 29 631 29 683 c 0,6,7
 29 736 29 736 66.5 773.5 c 128,-1,8
 104 811 104 811 156 811 c 0,9,10
 209 811 209 811 247 773.5 c 128,-1,11
 285 736 285 736 285 683 c 0,0,1
649 854 m 2,12,-1
 58 -43 l 2,13,14
 50 -55 50 -55 26 -55 c 0,15,16
 4 -55 4 -55 4 -45 c 1,17,18
 5 -42 5 -42 6 -41 c 2,19,-1
 599 869 l 1,20,21
 605 876 605 876 618 876 c 1,22,-1
 618 876 l 1,23,24
 652 876 652 876 652 863 c 0,25,26
 652 860 652 860 649 854 c 2,12,-1
608 129 m 0,27,28
 608 76 608 76 570.5 38 c 128,-1,29
 533 0 533 0 481 0 c 0,30,31
 428 0 428 0 390 38 c 128,-1,32
 352 76 352 76 352 129 c 0,33,34
 352 181 352 181 390 218.5 c 128,-1,35
 428 256 428 256 481 256 c 0,36,37
 533 256 533 256 570.5 218.5 c 128,-1,38
 608 181 608 181 608 129 c 0,27,28
259 683 m 0,39,40
 259 726 259 726 229 756 c 128,-1,41
 199 786 199 786 156 786 c 0,42,43
 114 786 114 786 84 756 c 128,-1,44
 54 726 54 726 54 683 c 0,45,46
 54 643 54 643 84.5 612 c 128,-1,47
 115 581 115 581 156 581 c 0,48,49
 199 581 199 581 229 611 c 128,-1,50
 259 641 259 641 259 683 c 0,39,40
582 129 m 256,51,52
 582 171 582 171 552.5 201.5 c 128,-1,53
 523 232 523 232 481 232 c 0,54,55
 438 232 438 232 408 201.5 c 128,-1,56
 378 171 378 171 378 129 c 256,57,58
 378 87 378 87 408 56.5 c 128,-1,59
 438 26 438 26 481 26 c 0,60,61
 523 26 523 26 552.5 56.5 c 128,-1,62
 582 87 582 87 582 129 c 256,51,52
EndSplineSet
EndChar

StartChar: ampersand
Encoding: 38 38 9
Width: 741
GlyphClass: 2
Flags: W
LayerCount: 2
Fore
SplineSet
584 -7 m 1,0,1
 531 30 531 30 467 105 c 1,2,3
 367 -5 367 -5 244 -5 c 0,4,5
 148 -5 148 -5 79 55 c 128,-1,6
 10 115 10 115 10 210 c 0,7,8
 10 345 10 345 201 436 c 1,9,10
 107 544 107 544 107 608 c 0,11,12
 107 680 107 680 163 726 c 0,13,14
 216 769 216 769 289 769 c 0,15,16
 360 769 360 769 409.5 727 c 128,-1,17
 459 685 459 685 459 615 c 0,18,19
 459 513 459 513 305 432 c 1,20,-1
 462 233 l 1,21,22
 494 290 494 290 507 346 c 1,23,-1
 584 331 l 1,24,25
 560 239 560 239 516 172 c 1,26,27
 570 99 570 99 634 52 c 1,28,-1
 584 -7 l 1,0,1
289 711 m 0,29,30
 247 711 247 711 217.5 683.5 c 128,-1,31
 188 656 188 656 188 614 c 0,32,33
 188 575 188 575 229 527 c 2,34,-1
 276 472 l 1,35,36
 387 537 387 537 387 610 c 0,37,38
 387 711 387 711 289 711 c 0,29,30
238 400 m 1,39,40
 94 315 94 315 94 222 c 0,41,42
 94 158 94 158 139 111 c 128,-1,43
 184 64 184 64 248 64 c 0,44,45
 355 64 355 64 424 171 c 1,46,-1
 238 400 l 1,39,40
EndSplineSet
EndChar

StartChar: quotesingle
Encoding: 39 39 10
Width: 290
GlyphClass: 2
Flags: W
LayerCount: 2
Fore
SplineSet
213 886 m 0,0,1
 205 717 205 717 106 717 c 0,2,3
 96 717 96 717 88 729 c 128,-1,4
 80 741 80 741 80 752 c 0,5,6
 80 762 80 762 116 772 c 1,7,8
 142 782 142 782 155 843 c 1,9,10
 131 843 131 843 111 860 c 128,-1,11
 91 877 91 877 91 901 c 0,12,13
 91 932 91 932 109.5 954.5 c 128,-1,14
 128 977 128 977 158 976 c 0,15,16
 217 973 217 973 213 886 c 0,0,1
EndSplineSet
EndChar

StartChar: parenleft
Encoding: 40 40 11
Width: 579
GlyphClass: 2
Flags: W
LayerCount: 2
Fore
SplineSet
433 -274 m 1,0,-1
 421 -290 l 1,1,2
 401 -279 401 -279 346 -213 c 0,3,4
 135 40 135 40 125 410 c 1,5,6
 114 776 114 776 336 1038 c 0,7,8
 344 1048 344 1048 421 1125 c 1,9,-1
 430 1116 l 1,10,11
 178 777 178 777 181 410 c 0,12,13
 182 261 182 261 232 97 c 0,14,15
 284 -75 284 -75 368 -187 c 2,16,-1
 433 -274 l 1,0,-1
EndSplineSet
EndChar

StartChar: parenright
Encoding: 41 41 12
Width: 579
GlyphClass: 2
Flags: W
LayerCount: 2
Fore
SplineSet
400 410 m 0,0,1
 390 39 390 39 178 -213 c 0,2,3
 119 -284 119 -284 103 -290 c 1,4,-1
 91 -274 l 1,5,6
 115 -245 115 -245 156 -187 c 0,7,8
 223 -93 223 -93 277 51 c 0,9,10
 342 227 342 227 343 410 c 0,11,12
 346 776 346 776 94 1116 c 1,13,-1
 103 1125 l 1,14,15
 411 847 411 847 400 410 c 0,0,1
EndSplineSet
EndChar

StartChar: asterisk
Encoding: 42 42 13
Width: 475
GlyphClass: 2
Flags: W
LayerCount: 2
Fore
SplineSet
348 828 m 0,0,1
 314 822 314 822 271 883 c 1,2,3
 294 824 294 824 294 791 c 0,4,5
 294 763 294 763 275 763 c 0,6,7
 220 763 220 763 220 812 c 0,8,9
 220 841 220 841 242 880 c 1,10,11
 180 801 180 801 149 801 c 0,12,13
 140 801 140 801 135 811 c 0,14,15
 121 840 121 840 135 869 c 0,16,17
 149 899 149 899 226 901 c 1,18,19
 110 912 110 912 110 944 c 0,20,21
 110 974 110 974 153 983 c 0,22,23
 188 991 188 991 235 924 c 1,24,25
 201 992 201 992 201 1028 c 0,26,27
 201 1053 201 1053 220 1054 c 0,28,29
 246 1056 246 1056 265 1041.5 c 128,-1,30
 284 1027 284 1027 284 1001 c 0,31,32
 284 972 284 972 262 930 c 1,33,34
 321 1018 321 1018 350 1018 c 0,35,36
 359 1018 359 1018 365 1008 c 0,37,38
 378 984 378 984 366 953 c 0,39,40
 354 921 354 921 279 909 c 1,41,42
 395 904 395 904 394 870 c 0,43,44
 393 837 393 837 348 828 c 0,0,1
EndSplineSet
EndChar

StartChar: plus
Encoding: 43 43 14
Width: 851
GlyphClass: 2
Flags: W
LayerCount: 2
Fore
SplineSet
773 388 m 2,0,-1
 432 388 l 1,1,-1
 432 43 l 2,2,3
 432 30 432 30 410 30 c 256,4,5
 388 30 388 30 388 43 c 2,6,-1
 388 388 l 1,7,-1
 43 388 l 2,8,9
 30 388 30 388 30 410 c 256,10,11
 30 432 30 432 43 432 c 2,12,-1
 388 432 l 1,13,-1
 388 773 l 2,14,15
 388 786 388 786 410 786 c 256,16,17
 432 786 432 786 432 773 c 2,18,-1
 432 432 l 1,19,-1
 773 432 l 2,20,21
 786 432 786 432 786 410 c 256,22,23
 786 388 786 388 773 388 c 2,0,-1
EndSplineSet
EndChar

StartChar: comma
Encoding: 44 44 15
Width: 290
GlyphClass: 2
Flags: W
LayerCount: 2
Fore
SplineSet
182 41 m 0,0,1
 179 -31 179 -31 119 -98 c 0,2,3
 72 -151 72 -151 55 -151 c 1,4,-1
 43 -139 l 1,5,6
 125 -110 125 -110 125 -3 c 1,7,8
 108 -3 108 -3 90 7 c 0,9,10
 58 25 58 25 58 55 c 0,11,12
 58 87 58 87 77 108.5 c 128,-1,13
 96 130 96 130 127 130 c 256,14,15
 158 130 158 130 172 99 c 0,16,17
 184 73 184 73 182 41 c 0,0,1
EndSplineSet
EndChar

StartChar: hyphen
Encoding: 45 45 16
AltUni2: 002212.ffffffff.0 0000ad.ffffffff.0
Width: 452
GlyphClass: 2
Flags: W
LayerCount: 2
Fore
SplineSet
359 385 m 1,0,-1
 49 385 l 1,1,-1
 49 432 l 1,2,-1
 359 432 l 1,3,-1
 359 385 l 1,0,-1
EndSplineSet
EndChar

StartChar: period
Encoding: 46 46 17
Width: 452
GlyphClass: 2
Flags: W
LayerCount: 2
Fore
SplineSet
368 74 m 0,0,1
 368 43 368 43 345 20 c 128,-1,2
 322 -3 322 -3 291 -3 c 256,3,4
 260 -3 260 -3 237 20 c 128,-1,5
 214 43 214 43 214 74 c 0,6,7
 214 106 214 106 236.5 129 c 128,-1,8
 259 152 259 152 291 152 c 256,9,10
 323 152 323 152 345.5 129 c 128,-1,11
 368 106 368 106 368 74 c 0,0,1
EndSplineSet
EndChar

StartChar: slash
Encoding: 47 47 18
Width: 452
GlyphClass: 2
Flags: W
LayerCount: 2
Fore
SplineSet
298 1019 m 1,0,-1
 41 -203 l 1,1,-1
 17 -203 l 1,2,-1
 275 1019 l 1,3,-1
 298 1019 l 1,0,-1
EndSplineSet
EndChar

StartChar: zero
Encoding: 48 48 19
Width: 950
GlyphClass: 2
Flags: W
LayerCount: 2
Fore
SplineSet
755 437 m 0,0,1
 748 580 748 580 679 683 c 0,2,3
 595 808 595 808 447 810 c 0,4,5
 298 812 298 812 212 691 c 0,6,7
 137 585 137 585 143 444 c 256,8,9
 149 303 149 303 217 201 c 0,10,11
 299 77 299 77 445 75 c 0,12,13
 594 73 594 73 682 192 c 1,14,15
 761 297 761 297 755 437 c 0,0,1
808 435 m 0,16,17
 815 270 815 270 723 146 c 0,18,19
 618 6 618 6 443 8 c 0,20,21
 271 10 271 10 174 157 c 1,22,23
 94 276 94 276 87 443 c 0,24,25
 79 610 79 610 168 735 c 0,26,27
 269 877 269 877 446 875 c 0,28,29
 620 873 620 873 719 725 c 0,30,31
 800 603 800 603 808 435 c 0,16,17
EndSplineSet
EndChar

StartChar: one
Encoding: 49 49 20
Width: 455
GlyphClass: 2
Flags: W
LayerCount: 2
Fore
SplineSet
183 7 m 1,0,-1
 183 782 l 1,1,-1
 48 642 l 1,2,-1
 -5 679 l 1,3,-1
 184 871 l 1,4,-1
 243 869 l 1,5,-1
 243 5 l 1,6,-1
 183 7 l 1,0,-1
EndSplineSet
EndChar

StartChar: two
Encoding: 50 50 21
Width: 676
GlyphClass: 2
Flags: W
LayerCount: 2
Fore
SplineSet
-3 0 m 1,0,1
 1 73 1 73 51 151 c 0,2,3
 89 210 89 210 162 284 c 1,4,5
 223 342 223 342 283 399 c 1,6,7
 417 533 417 533 417 628 c 0,8,9
 417 697 417 697 366 744.5 c 128,-1,10
 315 792 315 792 235 792 c 0,11,12
 125 792 125 792 82 705 c 1,13,-1
 8 707 l 1,14,15
 28 777 28 777 102 818 c 0,16,17
 173 858 173 858 258 853 c 0,18,19
 350 847 350 847 409 789 c 0,20,21
 477 723 477 723 477 605 c 0,22,23
 477 537 477 537 422 462 c 0,24,25
 384 411 384 411 296 330 c 1,26,-1
 225 266 l 1,27,28
 98 146 98 146 81 52 c 1,29,-1
 539 52 l 1,30,-1
 539 0 l 1,31,-1
 -3 0 l 1,0,1
EndSplineSet
EndChar

StartChar: three
Encoding: 51 51 22
Width: 696
GlyphClass: 2
Flags: W
LayerCount: 2
Fore
SplineSet
294 3 m 0,0,1
 276 2 276 2 259 2 c 0,2,3
 157 2 157 2 88 60 c 0,4,5
 24 114 24 114 2 207 c 1,6,-1
 55 209 l 1,7,8
 93 67 93 67 254 67 c 0,9,10
 458 67 458 67 458 267 c 0,11,12
 458 363 458 363 343 459 c 1,13,14
 283 406 283 406 178 399 c 1,15,-1
 179 465 l 1,16,17
 255 471 255 471 326 537 c 128,-1,18
 397 603 397 603 397 679 c 0,19,20
 397 733 397 733 359.5 763 c 128,-1,21
 322 793 322 793 261 793 c 0,22,23
 224 793 224 793 121 759 c 1,24,-1
 121 828 l 1,25,26
 211 865 211 865 273 865 c 0,27,28
 337 865 337 865 384 831 c 1,29,30
 469 772 469 772 469 667 c 0,31,32
 469 604 469 604 380 503 c 1,33,34
 464 439 464 439 498 385.5 c 128,-1,35
 532 332 532 332 532 261 c 0,36,37
 532 26 532 26 294 3 c 0,0,1
EndSplineSet
EndChar

StartChar: four
Encoding: 52 52 23
Width: 831
GlyphClass: 2
Flags: W
LayerCount: 2
Fore
SplineSet
670 173 m 1,0,-1
 463 173 l 1,1,-1
 463 -57 l 1,2,-1
 403 -57 l 1,3,-1
 403 173 l 1,4,-1
 68 173 l 2,5,6
 45 173 45 173 -32 172 c 1,7,-1
 402 832 l 1,8,-1
 463 830 l 1,9,-1
 463 224 l 1,10,-1
 671 224 l 1,11,-1
 670 173 l 1,0,-1
403 706 m 1,12,-1
 73 224 l 1,13,-1
 403 224 l 1,14,-1
 403 706 l 1,12,-1
EndSplineSet
EndChar

StartChar: five
Encoding: 53 53 24
Width: 798
GlyphClass: 2
Flags: W
LayerCount: 2
Fore
SplineSet
339 0 m 0,0,1
 182 0 182 0 96 71 c 0,2,3
 20 134 20 134 15 236 c 1,4,-1
 69 236 l 1,5,6
 112 55 112 55 326 55 c 0,7,8
 425 55 425 55 486 117 c 128,-1,9
 547 179 547 179 547 270 c 0,10,11
 547 362 547 362 478 412 c 0,12,13
 416 458 416 458 316 458 c 0,14,15
 237 458 237 458 166 429 c 1,16,-1
 108 429 l 1,17,-1
 108 818 l 1,18,-1
 556 818 l 1,19,-1
 557 769 l 1,20,-1
 161 769 l 1,21,-1
 161 493 l 1,22,23
 233 509 233 509 301 509 c 0,24,25
 433 509 433 509 512 448 c 0,26,27
 601 379 601 379 601 247 c 0,28,29
 601 145 601 145 521 72.5 c 128,-1,30
 441 0 441 0 339 0 c 0,0,1
EndSplineSet
EndChar

StartChar: six
Encoding: 54 54 25
Width: 713
GlyphClass: 2
Flags: W
LayerCount: 2
Fore
SplineSet
369 -8 m 0,0,1
 192 -8 192 -8 91 113 c 0,2,3
 0 223 0 223 0 382 c 0,4,5
 0 546 0 546 96 669 c 0,6,7
 143 730 143 730 242 772 c 0,8,9
 329 809 329 809 427 822 c 1,10,-1
 427 765 l 1,11,12
 332 757 332 757 278 736 c 0,13,14
 215 711 215 711 163 654 c 0,15,16
 61 540 61 540 61 374 c 0,17,18
 61 354 61 354 65 313 c 1,19,20
 165 391 165 391 283 391 c 0,21,22
 399 391 399 391 478.5 329 c 128,-1,23
 558 267 558 267 558 169 c 0,24,25
 558 103 558 103 502 49 c 0,26,27
 444 -8 444 -8 369 -8 c 0,0,1
359 327 m 0,28,29
 323 337 323 337 263 335 c 0,30,31
 160 332 160 332 82 265 c 1,32,33
 96 184 96 184 180 115.5 c 128,-1,34
 264 47 264 47 347 47 c 0,35,36
 371 47 371 47 392 54 c 0,37,38
 459 77 459 77 484 131 c 0,39,40
 495 155 495 155 495 178 c 0,41,42
 495 227 495 227 450 272 c 0,43,44
 409 314 409 314 359 327 c 0,28,29
EndSplineSet
EndChar

StartChar: seven
Encoding: 55 55 26
Width: 809
GlyphClass: 2
Flags: W
LayerCount: 2
Fore
SplineSet
554 815 m 2,0,1
 545 790 545 790 213 -13 c 1,2,-1
 145 -13 l 1,3,-1
 475 781 l 1,4,-1
 -54 781 l 1,5,-1
 -55 833 l 1,6,-1
 560 833 l 1,7,-1
 554 815 l 2,0,1
EndSplineSet
EndChar

StartChar: eight
Encoding: 56 56 27
Width: 690
GlyphClass: 2
Flags: W
LayerCount: 2
Fore
SplineSet
547 191 m 0,0,1
 547 103 547 103 460 47 c 0,2,3
 385 -1 385 -1 292 -1 c 0,4,5
 200 -1 200 -1 126 57 c 0,6,7
 47 120 47 120 47 209 c 0,8,9
 47 277 47 277 112 338 c 0,10,11
 142 366 142 366 237 428 c 1,12,13
 47 506 47 506 47 639 c 0,14,15
 47 737 47 737 124 792 c 0,16,17
 191 840 191 840 293 840 c 0,18,19
 385 840 385 840 462 783 c 0,20,21
 546 720 546 720 546 632 c 0,22,23
 546 568 546 568 471 507 c 0,24,25
 467 504 467 504 339 421 c 1,26,27
 420 387 420 387 477 332 c 0,28,29
 547 265 547 265 547 191 c 0,0,1
291 451 m 1,30,-1
 331 468 l 1,31,-1
 431 534 l 1,32,33
 488 580 488 580 488 628 c 0,34,35
 488 696 488 696 424 743 c 1,36,37
 366 787 366 787 296 787 c 0,38,39
 219 787 219 787 167 750 c 0,40,41
 109 709 109 709 109 634 c 0,42,43
 109 533 109 533 253 474 c 1,44,-1
 291 451 l 1,30,-1
293 392 m 1,45,-1
 255 369 l 1,46,47
 111 309 111 309 111 208 c 0,48,49
 111 134 111 134 169 92 c 0,50,51
 220 56 220 56 298 56 c 0,52,53
 368 56 368 56 426 99 c 0,54,55
 490 147 490 147 490 214 c 0,56,57
 490 262 490 262 433 308 c 0,58,59
 429 312 429 312 333 374 c 1,60,-1
 293 392 l 1,45,-1
EndSplineSet
EndChar

StartChar: nine
Encoding: 57 57 28
Width: 724
GlyphClass: 2
Flags: W
LayerCount: 2
Fore
SplineSet
519 156 m 0,0,1
 428 -2 428 -2 282 -2 c 0,2,3
 164 -2 164 -2 89 63.5 c 128,-1,4
 14 129 14 129 10 234 c 1,5,-1
 72 233 l 1,6,7
 81 145 81 145 137 95 c 0,8,9
 189 49 189 49 261 49 c 0,10,11
 397 49 397 49 463 183 c 0,12,13
 520 297 520 297 520 437 c 0,14,15
 520 487 520 487 511 554 c 1,16,17
 410 464 410 464 275 464 c 0,18,19
 167 464 167 464 90 525 c 0,20,21
 10 589 10 589 10 687 c 0,22,23
 10 771 10 771 82 825 c 0,24,25
 149 875 149 875 246 875 c 0,26,27
 411 875 411 875 504 743 c 0,28,29
 579 636 579 636 579 428 c 0,30,31
 579 262 579 262 519 156 c 0,0,1
217 810 m 0,32,33
 139 801 139 801 102.5 768.5 c 128,-1,34
 66 736 66 736 66 689 c 0,35,36
 66 644 66 644 96.5 601 c 128,-1,37
 127 558 127 558 172 535 c 1,38,39
 228 508 228 508 317 519 c 0,40,41
 423 533 423 533 492 608 c 1,42,43
 486 694 486 694 414.5 753 c 128,-1,44
 343 812 343 812 248 812 c 0,45,46
 232 812 232 812 217 810 c 0,32,33
EndSplineSet
EndChar

StartChar: colon
Encoding: 58 58 29
Width: 290
GlyphClass: 2
Flags: W
LayerCount: 2
Fore
SplineSet
217 582 m 0,0,1
 217 550 217 550 194.5 527 c 128,-1,2
 172 504 172 504 140 504 c 256,3,4
 108 504 108 504 85 527 c 128,-1,5
 62 550 62 550 62 582 c 256,6,7
 62 614 62 614 85 636.5 c 128,-1,8
 108 659 108 659 140 659 c 0,9,10
 171 659 171 659 194 636 c 128,-1,11
 217 613 217 613 217 582 c 0,0,1
217 216 m 0,12,13
 217 185 217 185 194 162 c 128,-1,14
 171 139 171 139 140 139 c 0,15,16
 108 139 108 139 85 161.5 c 128,-1,17
 62 184 62 184 62 216 c 256,18,19
 62 248 62 248 85 270 c 128,-1,20
 108 292 108 292 140 292 c 0,21,22
 171 292 171 292 194 269 c 128,-1,23
 217 246 217 246 217 216 c 0,12,13
EndSplineSet
EndChar

StartChar: semicolon
Encoding: 59 59 30
Width: 290
GlyphClass: 2
Flags: W
LayerCount: 2
Fore
SplineSet
201 401 m 0,0,1
 201 369 201 369 179 346 c 128,-1,2
 157 323 157 323 125 323 c 0,3,4
 92 323 92 323 70 346 c 128,-1,5
 48 369 48 369 48 401 c 0,6,7
 48 432 48 432 71 455 c 128,-1,8
 94 478 94 478 125 478 c 0,9,10
 155 478 155 478 178 455 c 128,-1,11
 201 432 201 432 201 401 c 0,0,1
198 51 m 0,12,13
 198 -21 198 -21 129 -93 c 0,14,15
 73 -151 73 -151 55 -151 c 1,16,-1
 43 -139 l 1,17,18
 125 -110 125 -110 125 -3 c 1,19,20
 107 -3 107 -3 85 7 c 0,21,22
 48 25 48 25 48 55 c 0,23,24
 47 146 47 146 127 146 c 0,25,26
 198 146 198 146 198 51 c 0,12,13
EndSplineSet
EndChar

StartChar: less
Encoding: 60 60 31
Width: 579
GlyphClass: 2
Flags: W
LayerCount: 2
Fore
SplineSet
466 728 m 0,0,1
 472 735 472 735 483.5 716 c 128,-1,2
 495 697 495 697 489 691 c 0,3,4
 472 672 472 672 310 542 c 0,5,6
 154 416 154 416 107 356 c 1,7,8
 140 319 140 319 314 223 c 0,9,10
 483 130 483 130 539 59 c 0,11,12
 542 56 542 56 542 49 c 0,13,14
 542 38 542 38 532.5 23.5 c 128,-1,15
 523 9 523 9 513 9 c 0,16,17
 507 9 507 9 504 13 c 0,18,19
 471 55 471 55 288.5 173.5 c 128,-1,20
 106 292 106 292 58 361 c 1,21,22
 79 390 79 390 237 523 c 1,23,24
 409 666 409 666 466 728 c 0,0,1
EndSplineSet
EndChar

StartChar: equal
Encoding: 61 61 32
Width: 851
GlyphClass: 2
Flags: W
LayerCount: 2
Fore
SplineSet
773 508 m 1,0,-1
 43 508 l 1,1,-1
 43 552 l 1,2,-1
 773 552 l 1,3,-1
 773 508 l 1,0,-1
773 262 m 1,4,-1
 43 262 l 1,5,-1
 43 306 l 1,6,-1
 773 306 l 1,7,-1
 773 262 l 1,4,-1
EndSplineSet
EndChar

StartChar: greater
Encoding: 62 62 33
Width: 579
GlyphClass: 2
Flags: W
LayerCount: 2
Fore
SplineSet
129 728 m 0,0,1
 123 735 123 735 113 720 c 128,-1,2
 103 705 103 705 103 696 c 0,3,4
 103 692 103 692 106 691 c 1,5,6
 121 674 121 674 285 542 c 0,7,8
 442 415 442 415 488 356 c 1,9,10
 455 319 455 319 281 223 c 0,11,12
 112 130 112 130 56 59 c 0,13,14
 54 56 54 56 54 49 c 0,15,16
 54 37 54 37 62.5 23 c 128,-1,17
 71 9 71 9 83 9 c 0,18,19
 87 9 87 9 91 13 c 0,20,21
 128 63 128 63 307.5 176 c 128,-1,22
 487 289 487 289 537 361 c 1,23,24
 515 390 515 390 356 523 c 0,25,26
 185 666 185 666 129 728 c 0,0,1
EndSplineSet
EndChar

StartChar: question
Encoding: 63 63 34
Width: 579
GlyphClass: 2
Flags: W
LayerCount: 2
Fore
SplineSet
472 851 m 0,0,1
 472 766 472 766 414 702 c 2,2,-1
 298 573 l 2,3,4
 195 458 195 458 195 356 c 0,5,6
 195 333 195 333 215 290 c 128,-1,7
 235 247 235 247 235 255 c 1,8,-1
 211 255 l 1,9,10
 171 385 171 385 171 411 c 0,11,12
 172 515 172 515 295 643 c 2,13,-1
 379 730 l 1,14,15
 421 783 421 783 423 866 c 0,16,17
 424 945 424 945 373.5 994 c 128,-1,18
 323 1043 323 1043 243 1045 c 0,19,20
 155 1048 155 1048 113 973 c 1,21,22
 141 973 141 973 160.5 953.5 c 128,-1,23
 180 934 180 934 180 906 c 0,24,25
 180 883 180 883 160 866 c 128,-1,26
 140 849 140 849 116 849 c 0,27,28
 55 849 55 849 55 918 c 0,29,30
 55 977 55 977 124 1023 c 0,31,32
 186 1064 186 1064 249 1066 c 0,33,34
 343 1068 343 1068 407.5 1006.5 c 128,-1,35
 472 945 472 945 472 851 c 0,0,1
300 74 m 256,36,37
 300 42 300 42 277.5 19.5 c 128,-1,38
 255 -3 255 -3 223 -3 c 0,39,40
 192 -3 192 -3 169 20 c 128,-1,41
 146 43 146 43 146 74 c 0,42,43
 146 106 146 106 168.5 129 c 128,-1,44
 191 152 191 152 223 152 c 256,45,46
 255 152 255 152 277.5 129 c 128,-1,47
 300 106 300 106 300 74 c 256,36,37
EndSplineSet
EndChar

StartChar: at
Encoding: 64 64 35
Width: 741
GlyphClass: 2
Flags: W
LayerCount: 2
Fore
SplineSet
413 216 m 1,0,1
 361 155 361 155 301 155 c 0,2,3
 227 155 227 155 190 232 c 0,4,5
 171 270 171 270 171 319 c 0,6,7
 171 375 171 375 199 432 c 128,-1,8
 227 489 227 489 272 519 c 128,-1,9
 317 549 317 549 359 549 c 0,10,11
 427 549 427 549 468 482 c 1,12,-1
 481 539 l 1,13,-1
 544 539 l 1,14,-1
 492 295 l 2,15,16
 482 248 482 248 482 239 c 0,17,18
 482 216 482 216 507 216 c 0,19,20
 538 216 538 216 575 252 c 0,21,22
 605 281 605 281 623 316 c 0,23,24
 647 364 647 364 647 416 c 0,25,26
 647 522 647 522 569 585 c 0,27,28
 497 644 497 644 388 644 c 0,29,30
 204 644 204 644 125 491 c 0,31,32
 87 418 87 418 87 332 c 0,33,34
 87 140 87 140 252 80 c 0,35,36
 323 54 323 54 398 54 c 0,37,38
 576 54 576 54 653 164 c 1,39,-1
 718 164 l 1,40,41
 673 70 673 70 549 23 c 0,42,43
 487 0 487 0 400 0 c 0,44,45
 236 0 236 0 139 79 c 0,46,47
 33 166 33 166 33 326 c 0,48,49
 33 424 33 424 74 507 c 1,50,51
 117 597 117 597 196 646.5 c 128,-1,52
 275 696 275 696 391 696 c 0,53,54
 584 696 584 696 666 550 c 0,55,56
 701 488 701 488 701 414 c 0,57,58
 701 321 701 321 639 241 c 0,59,60
 572 155 572 155 482 155 c 0,61,62
 434 155 434 155 420 184 c 0,63,64
 416 193 416 193 413 216 c 1,0,1
229 311 m 0,65,66
 229 272 229 272 247 242 c 0,67,68
 269 207 269 207 306 207 c 0,69,70
 365 207 365 207 404 271 c 1,71,72
 439 326 439 326 439 390 c 0,73,74
 439 432 439 432 418 460 c 0,75,76
 395 492 395 492 355 492 c 0,77,78
 297 492 297 492 260 428 c 0,79,80
 229 374 229 374 229 311 c 0,65,66
EndSplineSet
EndChar

StartChar: bracketleft
Encoding: 91 91 36
Width: 452
GlyphClass: 2
Flags: W
LayerCount: 2
Fore
SplineSet
361 -282 m 1,0,-1
 19 -282 l 1,1,-1
 19 1124 l 1,2,-1
 361 1124 l 1,3,-1
 361 1064 l 1,4,-1
 140 1064 l 1,5,-1
 140 -222 l 1,6,-1
 361 -222 l 1,7,-1
 361 -282 l 1,0,-1
EndSplineSet
EndChar

StartChar: backslash
Encoding: 92 92 37
Width: 452
GlyphClass: 2
Flags: W
LayerCount: 2
Fore
SplineSet
17 1019 m 1,0,-1
 275 -203 l 1,1,-1
 298 -203 l 1,2,-1
 41 1019 l 1,3,-1
 17 1019 l 1,0,-1
EndSplineSet
EndChar

StartChar: bracketright
Encoding: 93 93 38
Width: 452
GlyphClass: 2
Flags: W
LayerCount: 2
Fore
SplineSet
19 -282 m 1,0,-1
 361 -282 l 1,1,-1
 361 1124 l 1,2,-1
 19 1124 l 1,3,-1
 19 1064 l 1,4,-1
 239 1064 l 1,5,-1
 239 -222 l 1,6,-1
 19 -222 l 1,7,-1
 19 -282 l 1,0,-1
EndSplineSet
EndChar

StartChar: asciicircum
Encoding: 94 94 39
Width: 672
GlyphClass: 2
Flags: W
LayerCount: 2
Fore
SplineSet
572 598 m 0,0,1
 578 592 578 592 559.5 580.5 c 128,-1,2
 541 569 541 569 534 575 c 0,3,4
 515 593 515 593 432 699 c 0,5,6
 352 801 352 801 292 847 c 1,7,8
 253 807 253 807 183.5 712 c 128,-1,9
 114 617 114 617 65 578 c 0,10,11
 61 575 61 575 55 575 c 0,12,13
 44 575 44 575 29 584 c 128,-1,14
 14 593 14 593 14 604 c 0,15,16
 14 609 14 609 19 613 c 0,17,18
 72 651 72 651 157 754 c 128,-1,19
 242 857 242 857 297 896 c 1,20,21
 327 875 327 875 413 772 c 0,22,23
 511 654 511 654 572 598 c 0,0,1
EndSplineSet
EndChar

StartChar: underscore
Encoding: 95 95 40
Width: 851
GlyphClass: 2
Flags: W
LayerCount: 2
Fore
SplineSet
769 -113 m 1,0,-1
 39 -113 l 1,1,-1
 39 -68 l 1,2,-1
 769 -68 l 1,3,-1
 769 -113 l 1,0,-1
EndSplineSet
EndChar

StartChar: braceleft
Encoding: 123 123 41
Width: 452
GlyphClass: 2
Flags: W
LayerCount: 2
Fore
SplineSet
337 -282 m 1,0,1
 139 -282 139 -282 139 -46 c 2,2,-1
 139 226 l 2,3,4
 139 311 139 311 126 345 c 0,5,6
 106 397 106 397 42 423 c 1,7,8
 139 466 139 466 139 617 c 2,9,-1
 139 917 l 2,10,11
 139 1111 139 1111 337 1132 c 1,12,13
 245 1073 245 1073 245 940 c 2,14,-1
 245 640 l 2,15,16
 245 538 245 538 180 469 c 0,17,18
 158 447 158 447 113 421 c 1,19,20
 165 389 165 389 178 375 c 0,21,22
 245 306 245 306 245 191 c 2,23,-1
 245 -93 l 2,24,25
 245 -223 245 -223 337 -282 c 1,0,1
EndSplineSet
EndChar

StartChar: bar
Encoding: 124 124 42
Width: 290
GlyphClass: 2
Flags: W
LayerCount: 2
Fore
SplineSet
168 1035 m 1,0,-1
 171 -214 l 1,1,-1
 148 -219 l 1,2,-1
 145 1031 l 1,3,-1
 168 1035 l 1,0,-1
EndSplineSet
EndChar

StartChar: braceright
Encoding: 125 125 43
Width: 452
GlyphClass: 2
Flags: W
LayerCount: 2
Fore
SplineSet
42 -282 m 1,0,1
 240 -282 240 -282 240 -46 c 2,2,-1
 240 226 l 2,3,4
 240 311 240 311 253 345 c 0,5,6
 274 397 274 397 337 423 c 1,7,8
 240 466 240 466 240 617 c 2,9,-1
 240 917 l 2,10,11
 240 1111 240 1111 42 1132 c 1,12,13
 135 1073 135 1073 135 940 c 2,14,-1
 135 640 l 2,15,16
 135 538 135 538 200 469 c 0,17,18
 221 447 221 447 266 421 c 1,19,20
 214 389 214 389 201 375 c 0,21,22
 135 306 135 306 135 191 c 2,23,-1
 135 -93 l 2,24,25
 135 -223 135 -223 42 -282 c 1,0,1
EndSplineSet
EndChar

StartChar: asciitilde
Encoding: 126 126 44
Width: 672
GlyphClass: 2
Flags: W
LayerCount: 2
Fore
SplineSet
569 408 m 1,0,1
 505 353 505 353 429 353 c 0,2,3
 387 353 387 353 334 368 c 0,4,5
 219 400 219 400 171 400 c 0,6,7
 107 400 107 400 71 353 c 1,8,-1
 36 385 l 1,9,10
 88 440 88 440 177 440 c 0,11,12
 216 440 216 440 366 404 c 0,13,14
 414 392 414 392 430 392 c 0,15,16
 481 392 481 392 536 440 c 1,17,-1
 569 408 l 1,0,1
EndSplineSet
EndChar

StartChar: quotedblleft
Encoding: 8220 8220 45
Width: 579
GlyphClass: 2
Flags: W
LayerCount: 2
Fore
SplineSet
237 918 m 1,0,1
 188 893 188 893 151 808 c 1,2,3
 175 808 175 808 194.5 791 c 128,-1,4
 214 774 214 774 214 750 c 0,5,6
 214 719 214 719 196 696 c 128,-1,7
 178 673 178 673 148 675 c 0,8,9
 90 678 90 678 93 765 c 0,10,11
 95 837 95 837 156 904 c 0,12,13
 204 956 204 956 220 956 c 1,14,-1
 237 918 l 1,0,1
459 922 m 1,15,16
 416 899 416 899 375 809 c 1,17,18
 399 809 399 809 419 792 c 128,-1,19
 439 775 439 775 439 752 c 0,20,21
 439 720 439 720 421 699 c 1,22,23
 402 675 402 675 372 676 c 0,24,25
 314 679 314 679 317 766 c 0,26,27
 320 838 320 838 381 905 c 0,28,29
 429 957 429 957 445 957 c 1,30,-1
 459 922 l 1,15,16
EndSplineSet
EndChar

StartChar: quotedblright
Encoding: 8221 8221 46
Width: 579
GlyphClass: 2
Flags: W
LayerCount: 2
Fore
SplineSet
487 875 m 0,0,1
 484 802 484 802 423 736 c 0,2,3
 375 683 375 683 359 683 c 1,4,-1
 342 721 l 1,5,6
 391 746 391 746 429 831 c 1,7,8
 404 831 404 831 384.5 848 c 128,-1,9
 365 865 365 865 365 889 c 0,10,11
 365 920 365 920 383 943 c 128,-1,12
 401 966 401 966 432 964 c 0,13,14
 490 962 490 962 487 875 c 0,0,1
262 873 m 0,15,16
 259 801 259 801 198 734 c 0,17,18
 151 682 151 682 135 682 c 1,19,-1
 120 717 l 1,20,21
 164 740 164 740 204 830 c 1,22,23
 180 830 180 830 160 847 c 128,-1,24
 140 864 140 864 140 888 c 0,25,26
 140 919 140 919 158.5 941.5 c 128,-1,27
 177 964 177 964 207 963 c 0,28,29
 265 960 265 960 262 873 c 0,15,16
EndSplineSet
EndChar

StartChar: quoteleft
Encoding: 8216 8216 47
Width: 290
GlyphClass: 2
Flags: W
LayerCount: 2
Fore
SplineSet
237 918 m 1,0,1
 188 893 188 893 151 808 c 1,2,3
 175 808 175 808 194.5 791 c 128,-1,4
 214 774 214 774 214 750 c 0,5,6
 214 719 214 719 196 696 c 128,-1,7
 178 673 178 673 148 675 c 0,8,9
 90 678 90 678 93 765 c 0,10,11
 95 837 95 837 156 904 c 0,12,13
 204 956 204 956 220 956 c 1,14,-1
 237 918 l 1,0,1
EndSplineSet
EndChar

StartChar: quoteright
Encoding: 8217 8217 48
Width: 290
GlyphClass: 2
Flags: W
LayerCount: 2
Fore
SplineSet
213 886 m 0,0,1
 205 717 205 717 106 717 c 0,2,3
 96 717 96 717 88 729 c 128,-1,4
 80 741 80 741 80 752 c 0,5,6
 80 762 80 762 116 772 c 1,7,8
 142 782 142 782 155 843 c 1,9,10
 131 843 131 843 111 860 c 128,-1,11
 91 877 91 877 91 901 c 0,12,13
 91 932 91 932 109.5 954.5 c 128,-1,14
 128 977 128 977 158 976 c 0,15,16
 217 973 217 973 213 886 c 0,0,1
EndSplineSet
EndChar

StartChar: divide
Encoding: 247 247 49
Width: 851
GlyphClass: 2
Flags: W
LayerCount: 2
Fore
SplineSet
802 368 m 1,0,-1
 72 368 l 1,1,-1
 72 413 l 1,2,-1
 802 413 l 1,3,-1
 802 368 l 1,0,-1
527 582 m 0,4,5
 527 550 527 550 504.5 527 c 128,-1,6
 482 504 482 504 450 504 c 0,7,8
 417 504 417 504 394.5 526.5 c 128,-1,9
 372 549 372 549 372 582 c 0,10,11
 372 616 372 616 394.5 637.5 c 128,-1,12
 417 659 417 659 450 659 c 0,13,14
 481 659 481 659 504 636 c 128,-1,15
 527 613 527 613 527 582 c 0,4,5
527 194 m 256,16,17
 527 163 527 163 504 140 c 128,-1,18
 481 117 481 117 450 117 c 0,19,20
 417 117 417 117 394.5 139 c 128,-1,21
 372 161 372 161 372 194 c 256,22,23
 372 227 372 227 394.5 249 c 128,-1,24
 417 271 417 271 450 271 c 0,25,26
 481 271 481 271 504 248 c 128,-1,27
 527 225 527 225 527 194 c 256,16,17
EndSplineSet
EndChar

StartChar: onehalf
Encoding: 189 189 50
Width: 961
GlyphClass: 2
Flags: W
LayerCount: 2
Fore
SplineSet
571 756 m 1,0,-1
 223 0 l 1,1,-1
 182 19 l 1,2,-1
 530 775 l 1,3,-1
 571 756 l 1,0,-1
182 663 m 1,4,-1
 182 741 l 2,5,6
 182 775 182 775 142 775 c 0,7,8
 109 775 109 775 85.5 749.5 c 128,-1,9
 62 724 62 724 62 691 c 0,10,11
 62 666 62 666 79.5 650 c 128,-1,12
 97 634 97 634 122 634 c 0,13,14
 145 634 145 634 182 663 c 1,4,-1
182 628 m 1,15,16
 151 607 151 607 122 607 c 0,17,18
 85 607 85 607 60 630.5 c 128,-1,19
 35 654 35 654 35 691 c 0,20,21
 35 738 35 738 65 771 c 128,-1,22
 95 804 95 804 142 804 c 0,23,24
 169 804 169 804 190 786.5 c 128,-1,25
 211 769 211 769 211 743 c 2,26,-1
 211 473 l 2,27,28
 211 427 211 427 249 427 c 0,29,30
 265 427 265 427 279 439 c 1,31,32
 284 445 284 445 298 465 c 0,33,34
 300 468 300 468 304 468 c 1,35,-1
 304 468 l 1,36,37
 310 468 310 468 316.5 460.5 c 128,-1,38
 323 453 323 453 320 447 c 0,39,40
 290 398 290 398 249 398 c 0,41,42
 182 398 182 398 182 473 c 2,43,-1
 182 628 l 1,15,16
568 171 m 1,44,45
 560 191 560 191 547 194 c 0,46,47
 529 198 529 198 529 184 c 1,48,49
 527 171 527 171 568 171 c 1,44,45
591 174 m 1,50,51
 672 188 672 188 672 277 c 0,52,53
 672 324 672 324 642.5 352.5 c 128,-1,54
 613 381 613 381 565 381 c 0,55,56
 551 381 551 381 526 372 c 128,-1,57
 501 363 501 363 489 362 c 0,58,59
 473 360 473 360 473 379 c 0,60,61
 473 384 473 384 476 387 c 1,62,63
 513 408 513 408 565 408 c 0,64,65
 626 408 626 408 663.5 372.5 c 128,-1,66
 701 337 701 337 701 277 c 0,67,68
 701 169 701 169 601 146 c 1,69,70
 603 138 603 138 611 114 c 0,71,72
 639 35 639 35 682 35 c 0,73,74
 694 35 694 35 718 43.5 c 128,-1,75
 742 52 742 52 750 52 c 1,76,-1
 750 52 l 1,77,78
 766 52 766 52 766 36 c 0,79,80
 766 33 766 33 763 30 c 0,81,82
 734 7 734 7 682 7 c 0,83,84
 626 7 626 7 586 104 c 0,85,86
 580 119 580 119 576 143 c 1,87,88
 501 143 501 143 504 184 c 0,89,90
 506 220 506 220 544 217 c 0,91,92
 574 215 574 215 591 174 c 1,50,51
EndSplineSet
EndChar

StartChar: onequarter
Encoding: 188 188 51
Width: 961
GlyphClass: 2
Flags: W
LayerCount: 2
Fore
SplineSet
602 756 m 1,0,-1
 255 0 l 1,1,-1
 214 19 l 1,2,-1
 562 775 l 1,3,-1
 602 756 l 1,0,-1
712 253 m 1,4,5
 640 180 640 180 640 120 c 0,6,7
 640 88 640 88 658.5 68 c 128,-1,8
 677 48 677 48 708 51 c 1,9,10
 773 55 773 55 773 127 c 0,11,12
 773 184 773 184 712 253 c 1,4,5
695 272 m 1,13,14
 650 316 650 316 620 340 c 0,15,16
 611 346 611 346 524 414 c 0,17,18
 521 416 521 416 521 420 c 1,19,-1
 521 420 l 1,20,21
 521 437 521 437 536 437 c 0,22,23
 539 437 539 437 542 436 c 0,24,25
 623 384 623 384 714 292 c 1,26,-1
 786 361 l 2,27,28
 806 379 806 379 834 400 c 2,29,-1
 877 432 l 1,30,31
 884 432 884 432 889 423 c 0,32,33
 895 413 895 413 889 408 c 0,34,35
 845 375 845 375 807 340 c 2,36,-1
 733 272 l 1,37,38
 802 194 802 194 802 127 c 0,39,40
 802 86 802 86 776 55.5 c 128,-1,41
 750 25 750 25 710 22 c 0,42,43
 666 19 666 19 639.5 47.5 c 128,-1,44
 613 76 613 76 613 120 c 0,45,46
 613 188 613 188 695 272 c 1,13,14
303 626 m 1,47,48
 251 603 251 603 213 603 c 0,49,50
 204 603 204 603 197 603.5 c 128,-1,51
 190 604 190 604 190 617 c 0,52,53
 190 632 190 632 198 631 c 0,54,55
 246 630 246 630 288 647 c 0,56,57
 341 668 341 668 343 710 c 0,58,59
 348 785 348 785 239 785 c 0,60,61
 202 785 202 785 179.5 776.5 c 128,-1,62
 157 768 157 768 119 756 c 0,63,64
 106 752 106 752 106 775 c 0,65,66
 106 780 106 780 110 783 c 0,67,68
 175 814 175 814 239 814 c 0,69,70
 293 814 293 814 331 788 c 0,71,72
 376 758 376 758 372 707 c 0,73,74
 369 661 369 661 324 636 c 1,75,76
 376 572 376 572 376 520 c 0,77,78
 376 470 376 470 341 443 c 128,-1,79
 306 416 306 416 255 416 c 0,80,81
 181 416 181 416 36 594 c 1,82,-1
 36 598 l 2,83,84
 36 604 36 604 43.5 608.5 c 128,-1,85
 51 613 51 613 56 611 c 1,86,87
 107 553 107 553 162 495 c 0,88,89
 211 443 211 443 255 443 c 0,90,91
 293 443 293 443 319 462 c 0,92,93
 349 483 349 483 349 520 c 0,94,95
 349 571 349 571 303 626 c 1,47,48
EndSplineSet
EndChar

StartChar: threequarters
Encoding: 190 190 52
Width: 961
GlyphClass: 2
Flags: W
LayerCount: 2
Fore
SplineSet
571 756 m 1,0,-1
 223 0 l 1,1,-1
 182 19 l 1,2,-1
 530 775 l 1,3,-1
 571 756 l 1,0,-1
182 663 m 1,4,-1
 182 741 l 2,5,6
 182 775 182 775 142 775 c 0,7,8
 109 775 109 775 85.5 749.5 c 128,-1,9
 62 724 62 724 62 691 c 0,10,11
 62 666 62 666 79.5 650 c 128,-1,12
 97 634 97 634 122 634 c 0,13,14
 145 634 145 634 182 663 c 1,4,-1
182 628 m 1,15,16
 151 607 151 607 122 607 c 0,17,18
 85 607 85 607 60 630.5 c 128,-1,19
 35 654 35 654 35 691 c 0,20,21
 35 738 35 738 65 771 c 128,-1,22
 95 804 95 804 142 804 c 0,23,24
 169 804 169 804 190 786.5 c 128,-1,25
 211 769 211 769 211 743 c 2,26,-1
 211 473 l 2,27,28
 211 427 211 427 249 427 c 0,29,30
 265 427 265 427 279 439 c 1,31,32
 284 445 284 445 298 465 c 0,33,34
 300 468 300 468 304 468 c 1,35,-1
 304 468 l 1,36,37
 310 468 310 468 316.5 460.5 c 128,-1,38
 323 453 323 453 320 447 c 0,39,40
 290 398 290 398 249 398 c 0,41,42
 182 398 182 398 182 473 c 2,43,-1
 182 628 l 1,15,16
681 253 m 1,44,45
 608 180 608 180 608 120 c 0,46,47
 608 89 608 89 626 68.5 c 128,-1,48
 644 48 644 48 675 51 c 0,49,50
 741 57 741 57 741 127 c 0,51,52
 741 184 741 184 681 253 c 1,44,45
663 272 m 1,53,54
 606 325 606 325 588 340 c 0,55,56
 581 346 581 346 491 414 c 0,57,58
 489 416 489 416 489 420 c 1,59,-1
 489 420 l 1,60,61
 489 437 489 437 504 437 c 0,62,63
 507 437 507 437 508 436 c 0,64,65
 589 384 589 384 681 292 c 1,66,-1
 754 361 l 2,67,68
 772 377 772 377 802 400 c 2,69,-1
 844 432 l 1,70,71
 860 432 860 432 860 414 c 0,72,73
 860 411 860 411 857 408 c 0,74,75
 817 380 817 380 773 340 c 2,76,-1
 699 272 l 1,77,78
 769 194 769 194 769 127 c 0,79,80
 769 86 769 86 743 55.5 c 128,-1,81
 717 25 717 25 676 22 c 0,82,83
 633 19 633 19 607 47.5 c 128,-1,84
 581 76 581 76 581 120 c 0,85,86
 581 188 581 188 663 272 c 1,53,54
EndSplineSet
EndChar

StartChar: uni0A81
Encoding: 2689 2689 53
Width: 0
GlyphClass: 4
Flags: W
AnchorPoint: "Anchor-4" -319 715 mark 0
AnchorPoint: "Anchor-1" -319 715 mark 0
LayerCount: 2
Fore
SplineSet
-284 1089 m 256,0,1
 -284 1065 -284 1065 -301 1045 c 128,-1,2
 -318 1025 -318 1025 -342 1025 c 256,3,4
 -366 1025 -366 1025 -383 1045 c 128,-1,5
 -400 1065 -400 1065 -400 1089 c 256,6,7
 -400 1113 -400 1113 -383 1133.5 c 128,-1,8
 -366 1154 -366 1154 -342 1154 c 256,9,10
 -318 1154 -318 1154 -301 1133.5 c 128,-1,11
 -284 1113 -284 1113 -284 1089 c 256,0,1
-106 1119 m 0,12,13
 -197 879 -197 879 -349 876 c 0,14,15
 -433 874 -433 874 -504 957 c 0,16,17
 -517 972 -517 972 -558 1037 c 128,-1,18
 -599 1102 -599 1102 -599 1111 c 1,19,-1
 -599 1111 l 1,20,21
 -599 1124 -599 1124 -576 1132 c 0,22,23
 -553 1141 -553 1141 -546 1128 c 0,24,25
 -483 1010 -483 1010 -469 992 c 0,26,27
 -420 931 -420 931 -349 933 c 0,28,29
 -282 934 -282 934 -232 1001 c 0,30,31
 -207 1033 -207 1033 -164 1125 c 0,32,33
 -157 1138 -157 1138 -133 1138 c 0,34,35
 -99 1138 -99 1138 -106 1119 c 0,12,13
EndSplineSet
Substitution2: "Single Substitution lookup 32 subtable" glyph841
EndChar

StartChar: uni0A82
Encoding: 2690 2690 54
Width: 0
GlyphClass: 4
Flags: W
AnchorPoint: "Anchor-4" -158 552 mark 0
AnchorPoint: "Anchor-1" -158 552 mark 0
AnchorPoint: "Anchor-0" -158 552 mark 0
LayerCount: 2
Fore
SplineSet
-126 913 m 0,0,1
 -126 885 -126 885 -147 863.5 c 128,-1,2
 -168 842 -168 842 -195 842 c 0,3,4
 -225 842 -225 842 -245.5 863 c 128,-1,5
 -266 884 -266 884 -266 913 c 0,6,7
 -266 940 -266 940 -244.5 961 c 128,-1,8
 -223 982 -223 982 -195 982 c 0,9,10
 -168 982 -168 982 -147 961 c 128,-1,11
 -126 940 -126 940 -126 913 c 0,0,1
EndSplineSet
EndChar

StartChar: uni0A83
Encoding: 2691 2691 55
Width: 290
GlyphClass: 4
Flags: W
LayerCount: 2
Fore
SplineSet
220 539 m 0,0,1
 220 507 220 507 197.5 483.5 c 128,-1,2
 175 460 175 460 143 460 c 256,3,4
 111 460 111 460 88 483.5 c 128,-1,5
 65 507 65 507 65 539 c 256,6,7
 65 571 65 571 88 593 c 128,-1,8
 111 615 111 615 143 615 c 0,9,10
 174 615 174 615 197 592 c 128,-1,11
 220 569 220 569 220 539 c 0,0,1
220 172 m 0,12,13
 220 142 220 142 197 119 c 128,-1,14
 174 96 174 96 143 96 c 0,15,16
 111 96 111 96 88 118 c 128,-1,17
 65 140 65 140 65 172 c 256,18,19
 65 204 65 204 88 226.5 c 128,-1,20
 111 249 111 249 143 249 c 0,21,22
 174 249 174 249 197 226 c 128,-1,23
 220 203 220 203 220 172 c 0,12,13
EndSplineSet
EndChar

StartChar: uni0A85
Encoding: 2693 2693 56
Width: 1193
GlyphClass: 2
Flags: W
AnchorPoint: "Anchor-4" 869 737 basechar 0
LayerCount: 2
Fore
SplineSet
1098 88 m 0,0,1
 1033 -20 1033 -20 972 -20 c 0,2,3
 902 -20 902 -20 860 16.5 c 128,-1,4
 818 53 818 53 818 122 c 2,5,-1
 818 788 l 2,6,7
 818 805 818 805 847 805 c 256,8,9
 876 805 876 805 876 788 c 2,10,-1
 876 122 l 2,11,12
 876 38 876 38 972 38 c 0,13,14
 998 38 998 38 1044 111 c 1,15,16
 1050 117 1050 117 1060 117 c 1,17,-1
 1060 117 l 1,18,19
 1073 117 1073 117 1088 110 c 1,20,21
 1105 100 1105 100 1098 88 c 0,0,1
161 381 m 1,22,23
 145 404 145 404 117 404 c 0,24,25
 106 404 106 404 101 395 c 0,26,27
 97 388 97 388 103 382 c 0,28,29
 120 364 120 364 161 381 c 1,22,23
591 494 m 1,30,31
 592 502 592 502 587.5 521 c 128,-1,32
 583 540 583 540 575 536 c 0,33,34
 569 533 569 533 569 527 c 0,35,36
 569 505 569 505 591 494 c 1,30,31
822 436 m 1,37,38
 802 418 802 418 750 395 c 1,39,40
 737 392 737 392 720 392 c 0,41,42
 688 392 688 392 641 401 c 1,43,44
 625 330 625 330 569 259 c 0,45,46
 508 181 508 181 410 180 c 1,47,48
 315 178 315 178 213 285 c 0,49,50
 200 298 200 298 187 330 c 1,51,52
 149 319 149 319 122 319 c 0,53,54
 42 319 42 319 42 394 c 0,55,56
 42 459 42 459 116 462 c 0,57,58
 161 464 161 464 204 398 c 1,59,60
 349 465 349 465 349 589 c 0,61,62
 349 634 349 634 319 681 c 1,63,64
 282 736 282 736 213 736 c 0,65,66
 182 736 182 736 126 710 c 2,67,-1
 70 683 l 1,68,69
 58 683 58 683 48 698 c 0,70,71
 39 710 39 710 39 723 c 0,72,73
 39 730 39 730 43 731 c 1,74,75
 148 794 148 794 213 794 c 0,76,77
 311 794 311 794 362 724 c 0,78,79
 407 663 407 663 407 589 c 0,80,81
 407 440 407 440 236 349 c 1,82,83
 241 341 241 341 256 324 c 0,84,85
 338 236 338 236 410 237 c 0,86,87
 492 239 492 239 537 310 c 0,88,89
 577 372 577 372 586 429 c 1,90,91
 566 442 566 442 533 475 c 1,92,93
 517 501 517 501 517 531 c 0,94,95
 517 587 517 587 576 594 c 0,96,97
 644 601 644 601 656 502 c 0,98,99
 656 494 656 494 654 478.5 c 128,-1,100
 652 463 652 463 652 455 c 1,101,102
 692 446 692 446 738 453 c 0,103,104
 756 456 756 456 782 473 c 0,105,106
 817 497 817 497 822 500 c 1,107,-1
 822 436 l 1,37,38
EndSplineSet
EndChar

StartChar: uni0A86
Encoding: 2694 2694 57
Width: 1552
GlyphClass: 2
Flags: W
AnchorPoint: "Anchor-4" 1199 759 basechar 0
LayerCount: 2
Fore
SplineSet
161 381 m 1,0,1
 145 404 145 404 117 404 c 0,2,3
 106 404 106 404 101 395 c 0,4,5
 97 388 97 388 103 382 c 0,6,7
 120 364 120 364 161 381 c 1,0,1
591 494 m 1,8,9
 592 502 592 502 587.5 521 c 128,-1,10
 583 540 583 540 575 536 c 0,11,12
 569 533 569 533 569 527 c 0,13,14
 569 505 569 505 591 494 c 1,8,9
822 436 m 1,15,16
 802 418 802 418 750 395 c 1,17,18
 737 392 737 392 720 392 c 0,19,20
 688 392 688 392 641 401 c 1,21,22
 625 330 625 330 569 259 c 0,23,24
 508 181 508 181 410 180 c 1,25,26
 315 178 315 178 213 285 c 0,27,28
 200 298 200 298 187 330 c 1,29,30
 149 319 149 319 122 319 c 0,31,32
 42 319 42 319 42 394 c 0,33,34
 42 459 42 459 116 462 c 0,35,36
 161 464 161 464 204 398 c 1,37,38
 349 465 349 465 349 589 c 0,39,40
 349 634 349 634 319 681 c 1,41,42
 282 736 282 736 213 736 c 0,43,44
 182 736 182 736 126 710 c 2,45,-1
 70 683 l 1,46,47
 58 683 58 683 48 698 c 0,48,49
 39 710 39 710 39 723 c 0,50,51
 39 730 39 730 43 731 c 1,52,53
 148 794 148 794 213 794 c 0,54,55
 311 794 311 794 362 724 c 0,56,57
 407 663 407 663 407 589 c 0,58,59
 407 440 407 440 236 349 c 1,60,61
 241 341 241 341 256 324 c 0,62,63
 338 236 338 236 410 237 c 0,64,65
 492 239 492 239 537 310 c 0,66,67
 577 372 577 372 586 429 c 1,68,69
 566 442 566 442 533 475 c 1,70,71
 517 501 517 501 517 531 c 0,72,73
 517 587 517 587 576 594 c 0,74,75
 644 601 644 601 656 502 c 0,76,77
 656 494 656 494 654 478.5 c 128,-1,78
 652 463 652 463 652 455 c 1,79,80
 692 446 692 446 738 453 c 0,81,82
 756 456 756 456 782 473 c 0,83,84
 817 497 817 497 822 500 c 1,85,-1
 822 436 l 1,15,16
822 500 m 0,86,-1
1098 88 m 0,87,88
 1033 -20 1033 -20 972 -20 c 0,89,90
 902 -20 902 -20 860 16.5 c 128,-1,91
 818 53 818 53 818 122 c 2,92,-1
 818 788 l 2,93,94
 818 805 818 805 847 805 c 256,95,96
 876 805 876 805 876 788 c 2,97,-1
 876 122 l 2,98,99
 876 38 876 38 972 38 c 0,100,101
 998 38 998 38 1044 111 c 1,102,103
 1050 117 1050 117 1060 117 c 1,104,-1
 1060 117 l 1,105,106
 1073 117 1073 117 1088 110 c 1,107,108
 1105 100 1105 100 1098 88 c 0,87,88
1429 88 m 0,109,110
 1365 -20 1365 -20 1303 -20 c 0,111,112
 1234 -20 1234 -20 1192 16.5 c 128,-1,113
 1150 53 1150 53 1150 122 c 2,114,-1
 1150 788 l 2,115,116
 1150 805 1150 805 1179 805 c 256,117,118
 1208 805 1208 805 1208 788 c 2,119,-1
 1208 122 l 2,120,121
 1208 38 1208 38 1303 38 c 0,122,123
 1329 38 1329 38 1376 111 c 1,124,125
 1382 117 1382 117 1392 117 c 1,126,-1
 1392 117 l 1,127,128
 1405 117 1405 117 1419 110 c 1,129,130
 1436 100 1436 100 1429 88 c 0,109,110
EndSplineSet
EndChar

StartChar: uni0A87
Encoding: 2695 2695 58
Width: 811
GlyphClass: 2
Flags: W
LayerCount: 2
Fore
SplineSet
300 436 m 1,0,1
 323 442 323 442 369 450 c 1,2,3
 388 452 388 452 388 459 c 0,4,5
 388 473 388 473 372 473 c 0,6,7
 355 473 355 473 300 436 c 1,0,1
220 450 m 1,8,9
 223 453 223 453 252 473 c 0,10,11
 314 517 314 517 384 517 c 0,12,13
 445 517 445 517 445 469 c 0,14,15
 445 426 445 426 350 388 c 0,16,17
 297 366 297 366 232 385 c 1,18,19
 167 325 167 325 164 255 c 0,20,21
 159 163 159 163 228 103 c 0,22,23
 293 46 293 46 387 46 c 0,24,25
 496 46 496 46 568 122.5 c 128,-1,26
 640 199 640 199 640 308 c 0,27,28
 640 409 640 409 602 494 c 0,29,30
 573 560 573 560 502 662 c 0,31,32
 345 889 345 889 345 990 c 0,33,34
 345 1077 345 1077 432 1137 c 0,35,36
 504 1186 504 1186 585 1192 c 0,37,38
 605 1193 605 1193 605 1160 c 0,39,40
 605 1138 605 1138 591 1134 c 0,41,42
 504 1110 504 1110 469 1090 c 0,43,44
 403 1052 403 1052 403 990 c 0,45,46
 403 904 403 904 549 694 c 0,47,48
 629 579 629 579 657 513 c 0,49,50
 698 419 698 419 698 308 c 0,51,52
 698 175 698 175 609 83 c 1,53,54
 519 -12 519 -12 387 -12 c 0,55,56
 267 -12 267 -12 185 62 c 0,57,58
 98 140 98 140 106 258 c 0,59,60
 111 346 111 346 175 410 c 1,61,62
 123 442 123 442 78 499 c 0,63,64
 28 564 28 564 28 617 c 0,65,66
 28 672 28 672 94 728 c 0,67,68
 141 768 141 768 210 801 c 0,69,70
 222 806 222 806 232.5 792 c 128,-1,71
 243 778 243 778 243 765 c 0,72,73
 243 753 243 753 236 749 c 0,74,75
 162 707 162 707 145 694 c 0,76,77
 85 650 85 650 85 617 c 0,78,79
 85 573 85 573 133 520 c 0,80,81
 173 475 173 475 220 450 c 1,8,9
EndSplineSet
EndChar

StartChar: uni0A88
Encoding: 2696 2696 59
Width: 834
GlyphClass: 2
Flags: W
LayerCount: 2
Fore
SplineSet
227 449 m 1,0,1
 251 474 251 474 298 494 c 128,-1,2
 345 514 345 514 379 514 c 0,3,4
 433 514 433 514 433 471 c 0,5,6
 433 415 433 415 314 387 c 0,7,8
 278 378 278 378 240 385 c 1,9,10
 160 317 160 317 165 227 c 0,11,12
 169 148 169 148 238 93 c 0,13,14
 304 41 304 41 385 41 c 0,15,16
 500 41 500 41 575 130 c 0,17,18
 647 215 647 215 643 332 c 0,19,20
 638 468 638 468 476 702 c 0,21,22
 453 735 453 735 390 831 c 0,23,24
 349 893 349 893 348 979 c 1,25,26
 346 1049 346 1049 384 1100 c 1,27,28
 426 1154 426 1154 494 1158 c 0,29,30
 626 1166 626 1166 809 1051 c 1,31,32
 812 1034 812 1034 798 1022.5 c 128,-1,33
 784 1011 784 1011 766 1011 c 1,34,35
 609 1107 609 1107 497 1100 c 0,36,37
 451 1098 451 1098 426 1060 c 0,38,39
 404 1027 404 1027 405 979 c 0,40,41
 407 900 407 900 447 844 c 0,42,43
 467 817 467 817 526 734 c 1,44,45
 696 488 696 488 701 334 c 0,46,47
 705 192 705 192 617 91 c 0,48,49
 526 -14 526 -14 385 -14 c 0,50,51
 280 -14 280 -14 198 52 c 0,52,53
 112 121 112 121 107 224 c 0,54,55
 102 334 102 334 184 416 c 1,56,57
 29 524 29 524 26 607 c 0,58,59
 23 678 23 678 114 743 c 0,60,61
 169 782 169 782 211 798 c 0,62,63
 223 802 223 802 235.5 787.5 c 128,-1,64
 248 773 248 773 248 760 c 0,65,66
 248 751 248 751 240 749 c 0,67,68
 80 690 80 690 84 610 c 256,69,70
 88 530 88 530 227 449 c 1,0,1
EndSplineSet
EndChar

StartChar: uni0A89
Encoding: 2697 2697 60
Width: 776
GlyphClass: 2
Flags: W
LayerCount: 2
Fore
SplineSet
440 455 m 1,0,1
 416 462 416 462 394 462 c 0,2,3
 363 462 363 462 349 452 c 1,4,5
 358 446 358 446 410 447 c 0,6,7
 428 448 428 448 440 455 c 1,0,1
450 1105 m 0,8,9
 246 1105 246 1105 153 902 c 0,10,11
 85 753 85 753 85 521 c 0,12,13
 85 340 85 340 153 210 c 0,14,15
 239 48 239 48 404 48 c 0,16,17
 477 48 477 48 528 101.5 c 128,-1,18
 579 155 579 155 579 229 c 0,19,20
 579 279 579 279 556 333 c 128,-1,21
 533 387 533 387 497 420 c 1,22,23
 446 390 446 390 413 390 c 0,24,25
 377 390 377 390 347 401 c 0,26,27
 307 417 307 417 307 446 c 0,28,29
 307 477 307 477 334.5 498.5 c 128,-1,30
 362 520 362 520 394 520 c 0,31,32
 452 520 452 520 501 487 c 1,33,34
 578 542 578 542 578 608 c 0,35,36
 578 682 578 682 536 726 c 128,-1,37
 494 770 494 770 420 770 c 0,38,39
 355 770 355 770 301 730 c 0,40,41
 298 727 298 727 294 727 c 0,42,43
 283 727 283 727 273.5 741 c 128,-1,44
 264 755 264 755 264 766 c 0,45,46
 264 775 264 775 269 779 c 0,47,48
 335 828 335 828 420 828 c 0,49,50
 521 828 521 828 578.5 769 c 128,-1,51
 636 710 636 710 636 608 c 0,52,53
 636 526 636 526 543 452 c 1,54,55
 583 411 583 411 610 347.5 c 128,-1,56
 637 284 637 284 637 229 c 0,57,58
 637 133 637 133 568 61.5 c 128,-1,59
 499 -10 499 -10 404 -10 c 0,60,61
 214 -10 214 -10 111 169 c 1,62,63
 28 317 28 317 28 521 c 0,64,65
 28 782 28 782 116 951 c 0,66,67
 226 1163 226 1163 450 1163 c 0,68,69
 468 1163 468 1163 468 1131 c 0,70,71
 468 1105 468 1105 450 1105 c 0,8,9
EndSplineSet
EndChar

StartChar: uni0A8A
Encoding: 2698 2698 61
Width: 1112
GlyphClass: 2
Flags: W
LayerCount: 2
Fore
SplineSet
440 455 m 1,0,1
 416 462 416 462 394 462 c 0,2,3
 363 462 363 462 349 452 c 1,4,5
 358 446 358 446 410 447 c 0,6,7
 428 448 428 448 440 455 c 1,0,1
501 487 m 1,8,9
 578 542 578 542 578 608 c 0,10,11
 578 682 578 682 536 726 c 128,-1,12
 494 770 494 770 420 770 c 0,13,14
 389 770 389 770 301 730 c 0,15,16
 288 724 288 724 276 738 c 128,-1,17
 264 752 264 752 264 766 c 0,18,19
 264 774 264 774 269 779 c 0,20,21
 328 828 328 828 420 828 c 0,22,23
 521 828 521 828 578.5 769 c 128,-1,24
 636 710 636 710 636 608 c 0,25,26
 636 526 636 526 543 452 c 1,27,28
 583 411 583 411 610 347.5 c 128,-1,29
 637 284 637 284 637 229 c 0,30,31
 637 133 637 133 568 61.5 c 128,-1,32
 499 -10 499 -10 404 -10 c 0,33,34
 214 -10 214 -10 111 169 c 1,35,36
 28 317 28 317 28 521 c 0,37,38
 28 782 28 782 116 951 c 0,39,40
 226 1163 226 1163 450 1163 c 0,41,42
 647 1163 647 1163 753 1070 c 0,43,44
 866 972 866 972 867 778 c 2,45,-1
 872 135 l 2,46,47
 872 38 872 38 963 43 c 0,48,49
 994 45 994 45 1011 68 c 1,50,51
 1027 97 1027 97 1044 125 c 1,52,-1
 1093 93 l 1,53,54
 1045 22 1045 22 1038 16 c 1,55,56
 1011 -13 1011 -13 966 -14 c 0,57,58
 894 -17 894 -17 854 22.5 c 128,-1,59
 814 62 814 62 814 135 c 2,60,-1
 809 778 l 2,61,62
 808 943 808 943 710 1026 c 0,63,64
 618 1105 618 1105 450 1105 c 0,65,66
 246 1105 246 1105 153 902 c 0,67,68
 85 753 85 753 85 521 c 0,69,70
 85 340 85 340 153 210 c 0,71,72
 239 48 239 48 404 48 c 0,73,74
 477 48 477 48 528 101.5 c 128,-1,75
 579 155 579 155 579 229 c 0,76,77
 579 279 579 279 556 333 c 128,-1,78
 533 387 533 387 497 420 c 1,79,80
 446 390 446 390 413 390 c 0,81,82
 377 390 377 390 347 401 c 0,83,84
 307 417 307 417 307 446 c 0,85,86
 307 477 307 477 334.5 498.5 c 128,-1,87
 362 520 362 520 394 520 c 0,88,89
 452 520 452 520 501 487 c 1,8,9
EndSplineSet
EndChar

StartChar: uni0A8B
Encoding: 2699 2699 62
Width: 1112
GlyphClass: 2
Flags: W
AnchorPoint: "Anchor-4" 550 770 basechar 0
LayerCount: 2
Fore
SplineSet
481 385 m 1,0,1
 429 437 429 437 360 479 c 0,2,3
 273 533 273 533 214 531 c 0,4,5
 171 530 171 530 136 511 c 0,6,7
 119 502 119 502 72 465 c 0,8,9
 70 463 70 463 66 463 c 0,10,11
 56 463 56 463 48 477.5 c 128,-1,12
 40 492 40 492 40 502 c 0,13,14
 40 511 40 511 45 514 c 0,15,16
 70 529 70 529 117 562 c 1,17,18
 165 588 165 588 214 589 c 0,19,20
 282 591 282 591 375 534 c 0,21,22
 446 491 446 491 498 437 c 1,23,-1
 498 332 l 1,24,25
 373 240 373 240 166 71 c 0,26,27
 163 68 163 68 161 68 c 0,28,29
 151 68 151 68 142.5 83 c 128,-1,30
 134 98 134 98 134 109 c 0,31,32
 134 116 134 116 138 120 c 0,33,34
 188 173 188 173 481 385 c 1,0,1
744 442 m 1,35,36
 855 503 855 503 855 579 c 0,37,38
 855 608 855 608 831 626 c 128,-1,39
 807 644 807 644 776 644 c 0,40,41
 736 644 736 644 710.5 611.5 c 128,-1,42
 685 579 685 579 685 538 c 256,43,44
 685 497 685 497 744 442 c 1,35,36
886 291 m 1,45,-1
 952 309 l 1,46,47
 978 271 978 271 978 224 c 0,48,49
 978 203 978 203 973 179 c 0,50,51
 959 120 959 120 916.5 84 c 128,-1,52
 874 48 874 48 814 48 c 0,53,54
 794 48 794 48 769 54 c 0,55,56
 756 57 756 57 757 77 c 0,57,58
 758 98 758 98 770 105 c 1,59,60
 844 103 844 103 870 119 c 0,61,62
 907 141 907 141 920 190 c 1,63,64
 933 244 933 244 906 286 c 1,65,66
 842 313 842 313 744 384 c 1,67,68
 641 333 641 333 540 333 c 1,69,-1
 540 388 l 1,70,71
 605 384 605 384 698 421 c 1,72,73
 631 485 631 485 631 538 c 0,74,75
 631 602 631 602 672 650.5 c 128,-1,76
 713 699 713 699 776 699 c 0,77,78
 830 699 830 699 869.5 665.5 c 128,-1,79
 909 632 909 632 909 579 c 0,80,81
 909 482 909 482 789 407 c 1,82,83
 850 364 850 364 866 356 c 0,84,85
 896 339 896 339 925 341 c 0,86,87
 936 342 936 342 944 325.5 c 128,-1,88
 952 309 952 309 952 297 c 0,89,90
 952 284 952 284 944 288 c 0,91,92
 933 294 933 294 916 294 c 0,93,94
 902 294 902 294 886 291 c 1,45,-1
698 117 m 0,95,96
 694 64 694 64 664.5 31.5 c 128,-1,97
 635 -1 635 -1 593 -1 c 0,98,99
 491 -1 491 -1 491 122 c 2,100,-1
 491 788 l 2,101,102
 491 805 491 805 520 805 c 256,103,104
 549 805 549 805 549 788 c 2,105,-1
 549 122 l 2,106,107
 549 51 549 51 586 51 c 0,108,109
 593 51 593 51 601 52 c 0,110,111
 628 57 628 57 638 103 c 0,112,113
 647 146 647 146 661 146 c 1,114,-1
 661 146 l 1,115,116
 674 146 674 146 690 138 c 0,117,118
 700 132 700 132 698 117 c 0,95,96
EndSplineSet
EndChar

StartChar: uni0A8C
Encoding: 2700 2700 63
Width: 1008
GlyphClass: 2
Flags: W
AnchorPoint: "Anchor-4" 737 858 basechar 0
LayerCount: 2
Fore
SplineSet
392 453 m 1,0,1
 385 429 385 429 385 407 c 0,2,3
 385 376 385 376 395 362 c 1,4,5
 401 373 401 373 400 423 c 0,6,7
 399 441 399 441 392 453 c 1,0,1
799 417 m 1,8,9
 799 490 799 490 745.5 541 c 128,-1,10
 692 592 692 592 618 592 c 0,11,12
 568 592 568 592 514.5 569 c 128,-1,13
 461 546 461 546 427 510 c 1,14,15
 458 459 458 459 458 426 c 0,16,17
 458 390 458 390 446 360 c 0,18,19
 430 320 430 320 401 320 c 0,20,21
 370 320 370 320 348 349 c 1,22,23
 327 375 327 375 327 407 c 0,24,25
 327 465 327 465 361 514 c 1,26,27
 306 591 306 591 239 591 c 0,28,29
 165 591 165 591 121 549 c 128,-1,30
 77 507 77 507 77 433 c 0,31,32
 77 404 77 404 136 274 c 0,33,34
 192 151 192 151 216 122 c 0,35,36
 219 119 219 119 219 114 c 0,37,38
 219 104 219 104 204.5 94 c 128,-1,39
 190 84 190 84 180 84 c 0,40,41
 171 84 171 84 167 90 c 0,42,43
 136 129 136 129 80 256 c 0,44,45
 19 393 19 393 19 433 c 0,46,47
 19 534 19 534 78 591.5 c 128,-1,48
 137 649 137 649 239 649 c 0,49,50
 321 649 321 649 395 556 c 1,51,52
 436 596 436 596 499.5 623 c 128,-1,53
 563 650 563 650 618 650 c 0,54,55
 714 650 714 650 785.5 581 c 128,-1,56
 857 512 857 512 857 417 c 1,57,-1
 799 417 l 1,8,9
675 644 m 1,58,-1
 675 886 l 2,59,60
 675 904 675 904 704 904 c 256,61,62
 733 904 733 904 733 886 c 2,63,-1
 733 617 l 1,64,-1
 675 644 l 1,58,-1
963 109 m 0,65,66
 888 1 888 1 752 1 c 0,67,68
 652 1 652 1 591 46 c 0,69,70
 523 96 523 96 523 193 c 0,71,72
 523 254 523 254 589 303 c 0,73,74
 606 315 606 315 688 362 c 0,75,76
 790 421 790 421 825 439 c 0,77,78
 837 445 837 445 847 428 c 1,79,80
 854 414 854 414 854 401 c 0,81,82
 854 389 854 389 846 384 c 2,83,-1
 796 356 l 2,84,85
 684 293 684 293 632.5 266.5 c 128,-1,86
 581 240 581 240 581 193 c 0,87,88
 581 59 581 59 752 59 c 0,89,90
 804 59 804 59 846 91 c 0,91,92
 865 106 865 106 922 149 c 0,93,94
 926 152 926 152 931 152 c 1,95,-1
 931 152 l 1,96,97
 946 152 946 152 959 137 c 128,-1,98
 972 122 972 122 963 109 c 0,65,66
EndSplineSet
EndChar

StartChar: uni0A8D
Encoding: 2701 2701 64
Width: 1193
GlyphClass: 2
Flags: W
AnchorPoint: "Anchor-4" 869 770 basechar 0
LayerCount: 2
Fore
SplineSet
1098 88 m 0,0,1
 1033 -20 1033 -20 972 -20 c 0,2,3
 902 -20 902 -20 860 16.5 c 128,-1,4
 818 53 818 53 818 122 c 2,5,-1
 818 788 l 2,6,7
 818 805 818 805 847 805 c 256,8,9
 876 805 876 805 876 788 c 2,10,-1
 876 122 l 2,11,12
 876 38 876 38 972 38 c 0,13,14
 998 38 998 38 1044 111 c 1,15,16
 1050 117 1050 117 1060 117 c 1,17,-1
 1060 117 l 1,18,19
 1073 117 1073 117 1088 110 c 1,20,21
 1105 100 1105 100 1098 88 c 0,0,1
437 1187 m 1,22,-1
 437 1187 l 1,23,24
 437 1200 437 1200 460 1203 c 0,25,26
 485 1206 485 1206 494 1190 c 0,27,28
 588 1012 588 1012 598 998 c 0,29,30
 666 898 666 898 741 898 c 0,31,32
 774 898 774 898 821 918 c 0,33,34
 835 924 835 924 845.5 909.5 c 128,-1,35
 856 895 856 895 856 880 c 0,36,37
 856 870 856 870 847 866 c 2,38,-1
 807 846 l 1,39,40
 788 840 788 840 741 840 c 0,41,42
 660 840 660 840 572 963 c 0,43,44
 557 984 557 984 497 1082.5 c 128,-1,45
 437 1181 437 1181 437 1187 c 1,22,-1
161 381 m 1,46,47
 145 404 145 404 117 404 c 0,48,49
 106 404 106 404 101 395 c 0,50,51
 97 388 97 388 103 382 c 0,52,53
 120 364 120 364 161 381 c 1,46,47
591 494 m 1,54,55
 592 502 592 502 587.5 521 c 128,-1,56
 583 540 583 540 575 536 c 0,57,58
 569 533 569 533 569 527 c 0,59,60
 569 505 569 505 591 494 c 1,54,55
822 436 m 1,61,62
 802 418 802 418 750 395 c 1,63,64
 737 392 737 392 720 392 c 0,65,66
 688 392 688 392 641 401 c 1,67,68
 625 330 625 330 569 259 c 0,69,70
 508 181 508 181 410 180 c 1,71,72
 315 178 315 178 213 285 c 0,73,74
 200 298 200 298 187 330 c 1,75,76
 149 319 149 319 122 319 c 0,77,78
 42 319 42 319 42 394 c 0,79,80
 42 459 42 459 116 462 c 0,81,82
 161 464 161 464 204 398 c 1,83,84
 349 465 349 465 349 589 c 0,85,86
 349 634 349 634 319 681 c 1,87,88
 282 736 282 736 213 736 c 0,89,90
 182 736 182 736 126 710 c 2,91,-1
 70 683 l 1,92,93
 58 683 58 683 48 698 c 0,94,95
 39 710 39 710 39 723 c 0,96,97
 39 730 39 730 43 731 c 1,98,99
 148 794 148 794 213 794 c 0,100,101
 311 794 311 794 362 724 c 0,102,103
 407 663 407 663 407 589 c 0,104,105
 407 440 407 440 236 349 c 1,106,107
 241 341 241 341 256 324 c 0,108,109
 338 236 338 236 410 237 c 0,110,111
 492 239 492 239 537 310 c 0,112,113
 577 372 577 372 586 429 c 1,114,115
 566 442 566 442 533 475 c 1,116,117
 517 501 517 501 517 531 c 0,118,119
 517 587 517 587 576 594 c 0,120,121
 644 601 644 601 656 502 c 0,122,123
 656 494 656 494 654 478.5 c 128,-1,124
 652 463 652 463 652 455 c 1,125,126
 692 446 692 446 738 453 c 0,127,128
 756 456 756 456 782 473 c 0,129,130
 817 497 817 497 822 500 c 1,131,-1
 822 436 l 1,61,62
EndSplineSet
EndChar

StartChar: uni0A8F
Encoding: 2703 2703 65
Width: 1193
GlyphClass: 2
Flags: W
AnchorPoint: "Anchor-4" 880 770 basechar 0
LayerCount: 2
Fore
SplineSet
1098 88 m 0,0,1
 1033 -20 1033 -20 972 -20 c 0,2,3
 902 -20 902 -20 860 16.5 c 128,-1,4
 818 53 818 53 818 122 c 2,5,-1
 818 788 l 2,6,7
 818 805 818 805 847 805 c 256,8,9
 876 805 876 805 876 788 c 2,10,-1
 876 122 l 2,11,12
 876 38 876 38 972 38 c 0,13,14
 998 38 998 38 1044 111 c 1,15,16
 1050 117 1050 117 1060 117 c 1,17,-1
 1060 117 l 1,18,19
 1073 117 1073 117 1088 110 c 1,20,21
 1105 100 1105 100 1098 88 c 0,0,1
834 856 m 1,22,-1
 834 856 l 1,23,24
 834 843 834 843 811 840 c 0,25,26
 786 837 786 837 778 853 c 0,27,28
 683 1031 683 1031 673 1045 c 0,29,30
 605 1145 605 1145 530 1145 c 0,31,32
 498 1145 498 1145 450 1125 c 0,33,34
 437 1119 437 1119 425 1135 c 0,35,36
 416 1148 416 1148 416 1163 c 0,37,38
 416 1173 416 1173 424 1177 c 2,39,-1
 465 1197 l 1,40,41
 484 1203 484 1203 530 1203 c 0,42,43
 611 1203 611 1203 699 1080 c 1,44,45
 716 1058 716 1058 773 963 c 0,46,47
 834 863 834 863 834 856 c 1,22,-1
161 381 m 1,48,49
 145 404 145 404 117 404 c 0,50,51
 106 404 106 404 101 395 c 0,52,53
 97 388 97 388 103 382 c 0,54,55
 120 364 120 364 161 381 c 1,48,49
591 494 m 1,56,57
 592 502 592 502 587.5 521 c 128,-1,58
 583 540 583 540 575 536 c 0,59,60
 569 533 569 533 569 527 c 0,61,62
 569 505 569 505 591 494 c 1,56,57
822 436 m 1,63,64
 802 418 802 418 750 395 c 1,65,66
 737 392 737 392 720 392 c 0,67,68
 688 392 688 392 641 401 c 1,69,70
 625 330 625 330 569 259 c 0,71,72
 508 181 508 181 410 180 c 1,73,74
 315 178 315 178 213 285 c 0,75,76
 200 298 200 298 187 330 c 1,77,78
 149 319 149 319 122 319 c 0,79,80
 42 319 42 319 42 394 c 0,81,82
 42 459 42 459 116 462 c 0,83,84
 161 464 161 464 204 398 c 1,85,86
 349 465 349 465 349 589 c 0,87,88
 349 634 349 634 319 681 c 1,89,90
 282 736 282 736 213 736 c 0,91,92
 182 736 182 736 126 710 c 2,93,-1
 70 683 l 1,94,95
 58 683 58 683 48 698 c 0,96,97
 39 710 39 710 39 723 c 0,98,99
 39 730 39 730 43 731 c 1,100,101
 148 794 148 794 213 794 c 0,102,103
 311 794 311 794 362 724 c 0,104,105
 407 663 407 663 407 589 c 0,106,107
 407 440 407 440 236 349 c 1,108,109
 241 341 241 341 256 324 c 0,110,111
 338 236 338 236 410 237 c 0,112,113
 492 239 492 239 537 310 c 0,114,115
 577 372 577 372 586 429 c 1,116,117
 566 442 566 442 533 475 c 1,118,119
 517 501 517 501 517 531 c 0,120,121
 517 587 517 587 576 594 c 0,122,123
 644 601 644 601 656 502 c 0,124,125
 656 494 656 494 654 478.5 c 128,-1,126
 652 463 652 463 652 455 c 1,127,128
 692 446 692 446 738 453 c 0,129,130
 756 456 756 456 782 473 c 0,131,132
 817 497 817 497 822 500 c 1,133,-1
 822 436 l 1,63,64
EndSplineSet
EndChar

StartChar: uni0A90
Encoding: 2704 2704 66
Width: 1193
GlyphClass: 2
Flags: W
AnchorPoint: "Anchor-4" 913 858 basechar 0
LayerCount: 2
Fore
SplineSet
1098 88 m 0,0,1
 1033 -20 1033 -20 972 -20 c 0,2,3
 902 -20 902 -20 860 16.5 c 128,-1,4
 818 53 818 53 818 122 c 2,5,-1
 818 788 l 2,6,7
 818 805 818 805 847 805 c 256,8,9
 876 805 876 805 876 788 c 2,10,-1
 876 122 l 2,11,12
 876 38 876 38 972 38 c 0,13,14
 998 38 998 38 1044 111 c 1,15,16
 1050 117 1050 117 1060 117 c 1,17,-1
 1060 117 l 1,18,19
 1073 117 1073 117 1088 110 c 1,20,21
 1105 100 1105 100 1098 88 c 0,0,1
856 901 m 0,22,23
 861 887 861 887 846 875.5 c 128,-1,24
 831 864 831 864 817 864 c 0,25,26
 807 864 807 864 804 872 c 0,27,28
 743 1024 743 1024 699 1090 c 0,29,30
 632 1192 632 1192 539 1221 c 0,31,32
 514 1228 514 1228 471 1213 c 0,33,34
 458 1209 458 1209 447 1224 c 128,-1,35
 436 1239 436 1239 436 1253 c 0,36,37
 436 1263 436 1263 445 1266 c 0,38,39
 519 1285 519 1285 571 1268 c 0,40,41
 722 1220 722 1220 856 901 c 0,22,23
757 867 m 1,42,43
 762 864 762 864 762 854 c 1,44,-1
 762 854 l 1,45,46
 762 839 762 839 749 824 c 128,-1,47
 736 809 736 809 723 821 c 0,48,49
 595 940 595 940 563 963 c 0,50,51
 477 1027 477 1027 401 1027 c 0,52,53
 369 1027 369 1027 321 1006 c 0,54,55
 308 1001 308 1001 297.5 1015.5 c 128,-1,56
 287 1030 287 1030 287 1044 c 0,57,58
 287 1054 287 1054 295 1058 c 2,59,-1
 336 1079 l 1,60,61
 355 1085 355 1085 401 1085 c 0,62,63
 482 1085 482 1085 581 1015 c 0,64,65
 623 985 623 985 757 867 c 1,42,43
161 381 m 1,66,67
 145 404 145 404 117 404 c 0,68,69
 106 404 106 404 101 395 c 0,70,71
 97 388 97 388 103 382 c 0,72,73
 120 364 120 364 161 381 c 1,66,67
591 494 m 1,74,75
 592 502 592 502 587.5 521 c 128,-1,76
 583 540 583 540 575 536 c 0,77,78
 569 533 569 533 569 527 c 0,79,80
 569 505 569 505 591 494 c 1,74,75
822 436 m 1,81,82
 802 418 802 418 750 395 c 1,83,84
 737 392 737 392 720 392 c 0,85,86
 688 392 688 392 641 401 c 1,87,88
 625 330 625 330 569 259 c 0,89,90
 508 181 508 181 410 180 c 1,91,92
 315 178 315 178 213 285 c 0,93,94
 200 298 200 298 187 330 c 1,95,96
 149 319 149 319 122 319 c 0,97,98
 42 319 42 319 42 394 c 0,99,100
 42 459 42 459 116 462 c 0,101,102
 161 464 161 464 204 398 c 1,103,104
 349 465 349 465 349 589 c 0,105,106
 349 634 349 634 319 681 c 1,107,108
 282 736 282 736 213 736 c 0,109,110
 182 736 182 736 126 710 c 2,111,-1
 70 683 l 1,112,113
 58 683 58 683 48 698 c 0,114,115
 39 710 39 710 39 723 c 0,116,117
 39 730 39 730 43 731 c 1,118,119
 148 794 148 794 213 794 c 0,120,121
 311 794 311 794 362 724 c 0,122,123
 407 663 407 663 407 589 c 0,124,125
 407 440 407 440 236 349 c 1,126,127
 241 341 241 341 256 324 c 0,128,129
 338 236 338 236 410 237 c 0,130,131
 492 239 492 239 537 310 c 0,132,133
 577 372 577 372 586 429 c 1,134,135
 566 442 566 442 533 475 c 1,136,137
 517 501 517 501 517 531 c 0,138,139
 517 587 517 587 576 594 c 0,140,141
 644 601 644 601 656 502 c 0,142,143
 656 494 656 494 654 478.5 c 128,-1,144
 652 463 652 463 652 455 c 1,145,146
 692 446 692 446 738 453 c 0,147,148
 756 456 756 456 782 473 c 0,149,150
 817 497 817 497 822 500 c 1,151,-1
 822 436 l 1,81,82
EndSplineSet
EndChar

StartChar: uni0A91
Encoding: 2705 2705 67
Width: 1552
GlyphClass: 2
Flags: W
AnchorPoint: "Anchor-4" 1210 781 basechar 0
LayerCount: 2
Fore
SplineSet
1098 88 m 0,0,1
 1033 -20 1033 -20 972 -20 c 0,2,3
 902 -20 902 -20 860 16.5 c 128,-1,4
 818 53 818 53 818 122 c 2,5,-1
 818 788 l 2,6,7
 818 805 818 805 847 805 c 256,8,9
 876 805 876 805 876 788 c 2,10,-1
 876 122 l 2,11,12
 876 38 876 38 972 38 c 0,13,14
 998 38 998 38 1044 111 c 1,15,16
 1050 117 1050 117 1060 117 c 1,17,-1
 1060 117 l 1,18,19
 1073 117 1073 117 1088 110 c 1,20,21
 1105 100 1105 100 1098 88 c 0,0,1
1429 88 m 0,22,23
 1365 -20 1365 -20 1303 -20 c 0,24,25
 1234 -20 1234 -20 1192 16.5 c 128,-1,26
 1150 53 1150 53 1150 122 c 2,27,-1
 1150 788 l 2,28,29
 1150 805 1150 805 1179 805 c 256,30,31
 1208 805 1208 805 1208 788 c 2,32,-1
 1208 122 l 2,33,34
 1208 38 1208 38 1303 38 c 0,35,36
 1329 38 1329 38 1376 111 c 1,37,38
 1382 117 1382 117 1392 117 c 1,39,-1
 1392 117 l 1,40,41
 1405 117 1405 117 1419 110 c 1,42,43
 1436 100 1436 100 1429 88 c 0,22,23
814 1216 m 1,44,-1
 814 1216 l 1,45,46
 814 1229 814 1229 837 1232 c 0,47,48
 862 1235 862 1235 870 1219 c 0,49,50
 965 1041 965 1041 975 1027 c 0,51,52
 1043 927 1043 927 1118 927 c 0,53,54
 1150 927 1150 927 1197 947 c 0,55,56
 1211 953 1211 953 1221.5 938.5 c 128,-1,57
 1232 924 1232 924 1232 909 c 0,58,59
 1232 899 1232 899 1224 895 c 2,60,-1
 1183 875 l 1,61,62
 1164 869 1164 869 1118 869 c 0,63,64
 1037 869 1037 869 948 992 c 0,65,66
 934 1013 934 1013 874 1111.5 c 128,-1,67
 814 1210 814 1210 814 1216 c 1,44,-1
161 381 m 1,68,69
 145 404 145 404 117 404 c 0,70,71
 106 404 106 404 101 395 c 0,72,73
 97 388 97 388 103 382 c 0,74,75
 120 364 120 364 161 381 c 1,68,69
591 494 m 1,76,77
 592 502 592 502 587.5 521 c 128,-1,78
 583 540 583 540 575 536 c 0,79,80
 569 533 569 533 569 527 c 0,81,82
 569 505 569 505 591 494 c 1,76,77
822 436 m 1,83,84
 802 418 802 418 750 395 c 1,85,86
 737 392 737 392 720 392 c 0,87,88
 688 392 688 392 641 401 c 1,89,90
 625 330 625 330 569 259 c 0,91,92
 508 181 508 181 410 180 c 1,93,94
 315 178 315 178 213 285 c 0,95,96
 200 298 200 298 187 330 c 1,97,98
 149 319 149 319 122 319 c 0,99,100
 42 319 42 319 42 394 c 0,101,102
 42 459 42 459 116 462 c 0,103,104
 161 464 161 464 204 398 c 1,105,106
 349 465 349 465 349 589 c 0,107,108
 349 634 349 634 319 681 c 1,109,110
 282 736 282 736 213 736 c 0,111,112
 182 736 182 736 126 710 c 2,113,-1
 70 683 l 1,114,115
 58 683 58 683 48 698 c 0,116,117
 39 710 39 710 39 723 c 0,118,119
 39 730 39 730 43 731 c 1,120,121
 148 794 148 794 213 794 c 0,122,123
 311 794 311 794 362 724 c 0,124,125
 407 663 407 663 407 589 c 0,126,127
 407 440 407 440 236 349 c 1,128,129
 241 341 241 341 256 324 c 0,130,131
 338 236 338 236 410 237 c 0,132,133
 492 239 492 239 537 310 c 0,134,135
 577 372 577 372 586 429 c 1,136,137
 566 442 566 442 533 475 c 1,138,139
 517 501 517 501 517 531 c 0,140,141
 517 587 517 587 576 594 c 0,142,143
 644 601 644 601 656 502 c 0,144,145
 656 494 656 494 654 478.5 c 128,-1,146
 652 463 652 463 652 455 c 1,147,148
 692 446 692 446 738 453 c 0,149,150
 756 456 756 456 782 473 c 0,151,152
 817 497 817 497 822 500 c 1,153,-1
 822 436 l 1,83,84
EndSplineSet
EndChar

StartChar: uni0A93
Encoding: 2707 2707 68
Width: 1552
GlyphClass: 2
Flags: W
AnchorPoint: "Anchor-4" 1232 803 basechar 0
LayerCount: 2
Fore
SplineSet
1098 88 m 0,0,1
 1033 -20 1033 -20 972 -20 c 0,2,3
 902 -20 902 -20 860 16.5 c 128,-1,4
 818 53 818 53 818 122 c 2,5,-1
 818 788 l 2,6,7
 818 805 818 805 847 805 c 256,8,9
 876 805 876 805 876 788 c 2,10,-1
 876 122 l 2,11,12
 876 38 876 38 972 38 c 0,13,14
 998 38 998 38 1044 111 c 1,15,16
 1050 117 1050 117 1060 117 c 1,17,-1
 1060 117 l 1,18,19
 1073 117 1073 117 1088 110 c 1,20,21
 1105 100 1105 100 1098 88 c 0,0,1
1429 88 m 0,22,23
 1365 -20 1365 -20 1303 -20 c 0,24,25
 1234 -20 1234 -20 1192 16.5 c 128,-1,26
 1150 53 1150 53 1150 122 c 2,27,-1
 1150 788 l 2,28,29
 1150 805 1150 805 1179 805 c 256,30,31
 1208 805 1208 805 1208 788 c 2,32,-1
 1208 122 l 2,33,34
 1208 38 1208 38 1303 38 c 0,35,36
 1329 38 1329 38 1376 111 c 1,37,38
 1382 117 1382 117 1392 117 c 1,39,-1
 1392 117 l 1,40,41
 1405 117 1405 117 1419 110 c 1,42,43
 1436 100 1436 100 1429 88 c 0,22,23
1182 856 m 1,44,-1
 1182 856 l 1,45,46
 1182 843 1182 843 1158 840 c 256,47,48
 1134 837 1134 837 1125 853 c 0,49,50
 1031 1031 1031 1031 1021 1045 c 0,51,52
 953 1145 953 1145 877 1145 c 0,53,54
 845 1145 845 1145 798 1125 c 0,55,56
 784 1119 784 1119 773 1135 c 0,57,58
 763 1148 763 1148 763 1163 c 0,59,60
 763 1173 763 1173 772 1177 c 2,61,-1
 812 1197 l 1,62,63
 831 1203 831 1203 877 1203 c 0,64,65
 959 1203 959 1203 1047 1080 c 0,66,67
 1063 1058 1063 1058 1121 963 c 0,68,69
 1182 863 1182 863 1182 856 c 1,44,-1
161 381 m 1,70,71
 145 404 145 404 117 404 c 0,72,73
 106 404 106 404 101 395 c 0,74,75
 97 388 97 388 103 382 c 0,76,77
 120 364 120 364 161 381 c 1,70,71
591 494 m 1,78,79
 592 502 592 502 587.5 521 c 128,-1,80
 583 540 583 540 575 536 c 0,81,82
 569 533 569 533 569 527 c 0,83,84
 569 505 569 505 591 494 c 1,78,79
822 436 m 1,85,86
 802 418 802 418 750 395 c 1,87,88
 737 392 737 392 720 392 c 0,89,90
 688 392 688 392 641 401 c 1,91,92
 625 330 625 330 569 259 c 0,93,94
 508 181 508 181 410 180 c 1,95,96
 315 178 315 178 213 285 c 0,97,98
 200 298 200 298 187 330 c 1,99,100
 149 319 149 319 122 319 c 0,101,102
 42 319 42 319 42 394 c 0,103,104
 42 459 42 459 116 462 c 0,105,106
 161 464 161 464 204 398 c 1,107,108
 349 465 349 465 349 589 c 0,109,110
 349 634 349 634 319 681 c 1,111,112
 282 736 282 736 213 736 c 0,113,114
 182 736 182 736 126 710 c 2,115,-1
 70 683 l 1,116,117
 58 683 58 683 48 698 c 0,118,119
 39 710 39 710 39 723 c 0,120,121
 39 730 39 730 43 731 c 1,122,123
 148 794 148 794 213 794 c 0,124,125
 311 794 311 794 362 724 c 0,126,127
 407 663 407 663 407 589 c 0,128,129
 407 440 407 440 236 349 c 1,130,131
 241 341 241 341 256 324 c 0,132,133
 338 236 338 236 410 237 c 0,134,135
 492 239 492 239 537 310 c 0,136,137
 577 372 577 372 586 429 c 1,138,139
 566 442 566 442 533 475 c 1,140,141
 517 501 517 501 517 531 c 0,142,143
 517 587 517 587 576 594 c 0,144,145
 644 601 644 601 656 502 c 0,146,147
 656 494 656 494 654 478.5 c 128,-1,148
 652 463 652 463 652 455 c 1,149,150
 692 446 692 446 738 453 c 0,151,152
 756 456 756 456 782 473 c 0,153,154
 817 497 817 497 822 500 c 1,155,-1
 822 436 l 1,85,86
EndSplineSet
EndChar

StartChar: uni0A94
Encoding: 2708 2708 69
Width: 1552
GlyphClass: 2
Flags: W
AnchorPoint: "Anchor-4" 1221 902 basechar 0
LayerCount: 2
Fore
SplineSet
1098 88 m 0,0,1
 1033 -20 1033 -20 972 -20 c 0,2,3
 902 -20 902 -20 860 16.5 c 128,-1,4
 818 53 818 53 818 122 c 2,5,-1
 818 788 l 2,6,7
 818 805 818 805 847 805 c 256,8,9
 876 805 876 805 876 788 c 2,10,-1
 876 122 l 2,11,12
 876 38 876 38 972 38 c 0,13,14
 998 38 998 38 1044 111 c 1,15,16
 1050 117 1050 117 1060 117 c 1,17,-1
 1060 117 l 1,18,19
 1073 117 1073 117 1088 110 c 1,20,21
 1105 100 1105 100 1098 88 c 0,0,1
1429 88 m 0,22,23
 1365 -20 1365 -20 1303 -20 c 0,24,25
 1234 -20 1234 -20 1192 16.5 c 128,-1,26
 1150 53 1150 53 1150 122 c 2,27,-1
 1150 788 l 2,28,29
 1150 805 1150 805 1179 805 c 256,30,31
 1208 805 1208 805 1208 788 c 2,32,-1
 1208 122 l 2,33,34
 1208 38 1208 38 1303 38 c 0,35,36
 1329 38 1329 38 1376 111 c 1,37,38
 1382 117 1382 117 1392 117 c 1,39,-1
 1392 117 l 1,40,41
 1405 117 1405 117 1419 110 c 1,42,43
 1436 100 1436 100 1429 88 c 0,22,23
1189 901 m 0,44,45
 1195 887 1195 887 1179.5 875.5 c 128,-1,46
 1164 864 1164 864 1150 864 c 0,47,48
 1140 864 1140 864 1137 872 c 0,49,50
 1076 1024 1076 1024 1032 1090 c 0,51,52
 965 1192 965 1192 872 1221 c 0,53,54
 847 1228 847 1228 804 1213 c 0,55,56
 791 1209 791 1209 780 1224 c 128,-1,57
 769 1239 769 1239 769 1253 c 0,58,59
 769 1263 769 1263 778 1266 c 0,60,61
 852 1285 852 1285 904 1268 c 0,62,63
 1055 1220 1055 1220 1189 901 c 0,44,45
1090 867 m 1,64,65
 1095 864 1095 864 1095 854 c 1,66,-1
 1095 854 l 1,67,68
 1095 839 1095 839 1082 824 c 128,-1,69
 1069 809 1069 809 1056 821 c 0,70,71
 928 940 928 940 896 963 c 0,72,73
 810 1027 810 1027 734 1027 c 0,74,75
 702 1027 702 1027 654 1006 c 0,76,77
 641 1001 641 1001 630.5 1015.5 c 128,-1,78
 620 1030 620 1030 620 1044 c 0,79,80
 620 1054 620 1054 628 1058 c 2,81,-1
 669 1079 l 1,82,83
 688 1085 688 1085 734 1085 c 0,84,85
 815 1085 815 1085 914 1015 c 0,86,87
 956 985 956 985 1090 867 c 1,64,65
161 381 m 1,88,89
 145 404 145 404 117 404 c 0,90,91
 106 404 106 404 101 395 c 0,92,93
 97 388 97 388 103 382 c 0,94,95
 120 364 120 364 161 381 c 1,88,89
591 494 m 1,96,97
 592 502 592 502 587.5 521 c 128,-1,98
 583 540 583 540 575 536 c 0,99,100
 569 533 569 533 569 527 c 0,101,102
 569 505 569 505 591 494 c 1,96,97
822 436 m 1,103,104
 802 418 802 418 750 395 c 1,105,106
 737 392 737 392 720 392 c 0,107,108
 688 392 688 392 641 401 c 1,109,110
 625 330 625 330 569 259 c 0,111,112
 508 181 508 181 410 180 c 1,113,114
 315 178 315 178 213 285 c 0,115,116
 200 298 200 298 187 330 c 1,117,118
 149 319 149 319 122 319 c 0,119,120
 42 319 42 319 42 394 c 0,121,122
 42 459 42 459 116 462 c 0,123,124
 161 464 161 464 204 398 c 1,125,126
 349 465 349 465 349 589 c 0,127,128
 349 634 349 634 319 681 c 1,129,130
 282 736 282 736 213 736 c 0,131,132
 182 736 182 736 126 710 c 2,133,-1
 70 683 l 1,134,135
 58 683 58 683 48 698 c 0,136,137
 39 710 39 710 39 723 c 0,138,139
 39 730 39 730 43 731 c 1,140,141
 148 794 148 794 213 794 c 0,142,143
 311 794 311 794 362 724 c 0,144,145
 407 663 407 663 407 589 c 0,146,147
 407 440 407 440 236 349 c 1,148,149
 241 341 241 341 256 324 c 0,150,151
 338 236 338 236 410 237 c 0,152,153
 492 239 492 239 537 310 c 0,154,155
 577 372 577 372 586 429 c 1,156,157
 566 442 566 442 533 475 c 1,158,159
 517 501 517 501 517 531 c 0,160,161
 517 587 517 587 576 594 c 0,162,163
 644 601 644 601 656 502 c 0,164,165
 656 494 656 494 654 478.5 c 128,-1,166
 652 463 652 463 652 455 c 1,167,168
 692 446 692 446 738 453 c 0,169,170
 756 456 756 456 782 473 c 0,171,172
 817 497 817 497 822 500 c 1,173,-1
 822 436 l 1,103,104
EndSplineSet
EndChar

StartChar: uni0A95
Encoding: 2709 2709 70
Width: 696
GlyphClass: 2
Flags: W
AnchorPoint: "Anchor-7" 363 -11 basechar 0
AnchorPoint: "Anchor-6" 363 -11 basechar 0
AnchorPoint: "Anchor-2" 341 770 basechar 0
AnchorPoint: "Anchor-0" 341 770 basechar 0
LayerCount: 2
Fore
SplineSet
407 417 m 1,0,1
 476 365 476 365 502 327 c 0,2,3
 539 275 539 275 539 203 c 0,4,5
 539 111 539 111 463 48 c 0,6,7
 391 -12 391 -12 297 -12 c 0,8,9
 209 -12 209 -12 148 13 c 0,10,11
 118 25 118 25 9 90 c 0,12,13
 3 94 3 94 3 103 c 0,14,15
 3 116 3 116 14 132.5 c 128,-1,16
 25 149 25 149 38 142 c 0,17,18
 132 88 132 88 161 75 c 0,19,20
 226 46 226 46 297 46 c 256,21,22
 368 46 368 46 422 88 c 0,23,24
 481 134 481 134 481 203 c 0,25,26
 481 273 481 273 449 320 c 0,27,28
 425 355 425 355 359 404 c 1,29,30
 220 287 220 287 155 287 c 0,31,32
 127 287 127 287 127 324 c 0,33,34
 127 333 127 333 132 337 c 0,35,36
 164 372 164 372 313 437 c 1,37,38
 175 550 175 550 175 621 c 0,39,40
 175 687 175 687 232 755.5 c 128,-1,41
 289 824 289 824 353 824 c 1,42,-1
 353 824 l 1,43,44
 368 824 368 824 376 804 c 0,45,46
 381 794 381 794 381 786 c 256,47,48
 381 778 381 778 376 773 c 0,49,50
 356 757 356 757 282 698 c 0,51,52
 233 659 233 659 233 621 c 0,53,54
 233 560 233 560 348 458 c 1,55,-1
 543 544 l 2,56,57
 553 549 553 549 562.5 536 c 128,-1,58
 572 523 572 523 572 513 c 0,59,60
 572 504 572 504 566 501 c 0,61,62
 544 487 544 487 407 417 c 1,0,1
EndSplineSet
EndChar

StartChar: uni0A96
Encoding: 2710 2710 71
Width: 1112
GlyphClass: 2
Flags: W
AnchorPoint: "Anchor-7" 792 0 basechar 0
AnchorPoint: "Anchor-6" 792 0 basechar 0
AnchorPoint: "Anchor-2" 781 759 basechar 0
AnchorPoint: "Anchor-0" 781 759 basechar 0
LayerCount: 2
Fore
SplineSet
495 518 m 1,0,1
 495 522 495 522 498 529.5 c 128,-1,2
 501 537 501 537 501 540 c 0,3,4
 501 584 501 584 485 582 c 1,5,6
 463 582 463 582 463 565 c 0,7,8
 463 536 463 536 495 518 c 1,0,1
724 529 m 1,9,-1
 724 468 l 1,10,11
 650 440 650 440 623 440 c 0,12,13
 576 440 576 440 543 447 c 1,14,15
 523 354 523 354 466 293 c 0,16,17
 402 224 402 224 313 224 c 0,18,19
 235 224 235 224 182 263 c 0,20,21
 125 306 125 306 125 382 c 2,22,-1
 125 741 l 2,23,24
 125 788 125 788 68 785 c 0,25,26
 37 783 37 783 25 759 c 0,27,28
 22 753 22 753 16 753 c 0,29,30
 4 753 4 753 -8 767.5 c 128,-1,31
 -20 782 -20 782 -20 794 c 0,32,33
 -20 799 -20 799 -16 802 c 0,34,35
 14 824 14 824 22 828 c 0,36,37
 47 842 47 842 65 843 c 0,38,39
 182 850 182 850 182 741 c 2,40,-1
 182 382 l 2,41,42
 182 332 182 332 224 305 c 0,43,44
 260 282 260 282 313 282 c 0,45,46
 382 282 382 282 432 341 c 1,47,48
 473 392 473 392 488 466 c 1,49,50
 405 501 405 501 405 565 c 0,51,52
 405 594 405 594 429 616.5 c 128,-1,53
 453 639 453 639 482 640 c 0,54,55
 516 642 516 642 536 607 c 0,56,57
 553 577 553 577 553 542 c 0,58,59
 553 515 553 515 552 502 c 1,60,61
 571 492 571 492 620 492 c 0,62,63
 642 492 642 492 673 507 c 0,64,65
 715 526 715 526 724 529 c 1,9,-1
1002 88 m 0,66,67
 938 -20 938 -20 876 -20 c 0,68,69
 807 -20 807 -20 765 16.5 c 128,-1,70
 723 53 723 53 723 122 c 2,71,-1
 723 788 l 2,72,73
 723 805 723 805 752 805 c 0,74,75
 780 805 780 805 780 788 c 2,76,-1
 780 122 l 2,77,78
 780 38 780 38 876 38 c 0,79,80
 902 38 902 38 948 111 c 1,81,82
 954 117 954 117 964 117 c 1,83,-1
 964 117 l 1,84,85
 978 117 978 117 992 110 c 1,86,87
 1009 100 1009 100 1002 88 c 0,66,67
EndSplineSet
Substitution2: "Single Substitution lookup 43 subtable" glyph899
PairPos2: "'dist' Distance in Gujarati lookup 7 subtable" uni0AC0 dx=0 dy=0 dh=0 dv=0 dx=-22 dy=0 dh=0 dv=0
EndChar

StartChar: uni0A97
Encoding: 2711 2711 72
Width: 1008
GlyphClass: 2
Flags: W
AnchorPoint: "Anchor-7" 638 22 basechar 0
AnchorPoint: "Anchor-6" 638 22 basechar 0
AnchorPoint: "Anchor-2" 682 759 basechar 0
AnchorPoint: "Anchor-0" 682 759 basechar 0
LayerCount: 2
Fore
SplineSet
458 530 m 0,0,1
 458 422 458 422 412 348 c 0,2,3
 357 259 357 259 256 259 c 0,4,5
 163 259 163 259 97 337 c 0,6,7
 59 383 59 383 4 495 c 0,8,9
 -1 507 -1 507 14.5 516.5 c 128,-1,10
 30 526 30 526 42 526 c 0,11,12
 52 526 52 526 56 518 c 2,13,-1
 133 379 l 1,14,15
 180 317 180 317 256 317 c 0,16,17
 333 317 333 317 371 389 c 0,18,19
 400 445 400 445 400 530 c 0,20,21
 400 632 400 632 360 701 c 0,22,23
 310 785 310 785 216 785 c 0,24,25
 160 785 160 785 106 753 c 0,26,27
 103 752 103 752 97 752 c 0,28,29
 85 752 85 752 73 762.5 c 128,-1,30
 61 773 61 773 61 785 c 0,31,32
 61 790 61 790 65 794 c 0,33,34
 101 826 101 826 135 835 c 1,35,36
 159 843 159 843 216 843 c 0,37,38
 334 843 334 843 400 741 c 1,39,40
 458 654 458 654 458 530 c 0,0,1
896 88 m 0,41,42
 832 -20 832 -20 770 -20 c 0,43,44
 701 -20 701 -20 659 16.5 c 128,-1,45
 617 53 617 53 617 122 c 2,46,-1
 617 788 l 2,47,48
 617 805 617 805 646 805 c 256,49,50
 675 805 675 805 675 788 c 2,51,-1
 675 122 l 2,52,53
 675 38 675 38 770 38 c 0,54,55
 796 38 796 38 843 111 c 1,56,57
 849 117 849 117 859 117 c 1,58,-1
 859 117 l 1,59,60
 872 117 872 117 886 110 c 1,61,62
 903 100 903 100 896 88 c 0,41,42
EndSplineSet
Substitution2: "Single Substitution lookup 43 subtable" glyph900
PairPos2: "'dist' Distance in Gujarati lookup 7 subtable" uni0AC0 dx=0 dy=0 dh=0 dv=0 dx=-33 dy=0 dh=0 dv=0
EndChar

StartChar: uni0A98
Encoding: 2712 2712 73
Width: 904
GlyphClass: 2
Flags: W
AnchorPoint: "Anchor-7" 506 0 basechar 0
AnchorPoint: "Anchor-6" 506 0 basechar 0
AnchorPoint: "Anchor-2" 528 759 basechar 0
AnchorPoint: "Anchor-0" 528 759 basechar 0
LayerCount: 2
Fore
SplineSet
90 465 m 1,0,1
 60 494 60 494 36 540 c 0,2,3
 8 592 8 592 10 627 c 0,4,5
 13 676 13 676 42.5 713 c 128,-1,6
 72 750 72 750 120 750 c 2,7,-1
 291 750 l 2,8,9
 307 750 307 750 307 723 c 0,10,11
 307 695 307 695 291 692 c 0,12,13
 263 687 263 687 120 692 c 0,14,15
 72 694 72 694 68 624 c 0,16,17
 65 567 65 567 140 491 c 1,18,19
 217 520 217 520 266 515 c 1,20,21
 287 514 287 514 287 481 c 0,22,23
 287 458 287 458 272 458 c 0,24,25
 91 455 91 455 91 350 c 0,26,27
 91 292 91 292 139.5 247.5 c 128,-1,28
 188 203 188 203 248 203 c 0,29,30
 316 203 316 203 397 249 c 0,31,32
 466 289 466 289 478 294 c 0,33,34
 482 296 482 296 485 296 c 0,35,36
 496 296 496 296 506.5 282.5 c 128,-1,37
 517 269 517 269 517 258 c 0,38,39
 517 249 517 249 510 245 c 0,40,41
 426 193 426 193 390 177 c 0,42,43
 316 145 316 145 248 145 c 0,44,45
 161 145 161 145 97 205 c 128,-1,46
 33 265 33 265 33 350 c 0,47,48
 33 423 33 423 90 465 c 1,0,1
752 88 m 0,49,50
 687 -20 687 -20 626 -20 c 0,51,52
 556 -20 556 -20 514 16.5 c 128,-1,53
 472 53 472 53 472 122 c 2,54,-1
 472 788 l 2,55,56
 472 805 472 805 501 805 c 256,57,58
 530 805 530 805 530 788 c 2,59,-1
 530 122 l 2,60,61
 530 38 530 38 626 38 c 0,62,63
 652 38 652 38 698 111 c 1,64,65
 704 117 704 117 714 117 c 1,66,-1
 714 117 l 1,67,68
 727 117 727 117 741 110 c 0,69,70
 759 100 759 100 752 88 c 0,49,50
EndSplineSet
Substitution2: "Single Substitution lookup 43 subtable" glyph901
PairPos2: "'dist' Distance in Gujarati lookup 7 subtable" uni0AC0 dx=0 dy=0 dh=0 dv=0 dx=-77 dy=0 dh=0 dv=0
EndChar

StartChar: uni0A99
Encoding: 2713 2713 74
Width: 696
GlyphClass: 2
Flags: W
AnchorPoint: "Anchor-7" 451 11 basechar 0
AnchorPoint: "Anchor-6" 451 11 basechar 0
AnchorPoint: "Anchor-2" 484 737 basechar 0
AnchorPoint: "Anchor-0" 484 737 basechar 0
LayerCount: 2
Fore
SplineSet
582 182 m 0,0,1
 582 117 582 117 536.5 68 c 128,-1,2
 491 19 491 19 426 19 c 0,3,4
 182 19 182 19 1 414 c 0,5,6
 -4 426 -4 426 11 438 c 128,-1,7
 26 450 26 450 39 450 c 0,8,9
 47 450 47 450 51 443 c 0,10,11
 136 252 136 252 198 180 c 0,12,13
 287 75 287 75 426 75 c 0,14,15
 466 75 466 75 495 108 c 128,-1,16
 524 141 524 141 524 182 c 0,17,18
 524 275 524 275 463 353 c 0,19,20
 435 390 435 390 352 459 c 0,21,22
 291 509 291 509 291 542 c 0,23,24
 291 559 291 559 306 578 c 0,25,26
 397 699 397 699 449 765 c 0,27,28
 453 769 453 769 460 769 c 1,29,-1
 460 769 l 1,30,31
 475 769 475 769 490.5 755.5 c 128,-1,32
 506 742 506 742 495 730 c 0,33,34
 438 663 438 663 356 549 c 0,35,36
 349 539 349 539 349 529 c 0,37,38
 349 505 349 505 410 456 c 0,39,40
 490 392 490 392 521 352 c 0,41,42
 582 275 582 275 582 182 c 0,0,1
631 562 m 256,43,44
 631 534 631 534 610.5 512.5 c 128,-1,45
 590 491 590 491 562 491 c 256,46,47
 534 491 534 491 512.5 512.5 c 128,-1,48
 491 534 491 534 491 562 c 256,49,50
 491 590 491 590 512.5 610.5 c 128,-1,51
 534 631 534 631 562 631 c 256,52,53
 590 631 590 631 610.5 610.5 c 128,-1,54
 631 590 631 590 631 562 c 256,43,44
EndSplineSet
PairPos2: "'dist' Distance in Gujarati lookup 8 subtable" glyph818 dx=0 dy=0 dh=0 dv=0 dx=176 dy=0 dh=0 dv=0
EndChar

StartChar: uni0A9A
Encoding: 2714 2714 75
Width: 938
GlyphClass: 2
Flags: W
AnchorPoint: "Anchor-7" 605 0 basechar 0
AnchorPoint: "Anchor-6" 605 0 basechar 0
AnchorPoint: "Anchor-2" 616 770 basechar 0
AnchorPoint: "Anchor-0" 616 770 basechar 0
LayerCount: 2
Fore
SplineSet
114 408 m 1,0,1
 98 443 98 443 72 443 c 0,2,3
 55 443 55 443 55 429 c 0,4,5
 55 407 55 407 96 407 c 0,6,7
 109 407 109 407 114 408 c 1,0,1
169 426 m 1,8,9
 226 453 226 453 274 512 c 0,10,11
 327 578 327 578 327 634 c 0,12,13
 327 778 327 778 162 778 c 0,14,15
 120 778 120 778 90 762 c 0,16,17
 77 755 77 755 36 733 c 0,18,19
 23 725 23 725 10 740.5 c 128,-1,20
 -3 756 -3 756 -3 770 c 0,21,22
 -3 779 -3 779 4 782 c 2,23,-1
 78 821 l 2,24,25
 106 835 106 835 162 835 c 0,26,27
 385 835 385 835 385 634 c 0,28,29
 385 569 385 569 319 485 c 0,30,31
 259 410 259 410 194 375 c 1,32,33
 223 331 223 331 271 295 c 0,34,35
 325 255 325 255 371 255 c 0,36,37
 423 255 423 255 472 294 c 0,38,39
 495 313 495 313 547 359 c 0,40,41
 551 362 551 362 556 362 c 1,42,-1
 556 362 l 1,43,44
 570 362 570 362 584.5 345.5 c 128,-1,45
 599 329 599 329 588 319 c 0,46,47
 521 250 521 250 489 230 c 0,48,49
 437 197 437 197 371 197 c 0,50,51
 310 197 310 197 239 249 c 0,52,53
 174 296 174 296 140 355 c 1,54,55
 119 349 119 349 96 349 c 0,56,57
 60 349 60 349 30 371 c 0,58,59
 -3 394 -3 394 -3 429 c 0,60,61
 -3 459 -3 459 19.5 480 c 128,-1,62
 42 501 42 501 72 501 c 0,63,64
 130 501 130 501 169 426 c 1,8,9
837 88 m 0,65,66
 773 -20 773 -20 711 -20 c 0,67,68
 641 -20 641 -20 601 16 c 1,69,70
 557 53 557 53 557 122 c 2,71,-1
 557 788 l 2,72,73
 557 805 557 805 586 805 c 256,74,75
 615 805 615 805 615 788 c 2,76,-1
 615 122 l 2,77,78
 615 38 615 38 711 38 c 0,79,80
 737 38 737 38 783 111 c 1,81,82
 789 117 789 117 799 117 c 1,83,-1
 799 117 l 1,84,85
 813 117 813 117 827 110 c 1,86,87
 844 100 844 100 837 88 c 0,65,66
EndSplineSet
Substitution2: "Single Substitution lookup 43 subtable" glyph902
PairPos2: "'dist' Distance in Gujarati lookup 7 subtable" uni0AC0 dx=0 dy=0 dh=0 dv=0 dx=-44 dy=0 dh=0 dv=0
EndChar

StartChar: uni0A9B
Encoding: 2715 2715 76
Width: 904
GlyphClass: 2
Flags: W
AnchorPoint: "Anchor-7" 506 22 basechar 0
AnchorPoint: "Anchor-6" 506 22 basechar 0
AnchorPoint: "Anchor-2" 616 748 basechar 0
AnchorPoint: "Anchor-0" 616 748 basechar 0
LayerCount: 2
Fore
SplineSet
683 339 m 1,0,1
 725 469 725 469 725 513 c 0,2,3
 725 597 725 597 697 656 c 0,4,5
 660 733 660 733 584 733 c 0,6,7
 524 733 524 733 491 692.5 c 128,-1,8
 458 652 458 652 458 591 c 0,9,10
 458 487 458 487 520.5 415 c 128,-1,11
 583 343 583 343 683 339 c 1,0,1
109 417 m 1,12,13
 -3 515 -3 515 -3 601 c 0,14,15
 -3 676 -3 676 54 737 c 1,16,17
 104 792 104 792 181 817 c 0,18,19
 194 821 194 821 204 807.5 c 128,-1,20
 214 794 214 794 214 780 c 0,21,22
 214 769 214 769 207 765 c 0,23,24
 127 715 127 715 109 699 c 0,25,26
 55 653 55 653 55 601 c 0,27,28
 55 540 55 540 159 453 c 1,29,30
 211 502 211 502 282 497 c 0,31,32
 304 495 304 495 304 460 c 0,33,34
 304 441 304 441 291 439 c 0,35,36
 209 423 209 423 152 381 c 0,37,38
 81 329 81 329 80 255 c 0,39,40
 78 167 78 167 162 114 c 0,41,42
 216 81 216 81 329 70 c 1,43,44
 410 61 410 61 515.5 128.5 c 128,-1,45
 621 196 621 196 662 282 c 1,46,47
 543 293 543 293 470 382 c 0,48,49
 400 468 400 468 400 591 c 0,50,51
 400 678 400 678 447 733 c 1,52,53
 498 791 498 791 584 791 c 0,54,55
 684 791 684 791 739 697 c 0,56,57
 783 620 783 620 783 513 c 0,58,59
 783 313 783 313 647.5 158 c 128,-1,60
 512 3 512 3 334 3 c 0,61,62
 223 3 223 3 122.5 72 c 128,-1,63
 22 141 22 141 22 255 c 0,64,65
 22 348 22 348 109 417 c 1,12,13
EndSplineSet
PairPos2: "'dist' Distance in Gujarati lookup 8 subtable" glyph818 dx=0 dy=0 dh=0 dv=0 dx=110 dy=0 dh=0 dv=0
EndChar

StartChar: uni0A9C
Encoding: 2716 2716 77
Width: 938
GlyphClass: 2
Flags: W
AnchorPoint: "Anchor-7" 539 0 basechar 0
AnchorPoint: "Anchor-6" 539 0 basechar 0
AnchorPoint: "Anchor-2" 792 792 basechar 0
AnchorPoint: "Anchor-0" 792 792 basechar 0
LayerCount: 2
Fore
SplineSet
523 476 m 1,0,1
 356 279 356 279 352 181 c 0,2,3
 349 113 349 113 363 84 c 0,4,5
 388 34 388 34 473 38 c 1,6,7
 539 40 539 40 582.5 87.5 c 128,-1,8
 626 135 626 135 626 201 c 0,9,10
 626 306 626 306 523 476 c 1,0,1
268 747 m 1,11,12
 217 775 217 775 175 775 c 0,13,14
 122 775 122 775 89 729 c 1,15,16
 59 689 59 689 56 633 c 1,17,18
 54 576 54 576 81 531 c 0,19,20
 112 481 112 481 167 481 c 0,21,22
 282 481 282 481 277 652 c 0,23,24
 276 677 276 677 268 747 c 1,11,12
489 526 m 1,25,26
 413 637 413 637 332 704 c 1,27,28
 334 687 334 687 334 653 c 0,29,30
 336 557 336 557 300 497 c 0,31,32
 256 423 256 423 167 423 c 0,33,34
 86 423 86 423 38 491 c 1,35,36
 -4 553 -4 553 -1 636 c 0,37,38
 1 716 1 716 47 772 c 0,39,40
 97 833 97 833 175 833 c 0,41,42
 332 833 332 833 524 566 c 1,43,44
 589 639 589 639 663 711 c 0,45,46
 673 720 673 720 808 837 c 0,47,48
 811 840 811 840 815 840 c 1,49,-1
 815 840 l 1,50,51
 830 840 830 840 844 821.5 c 128,-1,52
 858 803 858 803 846 794 c 0,53,54
 703 683 703 683 557 517 c 1,55,56
 683 326 683 326 683 201 c 0,57,58
 683 108 683 108 626 45.5 c 128,-1,59
 569 -17 569 -17 476 -20 c 0,60,61
 350 -24 350 -24 313 45 c 0,62,63
 291 86 291 86 294 184 c 0,64,65
 298 296 298 296 489 526 c 1,25,26
EndSplineSet
PairPos2: "'dist' Distance in Gujarati lookup 8 subtable" glyph818 dx=0 dy=0 dh=0 dv=0 dx=143 dy=0 dh=0 dv=0
EndChar

StartChar: uni0A9D
Encoding: 2717 2717 78
Width: 1008
GlyphClass: 2
Flags: W
AnchorPoint: "Anchor-7" 616 0 basechar 0
AnchorPoint: "Anchor-6" 616 0 basechar 0
AnchorPoint: "Anchor-2" 638 759 basechar 0
AnchorPoint: "Anchor-0" 638 759 basechar 0
LayerCount: 2
Fore
SplineSet
631 546 m 1,0,1
 716 536 716 536 762 470 c 0,2,3
 804 409 804 409 802 321 c 0,4,5
 799 132 799 132 618 16 c 0,6,7
 615 14 615 14 611 14 c 0,8,9
 599 14 599 14 587.5 25.5 c 128,-1,10
 576 37 576 37 576 49 c 0,11,12
 576 56 576 56 581 59 c 0,13,14
 664 121 664 121 698 167 c 0,15,16
 743 227 743 227 744 321 c 1,17,18
 746 393 746 393 709 439 c 0,19,20
 670 489 670 489 599 489 c 0,21,22
 542 489 542 489 471 439 c 1,23,24
 473 415 473 415 475 384 c 0,25,26
 482 255 482 255 424 145 c 0,27,28
 357 17 357 17 233 17 c 0,29,30
 72 17 72 17 0 295 c 0,31,32
 -5 314 -5 314 26 314 c 0,33,34
 53 314 53 314 58 298 c 0,35,36
 89 189 89 189 116 145 c 0,37,38
 158 75 158 75 233 75 c 0,39,40
 335 75 335 75 384 184 c 0,41,42
 421 268 421 268 417 381 c 0,43,44
 413 490 413 490 365 571 c 0,45,46
 306 669 306 669 206 669 c 0,47,48
 169 669 169 669 83 613 c 0,49,50
 79 611 79 611 76 611 c 0,51,52
 65 611 65 611 56.5 624 c 128,-1,53
 48 637 48 637 48 649 c 0,54,55
 48 657 48 657 54 662 c 0,56,57
 102 699 102 699 117 707 c 0,58,59
 157 727 157 727 206 727 c 0,60,61
 301 727 301 727 370 658 c 0,62,63
 430 598 430 598 458 500 c 1,64,65
 529 539 529 539 582 546 c 1,66,-1
 582 788 l 2,67,68
 582 798 582 798 601 798 c 0,69,70
 631 798 631 798 631 782 c 2,71,-1
 631 546 l 1,0,1
EndSplineSet
PairPos2: "'dist' Distance in Gujarati lookup 8 subtable" glyph818 dx=0 dy=0 dh=0 dv=0 dx=22 dy=0 dh=0 dv=0
EndChar

StartChar: uni0A9E
Encoding: 2718 2718 79
Width: 1008
GlyphClass: 2
Flags: W
AnchorPoint: "Anchor-7" 660 0 basechar 0
AnchorPoint: "Anchor-6" 660 0 basechar 0
AnchorPoint: "Anchor-2" 671 770 basechar 0
AnchorPoint: "Anchor-0" 671 770 basechar 0
LayerCount: 2
Fore
SplineSet
624 479 m 1,0,1
 585 463 585 463 501 456 c 1,2,3
 473 458 473 458 443 472 c 1,4,5
 445 368 445 368 397 291 c 0,6,7
 341 201 341 201 242 201 c 0,8,9
 149 201 149 201 83 279 c 0,10,11
 44 325 44 325 -10 437 c 0,12,13
 -16 449 -16 449 1 459 c 0,14,15
 15 468 15 468 28 468 c 0,16,17
 38 468 38 468 42 460 c 2,18,-1
 119 321 l 1,19,20
 165 259 165 259 242 259 c 256,21,22
 319 259 319 259 356 331 c 0,23,24
 385 387 385 387 385 472 c 0,25,26
 385 574 385 574 345 643 c 0,27,28
 296 727 296 727 201 727 c 0,29,30
 145 727 145 727 91 695 c 0,31,32
 89 694 89 694 83 694 c 0,33,34
 71 694 71 694 58.5 704.5 c 128,-1,35
 46 715 46 715 46 727 c 0,36,37
 46 732 46 732 51 736 c 0,38,39
 87 768 87 768 120 778 c 0,40,41
 145 785 145 785 201 785 c 0,42,43
 306 785 306 785 371 703 c 1,44,45
 426 632 426 632 440 521 c 1,46,47
 477 505 477 505 523 508 c 0,48,49
 577 512 577 512 624 531 c 1,50,-1
 624 479 l 1,0,1
895 88 m 0,51,52
 831 -20 831 -20 769 -20 c 0,53,54
 699 -20 699 -20 657 16.5 c 128,-1,55
 615 53 615 53 615 122 c 2,56,-1
 615 788 l 2,57,58
 615 805 615 805 644 805 c 256,59,60
 673 805 673 805 673 788 c 2,61,-1
 673 122 l 2,62,63
 673 38 673 38 769 38 c 0,64,65
 795 38 795 38 841 111 c 1,66,67
 847 117 847 117 857 117 c 1,68,-1
 857 117 l 1,69,70
 871 117 871 117 885 110 c 1,71,72
 902 100 902 100 895 88 c 0,51,52
EndSplineSet
Substitution2: "Single Substitution lookup 43 subtable" glyph903
PairPos2: "'dist' Distance in Gujarati lookup 7 subtable" uni0AC0 dx=0 dy=0 dh=0 dv=0 dx=-44 dy=0 dh=0 dv=0
EndChar

StartChar: uni0A9F
Encoding: 2719 2719 80
Width: 696
GlyphClass: 2
Flags: W
AnchorPoint: "Anchor-7" 319 0 basechar 0
AnchorPoint: "Anchor-6" 319 0 basechar 0
AnchorPoint: "Anchor-2" 330 770 basechar 0
AnchorPoint: "Anchor-0" 330 770 basechar 0
LayerCount: 2
Fore
SplineSet
497 123 m 0,0,1
 466 98 466 98 404 68 c 0,2,3
 301 17 301 17 232 17 c 0,4,5
 140 17 140 17 72 77 c 1,6,7
 1 138 1 138 1 229 c 0,8,9
 1 308 1 308 61 376 c 0,10,11
 95 415 95 415 190 481 c 2,12,-1
 314 566 l 1,13,14
 375 620 375 620 375 675 c 0,15,16
 375 724 375 724 334 751 c 0,17,18
 298 775 298 775 246 775 c 0,19,20
 212 775 212 775 146.5 750 c 128,-1,21
 81 725 81 725 93 725 c 1,22,23
 81 725 81 725 72 740 c 0,24,25
 64 752 64 752 64 765 c 0,26,27
 64 772 64 772 70 776 c 0,28,29
 154 833 154 833 246 833 c 0,30,31
 322 833 322 833 375 793 c 0,32,33
 433 749 433 749 433 675 c 0,34,35
 433 605 433 605 366 540 c 0,36,37
 330 505 330 505 222 432 c 0,38,39
 138 375 138 375 111 348 c 1,40,41
 59 293 59 293 59 229 c 0,42,43
 59 162 59 162 113 117 c 0,44,45
 163 75 163 75 232 75 c 0,46,47
 292 75 292 75 382 122 c 1,48,49
 448 155 448 155 465 172 c 0,50,51
 468 175 468 175 472 175 c 1,52,-1
 472 175 l 1,53,54
 487 175 487 175 498 155 c 0,55,56
 510 134 510 134 497 123 c 0,0,1
EndSplineSet
EndChar

StartChar: uni0AA0
Encoding: 2720 2720 81
Width: 696
GlyphClass: 2
Flags: W
AnchorPoint: "Anchor-7" 319 0 basechar 0
AnchorPoint: "Anchor-6" 319 0 basechar 0
AnchorPoint: "Anchor-2" 330 770 basechar 0
AnchorPoint: "Anchor-0" 330 770 basechar 0
LayerCount: 2
Fore
SplineSet
330 462 m 1,0,1
 64 374 64 374 61 232 c 0,2,3
 59 156 59 156 118 106 c 1,4,5
 174 57 174 57 251 59 c 0,6,7
 352 62 352 62 424.5 131.5 c 128,-1,8
 497 201 497 201 495 301 c 0,9,10
 494 392 494 392 330 462 c 1,0,1
274 498 m 1,11,12
 154 585 154 585 151 668 c 0,13,14
 148 738 148 738 242 798 c 0,15,16
 322 848 322 848 365 846 c 0,17,18
 390 844 390 844 390 807 c 0,19,20
 390 793 390 793 379 791 c 0,21,22
 204 756 204 756 209 670 c 0,23,24
 212 604 212 604 356 514 c 0,25,26
 466 446 466 446 475 439 c 0,27,28
 552 376 552 376 553 301 c 0,29,30
 555 177 555 177 465 90.5 c 128,-1,31
 375 4 375 4 251 1 c 0,32,33
 149 -1 149 -1 75 65 c 128,-1,34
 1 131 1 131 3 232 c 0,35,36
 6 413 6 413 274 498 c 1,11,12
EndSplineSet
PairPos2: "'dist' Distance in Gujarati lookup 8 subtable" glyph818 dx=0 dy=0 dh=0 dv=0 dx=66 dy=0 dh=0 dv=0
EndChar

StartChar: uni0AA1
Encoding: 2721 2721 82
Width: 696
GlyphClass: 2
Flags: W
AnchorPoint: "Anchor-7" 440 0 basechar 0
AnchorPoint: "Anchor-6" 440 0 basechar 0
AnchorPoint: "Anchor-2" 396 748 basechar 0
AnchorPoint: "Anchor-0" 396 748 basechar 0
LayerCount: 2
Fore
SplineSet
521 352 m 0,0,1
 582 275 582 275 582 182 c 0,2,3
 582 117 582 117 536.5 68 c 128,-1,4
 491 19 491 19 426 19 c 0,5,6
 182 19 182 19 1 414 c 0,7,8
 -4 426 -4 426 11 438 c 128,-1,9
 26 450 26 450 39 450 c 0,10,11
 47 450 47 450 51 443 c 0,12,13
 120 288 120 288 213 180 c 1,14,15
 302 75 302 75 426 75 c 0,16,17
 466 75 466 75 495 108 c 128,-1,18
 524 141 524 141 524 182 c 0,19,20
 524 276 524 276 477 334 c 0,21,22
 461 354 461 354 361 437 c 0,23,24
 223 551 223 551 223 621 c 0,25,26
 223 672 223 672 280 741 c 0,27,28
 349 824 349 824 401 824 c 1,29,-1
 401 824 l 1,30,31
 416 824 416 824 424 804 c 0,32,33
 429 794 429 794 429 786 c 256,34,35
 429 778 429 778 424 773 c 0,36,37
 404 757 404 757 330 698 c 0,38,39
 290 666 290 666 290 621 c 0,40,41
 290 572 290 572 423 458 c 1,42,43
 469 417 469 417 521 352 c 0,0,1
EndSplineSet
PairPos2: "'dist' Distance in Gujarati lookup 8 subtable" glyph818 dx=0 dy=0 dh=0 dv=0 dx=121 dy=0 dh=0 dv=0
EndChar

StartChar: uni0AA2
Encoding: 2722 2722 83
Width: 696
GlyphClass: 2
Flags: W
AnchorPoint: "Anchor-7" 363 0 basechar 0
AnchorPoint: "Anchor-6" 363 0 basechar 0
AnchorPoint: "Anchor-2" 396 770 basechar 0
AnchorPoint: "Anchor-0" 396 770 basechar 0
LayerCount: 2
Fore
SplineSet
398 106 m 1,0,1
 489 155 489 155 489 243 c 0,2,3
 489 285 489 285 464 317.5 c 128,-1,4
 439 350 439 350 398 350 c 0,5,6
 353 350 353 350 323 319.5 c 128,-1,7
 293 289 293 289 288 243 c 0,8,9
 284 202 284 202 324 169 c 0,10,11
 393 114 393 114 398 106 c 1,0,1
340 85 m 1,12,13
 303 123 303 123 264 159 c 1,14,15
 225 202 225 202 230 249 c 0,16,17
 237 317 237 317 283.5 362.5 c 128,-1,18
 330 408 330 408 398 408 c 0,19,20
 463 408 463 408 505 358.5 c 128,-1,21
 547 309 547 309 547 243 c 0,22,23
 547 138 547 138 458 75 c 0,24,25
 376 17 376 17 268 20 c 0,26,27
 152 23 152 23 73 101 c 128,-1,28
 -6 179 -6 179 0 294 c 0,29,30
 5 394 5 394 104 471 c 0,31,32
 129 490 129 490 287 581 c 0,33,34
 385 637 385 637 388 686 c 0,35,36
 395 785 395 785 287 785 c 0,37,38
 245 785 245 785 204 762 c 0,39,40
 199 759 199 759 193 759 c 0,41,42
 181 759 181 759 166 767.5 c 128,-1,43
 151 776 151 776 151 786 c 0,44,45
 151 791 151 791 155 794 c 2,46,-1
 213 830 l 1,47,48
 242 843 242 843 287 843 c 0,49,50
 449 843 449 843 446 686 c 0,51,52
 445 608 445 608 346 553 c 0,53,54
 297 526 297 526 164 456 c 1,55,56
 62 388 62 388 58 291 c 0,57,58
 54 202 54 202 119 141 c 1,59,60
 180 82 180 82 271 78 c 0,61,62
 306 77 306 77 340 85 c 1,12,13
EndSplineSet
PairPos2: "'dist' Distance in Gujarati lookup 8 subtable" glyph818 dx=0 dy=0 dh=0 dv=0 dx=77 dy=0 dh=0 dv=0
EndChar

StartChar: uni0AA3
Encoding: 2723 2723 84
Width: 1008
GlyphClass: 2
Flags: W
AnchorPoint: "Anchor-7" 660 0 basechar 0
AnchorPoint: "Anchor-6" 660 0 basechar 0
AnchorPoint: "Anchor-2" 693 770 basechar 0
AnchorPoint: "Anchor-0" 693 770 basechar 0
LayerCount: 2
Fore
SplineSet
492 528 m 0,0,1
 489 444 489 444 448 386 c 0,2,3
 401 320 401 320 320 317 c 0,4,5
 206 313 206 313 133 454 c 0,6,7
 128 465 128 465 145 475 c 0,8,9
 159 484 159 484 171 484 c 0,10,11
 181 484 181 484 185 478 c 0,12,13
 235 399 235 399 240 393 c 0,14,15
 268 366 268 366 317 369 c 0,16,17
 426 374 426 374 434 531 c 0,18,19
 438 591 438 591 400 650 c 0,20,21
 357 716 357 716 292 716 c 0,22,23
 274 716 274 716 238.5 699 c 128,-1,24
 203 682 203 682 196 682 c 0,25,26
 184 682 184 682 174 692 c 128,-1,27
 164 702 164 702 164 714 c 0,28,29
 164 720 164 720 168 724 c 0,30,31
 213 768 213 768 292 768 c 0,32,33
 380 768 380 768 439 690 c 0,34,35
 495 617 495 617 492 528 c 0,0,1
462 58 m 0,36,37
 462 7 462 7 415 -24.5 c 128,-1,38
 368 -56 368 -56 317 -48 c 0,39,40
 201 -30 201 -30 120 30 c 0,41,42
 114 35 114 35 114 42 c 1,43,-1
 114 42 l 1,44,45
 114 57 114 57 127.5 71 c 128,-1,46
 141 85 141 85 155 77 c 0,47,48
 245 20 245 20 326 10 c 0,49,50
 353 7 353 7 378.5 19.5 c 128,-1,51
 404 32 404 32 404 58 c 0,52,53
 404 137 404 137 258 203 c 0,54,55
 234 213 234 213 0 311 c 1,56,-1
 0 786 l 2,57,58
 0 804 0 804 29 804 c 256,59,60
 58 804 58 804 58 786 c 2,61,-1
 58 349 l 1,62,63
 252 264 252 264 317 224 c 1,64,65
 462 138 462 138 462 58 c 0,36,37
915 88 m 0,66,67
 851 -20 851 -20 789 -20 c 0,68,69
 720 -20 720 -20 678 16.5 c 128,-1,70
 636 53 636 53 636 122 c 2,71,-1
 636 788 l 2,72,73
 636 805 636 805 665 805 c 256,74,75
 694 805 694 805 694 788 c 2,76,-1
 694 122 l 2,77,78
 694 38 694 38 789 38 c 0,79,80
 815 38 815 38 862 111 c 0,81,82
 867 117 867 117 877 117 c 1,83,-1
 877 117 l 1,84,85
 891 117 891 117 905 110 c 1,86,87
 922 100 922 100 915 88 c 0,66,67
EndSplineSet
Substitution2: "Single Substitution lookup 43 subtable" glyph904
PairPos2: "'dist' Distance in Gujarati lookup 7 subtable" uni0AC0 dx=0 dy=0 dh=0 dv=0 dx=-22 dy=0 dh=0 dv=0
EndChar

StartChar: uni0AA4
Encoding: 2724 2724 85
Width: 904
GlyphClass: 2
Flags: W
AnchorPoint: "Anchor-7" 517 0 basechar 0
AnchorPoint: "Anchor-6" 517 0 basechar 0
AnchorPoint: "Anchor-2" 528 759 basechar 0
AnchorPoint: "Anchor-0" 528 759 basechar 0
LayerCount: 2
Fore
SplineSet
475 550 m 0,0,1
 462 553 462 553 168 550 c 0,2,3
 117 550 117 550 87.5 516.5 c 128,-1,4
 58 483 58 483 58 432 c 0,5,6
 58 306 58 306 161 161 c 0,7,8
 213 87 213 87 282 22 c 0,9,10
 287 18 287 18 287 12 c 1,11,-1
 287 12 l 1,12,13
 287 -3 287 -3 270 -18.5 c 128,-1,14
 253 -34 253 -34 242 -22 c 0,15,16
 227 -6 227 -6 171 56 c 0,17,18
 99 136 99 136 53 231 c 0,19,20
 0 339 0 339 0 432 c 0,21,22
 0 507 0 507 46.5 557.5 c 128,-1,23
 93 608 93 608 168 608 c 2,24,-1
 475 608 l 2,25,26
 492 608 492 608 492 576 c 0,27,28
 492 547 492 547 475 550 c 0,0,1
750 88 m 0,29,30
 686 -20 686 -20 624 -20 c 0,31,32
 555 -20 555 -20 513 16.5 c 128,-1,33
 471 53 471 53 471 122 c 2,34,-1
 471 788 l 2,35,36
 471 805 471 805 500 805 c 256,37,38
 529 805 529 805 529 788 c 2,39,-1
 529 122 l 2,40,41
 529 38 529 38 624 38 c 0,42,43
 650 38 650 38 696 111 c 1,44,45
 702 117 702 117 712 117 c 1,46,-1
 712 117 l 1,47,48
 726 117 726 117 740 110 c 1,49,50
 757 100 757 100 750 88 c 0,29,30
EndSplineSet
Substitution2: "Single Substitution lookup 43 subtable" glyph905
PairPos2: "'dist' Distance in Gujarati lookup 7 subtable" uni0AC0 dx=0 dy=0 dh=0 dv=0 dx=-66 dy=0 dh=0 dv=0
EndChar

StartChar: uni0AA5
Encoding: 2725 2725 86
Width: 904
GlyphClass: 2
Flags: W
AnchorPoint: "Anchor-7" 506 0 basechar 0
AnchorPoint: "Anchor-6" 506 0 basechar 0
AnchorPoint: "Anchor-2" 528 759 basechar 0
AnchorPoint: "Anchor-0" 528 759 basechar 0
LayerCount: 2
Fore
SplineSet
217 562 m 1,0,1
 262 610 262 610 262 678 c 0,2,3
 262 726 262 726 235 761 c 0,4,5
 204 800 204 800 158 794 c 0,6,7
 83 784 83 784 78 699 c 0,8,9
 75 649 75 649 127 611 c 0,10,11
 144 599 144 599 217 562 c 1,0,1
171 524 m 1,12,13
 18 612 18 612 20 702 c 0,14,15
 22 766 22 766 63.5 809.5 c 128,-1,16
 105 853 105 853 168 853 c 256,17,18
 231 853 231 853 277 796 c 0,19,20
 320 743 320 743 320 678 c 0,21,22
 320 531 320 531 114 404 c 1,23,24
 169 274 169 274 278 274 c 0,25,26
 334 274 334 274 380 297 c 0,27,28
 403 308 403 308 468 355 c 0,29,30
 471 358 471 358 475 358 c 1,31,-1
 475 358 l 1,32,33
 489 358 489 358 502.5 339 c 128,-1,34
 516 320 516 320 505 311 c 0,35,36
 389 216 389 216 278 216 c 0,37,38
 191 216 191 216 127 282 c 0,39,40
 70 341 70 341 48 433 c 1,41,42
 98 454 98 454 171 524 c 1,12,13
750 88 m 0,43,44
 686 -20 686 -20 624 -20 c 0,45,46
 555 -20 555 -20 513 16.5 c 128,-1,47
 471 53 471 53 471 122 c 2,48,-1
 471 788 l 2,49,50
 471 805 471 805 500 805 c 256,51,52
 529 805 529 805 529 788 c 2,53,-1
 529 122 l 2,54,55
 529 38 529 38 624 38 c 0,56,57
 650 38 650 38 696 111 c 1,58,59
 702 117 702 117 712 117 c 1,60,-1
 712 117 l 1,61,62
 726 117 726 117 740 110 c 1,63,64
 757 100 757 100 750 88 c 0,43,44
EndSplineSet
Substitution2: "Single Substitution lookup 43 subtable" glyph906
PairPos2: "'dist' Distance in Gujarati lookup 7 subtable" uni0AC0 dx=0 dy=0 dh=0 dv=0 dx=-77 dy=11 dh=0 dv=0
EndChar

StartChar: uni0AA6
Encoding: 2726 2726 87
Width: 696
GlyphClass: 2
Flags: W
AnchorPoint: "Anchor-7" 330 0 basechar 0
AnchorPoint: "Anchor-6" 330 0 basechar 0
AnchorPoint: "Anchor-2" 297 748 basechar 0
AnchorPoint: "Anchor-0" 297 748 basechar 0
LayerCount: 2
Fore
SplineSet
86 448 m 1,0,1
 54 484 54 484 29 538 c 0,2,3
 0 599 0 599 2 639 c 0,4,5
 5 702 5 702 36 741 c 0,6,7
 89 805 89 805 175 805 c 0,8,9
 221 805 221 805 297 783 c 0,10,11
 314 778 314 778 314 750 c 0,12,13
 314 718 314 718 289 718 c 0,14,15
 282 718 282 718 274 721 c 0,16,17
 233 736 233 736 184 736 c 0,18,19
 68 736 68 736 63 636 c 0,20,21
 60 568 60 568 139 479 c 1,22,23
 219 513 219 513 271 508 c 0,24,25
 293 506 293 506 293 467 c 0,26,27
 293 440 293 440 277 440 c 0,28,29
 87 437 87 437 87 314 c 0,30,31
 87 240 87 240 132 184 c 0,32,33
 180 123 180 123 252 123 c 0,34,35
 312 123 312 123 358.5 150 c 128,-1,36
 405 177 405 177 451 205 c 1,37,38
 465 212 465 212 480 194 c 1,39,40
 492 177 492 177 492 162 c 0,41,42
 492 152 492 152 485 147 c 0,43,44
 413 97 413 97 373 80 c 0,45,46
 319 57 319 57 252 55 c 0,47,48
 158 53 158 53 92.5 129 c 128,-1,49
 27 205 27 205 27 314 c 0,50,51
 27 399 27 399 86 448 c 1,0,1
EndSplineSet
EndChar

StartChar: uni0AA7
Encoding: 2727 2727 88
Width: 904
GlyphClass: 2
Flags: W
AnchorPoint: "Anchor-7" 517 0 basechar 0
AnchorPoint: "Anchor-6" 517 0 basechar 0
AnchorPoint: "Anchor-2" 550 748 basechar 0
AnchorPoint: "Anchor-0" 550 748 basechar 0
LayerCount: 2
Fore
SplineSet
100 513 m 1,0,1
 28 598 28 598 28 679 c 0,2,3
 28 813 28 813 171 919 c 0,4,5
 222 957 222 957 232 957 c 1,6,-1
 232 957 l 1,7,8
 245 957 245 957 255 937 c 0,9,10
 265 915 265 915 255 906 c 1,11,12
 85 794 85 794 85 679 c 0,13,14
 85 609 85 609 151 540 c 1,15,16
 174 549 174 549 307 571 c 0,17,18
 327 574 327 574 327 539 c 0,19,20
 327 515 327 515 313 513 c 0,21,22
 279 508 279 508 178 492 c 1,23,24
 103 471 103 471 103 405 c 256,25,26
 103 339 103 339 146.5 289 c 128,-1,27
 190 239 190 239 256 239 c 0,28,29
 317 239 317 239 429 288 c 0,30,31
 524 330 524 330 524 336 c 0,32,33
 524 337 524 337 521 337 c 1,34,-1
 521 337 l 1,35,36
 536 337 536 337 534 304 c 0,37,38
 533 271 533 271 515 262 c 0,39,40
 356 181 356 181 256 181 c 0,41,42
 164 181 164 181 104.5 246.5 c 128,-1,43
 45 312 45 312 45 405 c 0,44,45
 45 475 45 475 100 513 c 1,0,1
776 88 m 0,46,47
 712 -20 712 -20 650 -20 c 0,48,49
 581 -20 581 -20 539 16.5 c 128,-1,50
 497 53 497 53 497 122 c 2,51,-1
 497 788 l 2,52,53
 497 805 497 805 526 805 c 256,54,55
 555 805 555 805 555 788 c 2,56,-1
 555 122 l 2,57,58
 555 38 555 38 650 38 c 0,59,60
 676 38 676 38 723 111 c 0,61,62
 728 117 728 117 738 117 c 1,63,-1
 738 117 l 1,64,65
 752 117 752 117 766 110 c 1,66,67
 783 100 783 100 776 88 c 0,46,47
EndSplineSet
Substitution2: "Single Substitution lookup 43 subtable" glyph907
PairPos2: "'dist' Distance in Gujarati lookup 7 subtable" uni0AC0 dx=0 dy=0 dh=0 dv=0 dx=-55 dy=0 dh=0 dv=0
EndChar

StartChar: uni0AA8
Encoding: 2728 2728 89
Width: 904
GlyphClass: 2
Flags: W
AnchorPoint: "Anchor-7" 451 0 basechar 0
AnchorPoint: "Anchor-6" 451 0 basechar 0
AnchorPoint: "Anchor-2" 473 759 basechar 0
AnchorPoint: "Anchor-0" 473 759 basechar 0
LayerCount: 2
Fore
SplineSet
696 110 m 0,0,1
 632 1 632 1 571 1 c 0,2,3
 501 1 501 1 459 38 c 128,-1,4
 417 75 417 75 417 143 c 2,5,-1
 417 788 l 2,6,7
 417 805 417 805 446 805 c 256,8,9
 475 805 475 805 475 788 c 2,10,-1
 475 143 l 2,11,12
 475 59 475 59 571 59 c 0,13,14
 597 59 597 59 643 133 c 1,15,16
 649 139 649 139 659 139 c 1,17,-1
 659 139 l 1,18,19
 672 139 672 139 686 131 c 0,20,21
 704 122 704 122 696 110 c 0,0,1
127 492 m 1,22,-1
 87 492 l 2,23,24
 64 492 64 492 64 465 c 0,25,26
 64 420 64 420 96 420 c 0,27,28
 127 420 127 420 127 453 c 2,29,-1
 127 492 l 1,22,-1
175 492 m 1,30,-1
 175 453 l 2,31,32
 175 372 175 372 98 372 c 0,33,34
 16 372 16 372 16 468 c 0,35,36
 16 550 16 550 87 550 c 2,37,-1
 437 550 l 1,38,-1
 437 492 l 1,39,-1
 175 492 l 1,30,-1
EndSplineSet
Substitution2: "Single Substitution lookup 43 subtable" glyph908
PairPos2: "'dist' Distance in Gujarati lookup 7 subtable" uni0AC0 dx=0 dy=0 dh=0 dv=0 dx=-143 dy=0 dh=0 dv=0
EndChar

StartChar: uni0AAA
Encoding: 2730 2730 90
Width: 904
GlyphClass: 2
Flags: W
AnchorPoint: "Anchor-7" 517 0 basechar 0
AnchorPoint: "Anchor-6" 517 0 basechar 0
AnchorPoint: "Anchor-2" 550 759 basechar 0
AnchorPoint: "Anchor-0" 550 759 basechar 0
LayerCount: 2
Fore
SplineSet
513 333 m 0,0,1
 437 266 437 266 353 266 c 0,2,3
 267 266 267 266 204 308 c 0,4,5
 132 356 132 356 132 437 c 2,6,-1
 132 744 l 2,7,8
 132 779 132 779 75 779 c 0,9,10
 68 779 68 779 49.5 769.5 c 128,-1,11
 31 760 31 760 23 760 c 0,12,13
 11 760 11 760 -1 770 c 128,-1,14
 -13 780 -13 780 -13 792 c 0,15,16
 -13 798 -13 798 -9 802 c 0,17,18
 27 837 27 837 75 837 c 0,19,20
 121 837 121 837 153 814 c 0,21,22
 190 788 190 788 190 744 c 2,23,-1
 190 437 l 2,24,25
 190 379 190 379 246 349 c 0,26,27
 291 324 291 324 355 324 c 0,28,29
 427 324 427 324 478 379 c 0,30,31
 481 382 481 382 485 382 c 1,32,-1
 485 382 l 1,33,34
 498 382 498 382 510.5 362 c 128,-1,35
 523 342 523 342 513 333 c 0,0,1
765 88 m 0,36,37
 700 -20 700 -20 639 -20 c 0,38,39
 569 -20 569 -20 527 16.5 c 128,-1,40
 485 53 485 53 485 122 c 2,41,-1
 485 788 l 2,42,43
 485 805 485 805 514 805 c 256,44,45
 543 805 543 805 543 788 c 2,46,-1
 543 122 l 2,47,48
 543 38 543 38 639 38 c 0,49,50
 665 38 665 38 711 111 c 1,51,52
 717 117 717 117 727 117 c 1,53,-1
 727 117 l 1,54,55
 740 117 740 117 754 110 c 0,56,57
 772 100 772 100 765 88 c 0,36,37
EndSplineSet
Substitution2: "Single Substitution lookup 43 subtable" glyph909
PairPos2: "'dist' Distance in Gujarati lookup 7 subtable" uni0AC0 dx=0 dy=0 dh=0 dv=0 dx=-66 dy=0 dh=0 dv=0
EndChar

StartChar: uni0AAB
Encoding: 2731 2731 91
Width: 696
GlyphClass: 2
Flags: W
AnchorPoint: "Anchor-7" 396 0 basechar 0
AnchorPoint: "Anchor-6" 396 0 basechar 0
AnchorPoint: "Anchor-2" 341 781 basechar 0
AnchorPoint: "Anchor-0" 341 781 basechar 0
LayerCount: 2
Fore
SplineSet
129 175 m 1,0,1
 85 224 85 224 67 224 c 0,2,3
 59 224 59 224 59 211 c 0,4,5
 59 178 59 178 129 175 c 1,0,1
290 498 m 1,6,7
 265 485 265 485 28 433 c 0,8,9
 14 430 14 430 5 444 c 128,-1,10
 -4 458 -4 458 -4 472 c 0,11,12
 -4 483 -4 483 4 485 c 0,13,14
 67 497 67 497 223 536 c 1,15,16
 68 621 68 621 68 699 c 0,17,18
 68 769 68 769 162 810 c 0,19,20
 237 843 237 843 317 843 c 0,21,22
 340 843 340 843 344.5 838 c 128,-1,23
 349 833 349 833 349 815 c 0,24,25
 349 790 349 790 291 783 c 0,26,27
 126 764 126 764 126 699 c 0,28,29
 126 649 126 649 187 607 c 1,30,31
 187 607 187 607 292 552 c 1,32,33
 319 553 319 553 407 573 c 0,34,35
 521 600 521 600 559 605 c 0,36,37
 571 607 571 607 580 593 c 128,-1,38
 589 579 589 579 589 566 c 256,39,40
 589 553 589 553 579 553 c 0,41,42
 536 553 536 553 356 510 c 1,43,44
 495 384 495 384 495 303 c 0,45,46
 495 139 495 139 251 122 c 1,47,48
 293 81 293 81 336 41 c 1,49,50
 403 -24 403 -24 403 -42 c 1,51,-1
 403 -42 l 1,52,53
 403 -62 403 -62 392 -68 c 0,54,55
 371 -80 371 -80 362 -68 c 0,56,57
 340 -38 340 -38 279 24 c 0,58,59
 212 91 212 91 185 125 c 1,60,61
 1 145 1 145 1 211 c 0,62,63
 1 285 1 285 67 285 c 256,64,65
 133 285 133 285 204 177 c 1,66,67
 281 175 281 175 348 200 c 0,68,69
 437 233 437 233 437 303 c 0,70,71
 437 392 437 392 290 498 c 1,6,7
EndSplineSet
PairPos2: "'dist' Distance in Gujarati lookup 8 subtable" glyph818 dx=0 dy=0 dh=0 dv=0 dx=44 dy=0 dh=0 dv=0
EndChar

StartChar: uni0AAC
Encoding: 2732 2732 92
Width: 1008
GlyphClass: 2
Flags: W
AnchorPoint: "Anchor-7" 649 0 basechar 0
AnchorPoint: "Anchor-6" 649 0 basechar 0
AnchorPoint: "Anchor-2" 660 759 basechar 0
AnchorPoint: "Anchor-0" 660 759 basechar 0
LayerCount: 2
Fore
SplineSet
391 411 m 1,0,1
 391 414 391 414 392.5 419 c 128,-1,2
 394 424 394 424 394 426 c 0,3,4
 394 475 394 475 379 475 c 0,5,6
 365 475 365 475 365 446 c 0,7,8
 365 427 365 427 391 411 c 1,0,1
382 353 m 1,9,10
 307 394 307 394 307 446 c 0,11,12
 307 481 307 481 326.5 507 c 128,-1,13
 346 533 346 533 379 533 c 0,14,15
 413 533 413 533 433 494 c 0,16,17
 449 463 449 463 449 426 c 0,18,19
 449 404 449 404 447 392 c 1,20,21
 482 385 482 385 523 391 c 0,22,23
 577 398 577 398 613 418 c 0,24,25
 626 426 626 426 635 411.5 c 128,-1,26
 644 397 644 397 644 382 c 0,27,28
 644 372 644 372 639 366 c 1,29,30
 613 343 613 343 531 333 c 0,31,32
 484 327 484 327 436 334 c 1,33,34
 414 257 414 257 365 208 c 0,35,36
 309 153 309 153 233 153 c 0,37,38
 128 153 128 153 61 251 c 1,39,40
 1 336 1 336 1 446 c 0,41,42
 1 621 1 621 224 746 c 0,43,44
 227 747 227 747 232 747 c 1,45,-1
 232 747 l 1,46,47
 247 747 247 747 258 727 c 0,48,49
 270 705 270 705 256 696 c 0,50,51
 161 634 161 634 124 595 c 0,52,53
 59 527 59 527 59 446 c 0,54,55
 59 358 59 358 101 291 c 0,56,57
 151 211 151 211 233 211 c 0,58,59
 345 211 345 211 382 353 c 1,9,10
895 88 m 0,60,61
 831 -20 831 -20 769 -20 c 0,62,63
 699 -20 699 -20 657 16.5 c 128,-1,64
 615 53 615 53 615 122 c 2,65,-1
 615 788 l 2,66,67
 615 805 615 805 644 805 c 256,68,69
 673 805 673 805 673 788 c 2,70,-1
 673 122 l 2,71,72
 673 38 673 38 769 38 c 0,73,74
 795 38 795 38 841 111 c 1,75,76
 847 117 847 117 857 117 c 1,77,-1
 857 117 l 1,78,79
 871 117 871 117 885 110 c 1,80,81
 902 100 902 100 895 88 c 0,60,61
EndSplineSet
Substitution2: "Single Substitution lookup 43 subtable" glyph910
PairPos2: "'dist' Distance in Gujarati lookup 7 subtable" uni0AC0 dx=0 dy=0 dh=0 dv=0 dx=-33 dy=0 dh=0 dv=0
EndChar

StartChar: uni0AAD
Encoding: 2733 2733 93
Width: 1112
GlyphClass: 2
Flags: W
AnchorPoint: "Anchor-7" 781 0 basechar 0
AnchorPoint: "Anchor-6" 781 0 basechar 0
AnchorPoint: "Anchor-2" 814 759 basechar 0
AnchorPoint: "Anchor-0" 814 759 basechar 0
LayerCount: 2
Fore
SplineSet
437 424 m 1,0,-1
 408 424 l 2,1,2
 391 424 391 424 391 420 c 256,3,4
 391 416 391 416 405 406 c 128,-1,5
 419 396 419 396 420 394 c 0,6,7
 432 377 432 377 434 375 c 1,8,9
 437 376 437 376 437 382 c 2,10,-1
 437 424 l 1,0,-1
437 482 m 1,11,-1
 437 675 l 2,12,13
 437 726 437 726 390 755 c 1,14,15
 349 779 349 779 295 779 c 0,16,17
 199 779 199 779 127 707 c 128,-1,18
 55 635 55 635 55 539 c 0,19,20
 55 429 55 429 123 333 c 0,21,22
 158 283 158 283 274 169 c 0,23,24
 278 165 278 165 278 156 c 1,25,-1
 278 156 l 1,26,27
 278 143 278 143 266 126.5 c 128,-1,28
 254 110 254 110 242 120 c 0,29,30
 -3 322 -3 322 -3 539 c 0,31,32
 -3 657 -3 657 87 747 c 128,-1,33
 177 837 177 837 295 837 c 0,34,35
 372 837 372 837 430 795 c 0,36,37
 495 749 495 749 495 675 c 2,38,-1
 495 482 l 1,39,-1
 750 482 l 2,40,41
 767 482 767 482 767 453 c 256,42,43
 767 424 767 424 750 424 c 2,44,-1
 495 424 l 1,45,-1
 495 382 l 2,46,47
 495 308 495 308 455 308 c 0,48,49
 411 308 411 308 339 400 c 0,50,51
 317 427 317 427 317 446 c 0,52,53
 317 482 317 482 408 482 c 2,54,-1
 437 482 l 1,11,-1
1028 88 m 0,55,56
 964 -20 964 -20 902 -20 c 0,57,58
 833 -20 833 -20 791 16.5 c 128,-1,59
 749 53 749 53 749 122 c 2,60,-1
 749 788 l 2,61,62
 749 805 749 805 778 805 c 256,63,64
 807 805 807 805 807 788 c 2,65,-1
 807 122 l 2,66,67
 807 38 807 38 902 38 c 0,68,69
 928 38 928 38 975 111 c 0,70,71
 980 117 980 117 990 117 c 1,72,-1
 990 117 l 1,73,74
 1004 117 1004 117 1018 110 c 1,75,76
 1035 100 1035 100 1028 88 c 0,55,56
EndSplineSet
Substitution2: "Single Substitution lookup 43 subtable" glyph911
EndChar

StartChar: uni0AAE
Encoding: 2734 2734 94
Width: 904
GlyphClass: 2
Flags: W
AnchorPoint: "Anchor-7" 539 0 basechar 0
AnchorPoint: "Anchor-6" 539 0 basechar 0
AnchorPoint: "Anchor-2" 572 770 basechar 0
AnchorPoint: "Anchor-0" 572 770 basechar 0
LayerCount: 2
Fore
SplineSet
507 408 m 2,0,-1
 142 408 l 2,1,2
 127 408 127 408 127 404 c 1,3,4
 132 400 132 400 148 382 c 1,5,6
 158 366 158 366 169 349 c 1,7,8
 172 350 172 350 172 359 c 2,9,-1
 174 710 l 2,10,11
 174 745 174 745 171 759 c 0,12,13
 165 785 165 785 139 785 c 0,14,15
 90 785 90 785 39 727 c 0,16,17
 36 725 36 725 32 725 c 0,18,19
 20 725 20 725 8 738 c 128,-1,20
 -4 751 -4 751 -4 763 c 0,21,22
 -4 770 -4 770 1 773 c 1,23,24
 74 843 74 843 139 843 c 0,25,26
 187 843 187 843 201 830 c 0,27,28
 230 804 230 804 230 710 c 2,29,-1
 230 359 l 2,30,31
 230 282 230 282 193 282 c 0,32,33
 157 282 157 282 104 345 c 0,34,35
 62 394 62 394 62 421 c 0,36,37
 62 459 62 459 142 459 c 2,38,-1
 507 460 l 2,39,40
 524 461 524 461 524 434 c 0,41,42
 524 408 524 408 507 408 c 2,0,-1
779 88 m 0,43,44
 715 -20 715 -20 653 -20 c 0,45,46
 584 -20 584 -20 542 16.5 c 128,-1,47
 500 53 500 53 500 122 c 2,48,-1
 500 788 l 2,49,50
 500 805 500 805 529 805 c 0,51,52
 557 805 557 805 557 788 c 2,53,-1
 557 122 l 2,54,55
 557 38 557 38 653 38 c 0,56,57
 679 38 679 38 725 111 c 1,58,59
 731 117 731 117 741 117 c 1,60,-1
 741 117 l 1,61,62
 755 117 755 117 769 110 c 1,63,64
 786 100 786 100 779 88 c 0,43,44
EndSplineSet
Substitution2: "Single Substitution lookup 43 subtable" glyph912
PairPos2: "'dist' Distance in Gujarati lookup 7 subtable" uni0AC0 dx=0 dy=0 dh=0 dv=0 dx=-55 dy=0 dh=0 dv=0
EndChar

StartChar: uni0AAF
Encoding: 2735 2735 95
Width: 904
GlyphClass: 2
Flags: W
AnchorPoint: "Anchor-7" 495 0 basechar 0
AnchorPoint: "Anchor-6" 495 0 basechar 0
AnchorPoint: "Anchor-2" 517 759 basechar 0
AnchorPoint: "Anchor-0" 517 759 basechar 0
LayerCount: 2
Fore
SplineSet
482 355 m 0,0,1
 406 306 406 306 382 296 c 0,2,3
 334 275 334 275 266 275 c 0,4,5
 170 275 170 275 100 346 c 128,-1,6
 30 417 30 417 30 523 c 1,7,8
 95 549 95 549 135 600 c 128,-1,9
 175 651 175 651 175 707 c 0,10,11
 175 739 175 739 150.5 761 c 128,-1,12
 126 783 126 783 94 783 c 0,13,14
 86 783 86 783 71 776.5 c 128,-1,15
 56 770 56 770 51 770 c 0,16,17
 29 770 29 770 29 809 c 0,18,19
 29 831 29 831 74 831 c 0,20,21
 134 831 134 831 181 800 c 1,22,23
 233 764 233 764 233 707 c 0,24,25
 233 646 233 646 189 578 c 128,-1,26
 145 510 145 510 91 488 c 1,27,28
 103 422 103 422 157.5 374.5 c 128,-1,29
 212 327 212 327 266 333 c 0,30,31
 359 344 359 344 450 404 c 0,32,33
 453 407 453 407 458 407 c 1,34,-1
 458 407 l 1,35,36
 474 407 474 407 484 385 c 0,37,38
 494 362 494 362 482 355 c 0,0,1
734 88 m 0,39,40
 670 -20 670 -20 608 -20 c 0,41,42
 539 -20 539 -20 497 16.5 c 128,-1,43
 455 53 455 53 455 122 c 2,44,-1
 455 788 l 2,45,46
 455 805 455 805 484 805 c 256,47,48
 513 805 513 805 513 788 c 2,49,-1
 513 122 l 2,50,51
 513 38 513 38 608 38 c 0,52,53
 634 38 634 38 681 111 c 0,54,55
 686 117 686 117 696 117 c 1,56,-1
 696 117 l 1,57,58
 710 117 710 117 724 110 c 1,59,60
 741 100 741 100 734 88 c 0,39,40
EndSplineSet
Substitution2: "Single Substitution lookup 43 subtable" glyph913
PairPos2: "'dist' Distance in Gujarati lookup 7 subtable" uni0AC0 dx=0 dy=0 dh=0 dv=0 dx=-88 dy=0 dh=0 dv=0
EndChar

StartChar: uni0AB0
Encoding: 2736 2736 96
Width: 696
GlyphClass: 2
Flags: W
AnchorPoint: "Anchor-7" 396 0 basechar 0
AnchorPoint: "Anchor-6" 396 0 basechar 0
AnchorPoint: "Anchor-2" 330 770 basechar 0
AnchorPoint: "Anchor-0" 330 770 basechar 0
LayerCount: 2
Fore
SplineSet
197 332 m 1,0,1
 180 374 180 374 152 381 c 0,2,3
 140 384 140 384 127.5 377.5 c 128,-1,4
 115 371 115 371 114 359 c 0,5,6
 112 332 112 332 197 332 c 1,0,1
81 805 m 0,7,8
 138 828 138 828 194 828 c 0,9,10
 314 828 314 828 392.5 752 c 128,-1,11
 471 676 471 676 471 552 c 0,12,13
 471 452 471 452 415.5 378 c 128,-1,14
 360 304 360 304 264 281 c 1,15,16
 273 250 273 250 287 214 c 0,17,18
 350 48 350 48 433 48 c 0,19,20
 509 48 509 48 569 83 c 0,21,22
 572 84 572 84 576 84 c 1,23,-1
 576 84 l 1,24,25
 591 84 591 84 601 67 c 0,26,27
 611 49 611 49 601 41 c 0,28,29
 542 -7 542 -7 433 -7 c 0,30,31
 371 -7 371 -7 310 65 c 0,32,33
 263 120 263 120 235 194 c 0,34,35
 225 220 225 220 213 274 c 1,36,37
 177 274 177 274 133 282 c 0,38,39
 59 297 59 297 62 359 c 0,40,41
 64 394 64 394 88 412.5 c 128,-1,42
 112 431 112 431 148 429 c 0,43,44
 209 424 209 424 243 337 c 1,45,46
 322 352 322 352 367.5 411 c 128,-1,47
 413 470 413 470 413 552 c 0,48,49
 413 650 413 650 350.5 710 c 128,-1,50
 288 770 288 770 194 770 c 0,51,52
 164 770 164 770 117 753 c 0,53,54
 111 751 111 751 105 751 c 0,55,56
 72 751 72 751 72 787 c 0,57,58
 72 801 72 801 81 805 c 0,7,8
EndSplineSet
PairPos2: "'dist' Distance in Gujarati lookup 8 subtable" glyph818 dx=0 dy=0 dh=0 dv=0 dx=44 dy=0 dh=0 dv=0
EndChar

StartChar: uni0AB2
Encoding: 2738 2738 97
Width: 904
GlyphClass: 2
Flags: W
AnchorPoint: "Anchor-7" 539 0 basechar 0
AnchorPoint: "Anchor-6" 539 0 basechar 0
AnchorPoint: "Anchor-2" 572 770 basechar 0
AnchorPoint: "Anchor-0" 572 770 basechar 0
LayerCount: 2
Fore
SplineSet
524 475 m 1,0,1
 461 454 461 454 403 440 c 0,2,3
 286 412 286 412 246 405 c 1,4,-1
 226 466 l 1,5,6
 297 466 297 466 362 484 c 1,7,-1
 384 489 l 2,8,9
 420 498 420 498 524 524 c 1,10,-1
 524 475 l 1,0,1
334 122 m 0,12,13
 203 122 203 122 100 217.5 c 128,-1,14
 -3 313 -3 313 -3 443 c 0,15,16
 -3 578 -3 578 123 682 c 0,17,18
 219 762 219 762 339 794 c 0,19,20
 361 799 361 799 361 765 c 0,21,22
 361 742 361 742 348 736 c 0,23,24
 307 716 307 716 222 670 c 1,25,26
 55 582 55 582 55 443 c 0,27,28
 55 334 55 334 153 253 c 0,29,30
 247 175 247 175 358 181 c 0,31,32
 378 182 378 182 378 148 c 0,33,34
 378 125 378 125 363.5 123.5 c 128,-1,11
 349 122 349 122 334 122 c 0,12,13
796 88 m 0,35,36
 732 -20 732 -20 670 -20 c 0,37,38
 601 -20 601 -20 559 16.5 c 128,-1,39
 517 53 517 53 517 122 c 2,40,-1
 517 788 l 2,41,42
 517 805 517 805 546 805 c 256,43,44
 575 805 575 805 575 788 c 2,45,-1
 575 122 l 2,46,47
 575 38 575 38 670 38 c 0,48,49
 696 38 696 38 743 111 c 1,50,51
 749 117 749 117 759 117 c 1,52,-1
 759 117 l 1,53,54
 772 117 772 117 786 110 c 0,55,56
 804 100 804 100 796 88 c 0,35,36
EndSplineSet
Substitution2: "Single Substitution lookup 43 subtable" glyph914
PairPos2: "'dist' Distance in Gujarati lookup 7 subtable" uni0AC0 dx=0 dy=0 dh=0 dv=0 dx=-33 dy=0 dh=0 dv=0
EndChar

StartChar: uni0AB3
Encoding: 2739 2739 98
Width: 1008
GlyphClass: 2
Flags: W
AnchorPoint: "Anchor-7" 594 0 basechar 0
AnchorPoint: "Anchor-6" 594 0 basechar 0
AnchorPoint: "Anchor-2" 638 792 basechar 0
AnchorPoint: "Anchor-0" 638 792 basechar 0
LayerCount: 2
Fore
SplineSet
495 805 m 0,0,1
 371 805 371 805 371 571 c 0,2,3
 371 399 371 399 358 348 c 0,4,5
 329 233 329 233 217 235 c 0,6,7
 115 236 115 236 54 322 c 0,8,9
 0 398 0 398 0 504 c 0,10,11
 0 607 0 607 42 688 c 0,12,13
 65 733 65 733 138 821 c 1,14,15
 140 825 140 825 148 825 c 1,16,-1
 148 825 l 1,17,18
 162 825 162 825 176 809 c 128,-1,19
 190 793 190 793 181 780 c 0,20,21
 104 680 104 680 91 656 c 0,22,23
 58 593 58 593 58 504 c 0,24,25
 58 424 58 424 97 363 c 0,26,27
 141 294 141 294 217 292 c 0,28,29
 319 290 319 290 319 432 c 0,30,31
 319 455 319 455 316 501 c 128,-1,32
 313 547 313 547 313 571 c 0,33,34
 313 863 313 863 495 863 c 0,35,36
 571 863 571 863 607 809 c 0,37,38
 635 768 635 768 630 723 c 1,39,-1
 573 723 l 1,40,41
 569 759 569 759 565 768 c 0,42,43
 548 805 548 805 495 805 c 0,0,1
851 103 m 0,44,45
 787 -6 787 -6 725 -6 c 0,46,47
 656 -6 656 -6 614 31 c 128,-1,48
 572 68 572 68 572 136 c 2,49,-1
 572 744 l 2,50,51
 572 762 572 762 601 762 c 256,52,53
 630 762 630 762 630 744 c 2,54,-1
 630 136 l 2,55,56
 630 52 630 52 725 52 c 0,57,58
 752 52 752 52 798 126 c 1,59,60
 804 132 804 132 814 132 c 1,61,-1
 814 132 l 1,62,63
 827 132 827 132 841 124 c 0,64,65
 859 115 859 115 851 103 c 0,44,45
EndSplineSet
Substitution2: "Single Substitution lookup 43 subtable" glyph915
PairPos2: "'dist' Distance in Gujarati lookup 7 subtable" uni0AC0 dx=0 dy=0 dh=0 dv=0 dx=-66 dy=0 dh=0 dv=0
EndChar

StartChar: uni0AB5
Encoding: 2741 2741 99
Width: 904
GlyphClass: 2
Flags: W
AnchorPoint: "Anchor-7" 484 0 basechar 0
AnchorPoint: "Anchor-6" 484 0 basechar 0
AnchorPoint: "Anchor-2" 506 759 basechar 0
AnchorPoint: "Anchor-0" 506 759 basechar 0
LayerCount: 2
Fore
SplineSet
468 264 m 0,0,1
 371 201 371 201 272 201 c 0,2,3
 170 201 170 201 88 268 c 0,4,5
 1 339 1 339 4 449 c 0,6,7
 7 550 7 550 73 622 c 1,8,9
 141 698 141 698 237 698 c 0,10,11
 324 698 324 698 346 675 c 0,12,13
 352 669 352 669 352 658 c 1,14,-1
 352 658 l 1,15,16
 352 644 352 644 344 631 c 0,17,18
 333 615 333 615 320 623 c 0,19,20
 292 640 292 640 237 640 c 0,21,22
 164 640 164 640 113 580 c 0,23,24
 65 524 65 524 62 446 c 0,25,26
 59 362 59 362 130 308 c 0,27,28
 196 259 196 259 275 259 c 0,29,30
 328 259 328 259 380 282 c 1,31,32
 416 303 416 303 458 325 c 1,33,34
 478 330 478 330 478 291 c 0,35,36
 478 270 478 270 468 264 c 0,0,1
731 88 m 0,37,38
 696 29 696 29 672 7 c 0,39,40
 643 -20 643 -20 605 -20 c 0,41,42
 536 -20 536 -20 494 16.5 c 128,-1,43
 452 53 452 53 452 122 c 2,44,-1
 452 788 l 2,45,46
 452 805 452 805 481 805 c 256,47,48
 510 805 510 805 510 788 c 2,49,-1
 510 122 l 2,50,51
 510 33 510 33 605 38 c 0,52,53
 632 39 632 39 678 111 c 0,54,55
 683 117 683 117 694 117 c 1,56,-1
 694 117 l 1,57,58
 707 117 707 117 721 110 c 1,59,60
 738 100 738 100 731 88 c 0,37,38
EndSplineSet
Substitution2: "Single Substitution lookup 43 subtable" glyph916
PairPos2: "'dist' Distance in Gujarati lookup 7 subtable" uni0AC0 dx=0 dy=0 dh=0 dv=0 dx=-110 dy=0 dh=0 dv=0
EndChar

StartChar: uni0AB6
Encoding: 2742 2742 100
Width: 1008
GlyphClass: 2
Flags: W
AnchorPoint: "Anchor-7" 649 0 basechar 0
AnchorPoint: "Anchor-6" 649 0 basechar 0
AnchorPoint: "Anchor-2" 671 748 basechar 0
AnchorPoint: "Anchor-0" 671 748 basechar 0
LayerCount: 2
Fore
SplineSet
355 569 m 0,0,1
 355 670 355 670 327 714 c 0,2,3
 288 776 288 776 178 776 c 0,4,5
 134 776 134 776 113 727 c 0,6,7
 95 687 95 687 100 640 c 0,8,9
 108 549 108 549 282 549 c 0,10,11
 324 549 324 549 350 555 c 1,12,13
 355 560 355 560 355 569 c 0,0,1
182 304 m 1,14,15
 238 332 238 332 284 384.5 c 128,-1,16
 330 437 330 437 345 494 c 1,17,18
 258 488 258 488 168 515 c 1,19,20
 50 552 50 552 42 634 c 0,21,22
 35 707 35 707 69 766 c 0,23,24
 108 834 108 834 178 834 c 0,25,26
 323 834 323 834 375 756 c 0,27,28
 413 699 413 699 413 569 c 0,29,30
 413 479 413 479 368 394 c 0,31,32
 311 287 311 287 204 252 c 1,33,34
 234 164 234 164 272 125 c 0,35,36
 331 63 331 63 379 61 c 0,37,38
 437 58 437 58 481 97 c 0,39,40
 484 100 484 100 488 100 c 1,41,-1
 488 100 l 1,42,43
 498 100 498 100 504 77 c 0,44,45
 510 53 510 53 501 42 c 0,46,47
 468 0 468 0 376 3 c 0,48,49
 332 4 332 4 297 26 c 0,50,51
 273 41 273 41 232 84 c 0,52,53
 201 116 201 116 187 142 c 0,54,55
 178 157 178 157 149 235 c 1,56,57
 117 223 117 223 98 223 c 0,58,59
 77 223 77 223 58 236 c 0,60,61
 -3 278 -3 278 -3 324 c 0,62,63
 -3 345 -3 345 13 358.5 c 128,-1,64
 29 372 29 372 49 372 c 0,65,66
 83 372 83 372 122.5 352 c 128,-1,67
 162 332 162 332 182 304 c 1,14,15
895 88 m 0,68,69
 831 -20 831 -20 769 -20 c 0,70,71
 699 -20 699 -20 657 16.5 c 128,-1,72
 615 53 615 53 615 122 c 2,73,-1
 615 788 l 2,74,75
 615 805 615 805 644 805 c 256,76,77
 673 805 673 805 673 788 c 2,78,-1
 673 122 l 2,79,80
 673 38 673 38 769 38 c 0,81,82
 795 38 795 38 841 111 c 1,83,84
 847 117 847 117 857 117 c 1,85,-1
 857 117 l 1,86,87
 871 117 871 117 885 110 c 1,88,89
 902 100 902 100 895 88 c 0,68,69
EndSplineSet
Substitution2: "Single Substitution lookup 43 subtable" glyph917
PairPos2: "'dist' Distance in Gujarati lookup 7 subtable" uni0AC0 dx=0 dy=0 dh=0 dv=0 dx=-33 dy=0 dh=0 dv=0
EndChar

StartChar: uni0AB7
Encoding: 2743 2743 101
Width: 904
GlyphClass: 2
Flags: W
AnchorPoint: "Anchor-7" 473 0 basechar 0
AnchorPoint: "Anchor-6" 473 0 basechar 0
AnchorPoint: "Anchor-2" 506 759 basechar 0
AnchorPoint: "Anchor-0" 506 759 basechar 0
LayerCount: 2
Fore
SplineSet
188 760 m 1,0,-1
 495 411 l 1,1,-1
 495 319 l 1,2,3
 429 266 429 266 353 266 c 0,4,5
 267 266 267 266 204 308 c 0,6,7
 132 356 132 356 132 437 c 2,8,-1
 132 744 l 2,9,10
 132 779 132 779 75 779 c 0,11,12
 68 779 68 779 49.5 769.5 c 128,-1,13
 31 760 31 760 23 760 c 0,14,15
 11 760 11 760 -1 770 c 128,-1,16
 -13 780 -13 780 -13 792 c 0,17,18
 -13 798 -13 798 -9 802 c 0,19,20
 27 837 27 837 75 837 c 0,21,22
 115 837 115 837 146 818 c 0,23,24
 181 797 181 797 188 760 c 1,0,-1
460 365 m 1,25,-1
 190 672 l 1,26,-1
 190 437 l 2,27,28
 190 345 190 345 330 326 c 0,29,30
 385 318 385 318 460 365 c 1,25,-1
721 88 m 0,31,32
 657 -20 657 -20 595 -20 c 0,33,34
 526 -20 526 -20 484 16.5 c 128,-1,35
 442 53 442 53 442 122 c 2,36,-1
 442 788 l 2,37,38
 442 805 442 805 471 805 c 256,39,40
 500 805 500 805 500 788 c 2,41,-1
 500 122 l 2,42,43
 500 38 500 38 595 38 c 0,44,45
 621 38 621 38 668 111 c 0,46,47
 673 117 673 117 683 117 c 1,48,-1
 683 117 l 1,49,50
 697 117 697 117 711 110 c 1,51,52
 728 100 728 100 721 88 c 0,31,32
EndSplineSet
Substitution2: "Single Substitution lookup 43 subtable" glyph918
PairPos2: "'dist' Distance in Gujarati lookup 7 subtable" uni0AC0 dx=0 dy=0 dh=0 dv=0 dx=-99 dy=0 dh=0 dv=0
EndChar

StartChar: uni0AB8
Encoding: 2744 2744 102
Width: 904
GlyphClass: 2
Flags: W
AnchorPoint: "Anchor-7" 572 0 basechar 0
AnchorPoint: "Anchor-6" 572 0 basechar 0
AnchorPoint: "Anchor-2" 605 748 basechar 0
AnchorPoint: "Anchor-0" 605 748 basechar 0
LayerCount: 2
Fore
SplineSet
93 339 m 1,0,1
 85 362 85 362 65 362 c 256,2,3
 45 362 45 362 48 346 c 0,4,5
 50 334 50 334 64 333 c 1,6,7
 78 330 78 330 93 339 c 1,0,1
359 510 m 1,8,9
 407 478 407 478 440 475 c 0,10,11
 474 472 474 472 549 508 c 0,12,13
 561 514 561 514 575 500.5 c 128,-1,14
 589 487 589 487 589 473 c 0,15,16
 589 468 589 468 586 465 c 0,17,18
 536 416 536 416 459 416 c 0,19,20
 411 416 411 416 345 453 c 1,21,22
 321 391 321 391 271 345 c 1,23,24
 217 297 217 297 155 287 c 1,25,26
 180 216 180 216 203 145 c 1,27,28
 248 45 248 45 311 45 c 0,29,30
 343 45 343 45 384 65 c 2,31,-1
 421 84 l 1,32,33
 436 84 436 84 445 62 c 1,34,35
 453 39 453 39 442 30 c 0,36,37
 407 5 407 5 382.5 -1.5 c 128,-1,38
 358 -8 358 -8 311 -7 c 0,39,40
 237 -5 237 -5 175 116 c 0,41,42
 132 201 132 201 117 271 c 1,43,44
 -4 271 -4 271 -4 368 c 0,45,46
 -4 393 -4 393 19 407 c 0,47,48
 39 420 39 420 65 420 c 0,49,50
 111 420 111 420 140 348 c 1,51,52
 211 350 211 350 259 415 c 0,53,54
 304 475 304 475 304 547 c 0,55,56
 304 660 304 660 272 714 c 0,57,58
 230 783 230 783 125 783 c 0,59,60
 101 783 101 783 80 769 c 2,61,-1
 36 740 l 2,62,63
 33 738 33 738 29 738 c 0,64,65
 17 738 17 738 5.5 749.5 c 128,-1,66
 -6 761 -6 761 -6 773 c 0,67,68
 -6 806 -6 806 45 825 c 0,69,70
 87 841 87 841 125 841 c 0,71,72
 261 841 261 841 317 759 c 1,73,74
 362 691 362 691 362 547 c 0,75,76
 362 533 362 533 359 510 c 1,8,9
822 88 m 0,77,78
 758 -20 758 -20 696 -20 c 0,79,80
 627 -20 627 -20 585 16.5 c 128,-1,81
 543 53 543 53 543 122 c 2,82,-1
 543 788 l 2,83,84
 543 805 543 805 572 805 c 256,85,86
 601 805 601 805 601 788 c 2,87,-1
 601 122 l 2,88,89
 601 38 601 38 696 38 c 0,90,91
 723 38 723 38 769 111 c 1,92,93
 775 117 775 117 785 117 c 1,94,-1
 785 117 l 1,95,96
 798 117 798 117 812 110 c 0,97,98
 830 100 830 100 822 88 c 0,77,78
EndSplineSet
Substitution2: "Single Substitution lookup 43 subtable" glyph919
EndChar

StartChar: uni0AB9
Encoding: 2745 2745 103
Width: 904
GlyphClass: 2
Flags: W
AnchorPoint: "Anchor-7" 506 0 basechar 0
AnchorPoint: "Anchor-6" 506 0 basechar 0
AnchorPoint: "Anchor-2" 484 737 basechar 0
AnchorPoint: "Anchor-0" 484 737 basechar 0
LayerCount: 2
Fore
SplineSet
438 798 m 1,0,-1
 438 798 l 1,1,2
 447 798 447 798 464 778 c 0,3,4
 477 762 477 762 469 750 c 1,5,6
 439 726 439 726 406 690 c 0,7,8
 368 647 368 647 368 630 c 0,9,10
 368 608 368 608 421.5 566 c 128,-1,11
 475 524 475 524 530 481 c 1,12,13
 585 420 585 420 585 353 c 256,14,15
 585 286 585 286 536.5 243 c 128,-1,16
 488 200 488 200 420 200 c 0,17,18
 326 200 326 200 256 262 c 0,19,20
 217 297 217 297 125 426 c 0,21,22
 122 429 122 429 122 433 c 1,23,-1
 122 433 l 1,24,25
 122 448 122 448 142 460 c 1,26,27
 161 473 161 473 171 460 c 2,28,-1
 275 326 l 1,29,30
 342 258 342 258 420 258 c 0,31,32
 462 258 462 258 494.5 285 c 128,-1,33
 527 312 527 312 527 353 c 0,34,35
 527 403 527 403 456 468 c 1,36,37
 400 510 400 510 344 552 c 1,38,39
 301 586 301 586 301 615 c 0,40,41
 301 654 301 654 334 698 c 1,42,43
 365 733 365 733 396 768 c 0,44,45
 398 771 398 771 417 784.5 c 128,-1,46
 436 798 436 798 438 798 c 1,0,-1
683 114 m 1,47,48
 692 109 692 109 704 89 c 1,49,50
 705 81 705 81 681 60 c 0,51,52
 648 30 648 30 591 10 c 0,53,54
 491 -25 491 -25 417 -25 c 0,55,56
 372 -25 372 -25 334 -17 c 0,57,58
 118 25 118 25 29 220 c 0,59,60
 -1 287 -1 287 -1 358 c 0,61,62
 -1 450 -1 450 56 581 c 0,63,64
 60 588 60 588 68 588 c 0,65,66
 82 588 82 588 96 575 c 128,-1,67
 110 562 110 562 106 549 c 0,68,69
 59 420 59 420 59 346 c 0,70,71
 59 291 59 291 81 243 c 0,72,73
 151 91 151 91 337 41 c 0,74,75
 391 26 391 26 434 26 c 0,76,77
 498 26 498 26 581 67 c 1,78,79
 605 81 605 81 630 95 c 0,80,81
 668 116 668 116 679 116 c 0,82,83
 682 116 682 116 683 114 c 1,47,48
EndSplineSet
PairPos2: "'dist' Distance in Gujarati lookup 8 subtable" glyph818 dx=0 dy=0 dh=0 dv=0 dx=-22 dy=0 dh=0 dv=0
EndChar

StartChar: uni0ABC
Encoding: 2748 2748 104
Width: 0
GlyphClass: 4
Flags: W
AnchorPoint: "Anchor-5" 33 -44 mark 0
LayerCount: 2
Fore
SplineSet
172 -117 m 256,0,1
 172 -143 172 -143 153.5 -162 c 128,-1,2
 135 -181 135 -181 109 -181 c 0,3,4
 82 -181 82 -181 63.5 -162 c 128,-1,5
 45 -143 45 -143 45 -117 c 0,6,7
 45 -92 45 -92 64.5 -73.5 c 128,-1,8
 84 -55 84 -55 109 -55 c 0,9,10
 135 -55 135 -55 153.5 -73 c 128,-1,11
 172 -91 172 -91 172 -117 c 256,0,1
EndSplineSet
EndChar

StartChar: uni0ABD
Encoding: 2749 2749 105
Width: 776
GlyphClass: 4
Flags: W
LayerCount: 2
Fore
SplineSet
694 334 m 0,0,1
 694 217 694 217 630 133 c 0,2,3
 561 41 561 41 447 41 c 0,4,5
 249 41 249 41 120 255 c 0,6,7
 95 297 95 297 20 427 c 0,8,9
 19 430 19 430 19 434 c 1,10,-1
 19 434 l 1,11,12
 19 449 19 449 41 460 c 1,13,14
 62 472 62 472 70 459 c 2,15,-1
 158 301 l 2,16,17
 271 98 271 98 447 98 c 0,18,19
 535 98 535 98 588 175 c 0,20,21
 636 243 636 243 636 334 c 0,22,23
 636 443 636 443 505 443 c 0,24,25
 478 443 478 443 408 437 c 0,26,27
 395 436 395 436 381 436 c 0,28,29
 285 436 285 436 222 495.5 c 128,-1,30
 159 555 159 555 159 652 c 0,31,32
 159 720 159 720 199 768 c 0,33,34
 241 820 241 820 308 820 c 2,35,-1
 607 820 l 2,36,37
 624 820 624 820 624 791 c 256,38,39
 624 762 624 762 607 762 c 2,40,-1
 308 762 l 2,41,42
 266 762 266 762 241.5 728.5 c 128,-1,43
 217 695 217 695 217 652 c 0,44,45
 217 574 217 574 272 531 c 1,46,47
 324 489 324 489 403 495 c 0,48,49
 461 500 461 500 489 500 c 0,50,51
 588 500 588 500 636 468 c 0,52,53
 694 429 694 429 694 334 c 0,0,1
EndSplineSet
EndChar

StartChar: uni0ABE
Encoding: 2750 2750 106
Width: 371
GlyphClass: 4
Flags: W
AnchorPoint: "Anchor-3" 66 748 basemark 0
AnchorPoint: "Anchor-1" 66 748 basemark 0
LayerCount: 2
Fore
SplineSet
279 88 m 0,0,1
 215 -20 215 -20 153 -20 c 0,2,3
 84 -20 84 -20 42 16.5 c 128,-1,4
 0 53 0 53 0 122 c 2,5,-1
 0 788 l 2,6,7
 0 805 0 805 29 805 c 256,8,9
 58 805 58 805 58 788 c 2,10,-1
 58 122 l 2,11,12
 58 38 58 38 153 38 c 0,13,14
 180 38 180 38 226 111 c 1,15,16
 232 117 232 117 242 117 c 1,17,-1
 242 117 l 1,18,19
 255 117 255 117 269 110 c 0,20,21
 287 100 287 100 279 88 c 0,0,1
EndSplineSet
EndChar

StartChar: uni0ABF
Encoding: 2751 2751 107
Width: 336
GlyphClass: 4
Flags: W
AnchorPoint: "Anchor-3" 825 979 basemark 0
LayerCount: 2
Fore
SplineSet
58 122 m 2,0,1
 58 38 58 38 153 38 c 0,2,3
 180 38 180 38 226 111 c 1,4,5
 232 117 232 117 242 117 c 1,6,-1
 242 117 l 1,7,8
 255 117 255 117 269 110 c 0,9,10
 287 100 287 100 279 88 c 0,11,12
 215 -20 215 -20 153 -20 c 0,13,14
 84 -20 84 -20 42 16.5 c 128,-1,15
 0 53 0 53 0 122 c 2,16,-1
 0 970 l 2,17,18
 0 1063 0 1063 53 1124 c 0,19,20
 77 1152 77 1152 144 1169 c 0,21,22
 202 1184 202 1184 255 1184 c 0,23,24
 495 1184 495 1184 613 1147 c 0,25,26
 800 1087 800 1087 850 915 c 0,27,28
 854 901 854 901 827 901 c 0,29,30
 794 901 794 901 785 927 c 0,31,32
 747 1037 747 1037 609 1085 c 0,33,34
 484 1129 484 1129 255 1129 c 0,35,36
 216 1129 216 1129 169 1119 c 0,37,38
 113 1106 113 1106 96 1087 c 0,39,40
 58 1044 58 1044 58 980 c 2,41,-1
 58 122 l 2,0,1
EndSplineSet
Substitution2: "Single Substitution lookup 39 subtable" glyph846
Substitution2: "Single Substitution lookup 38 subtable" glyph845
Substitution2: "Single Substitution lookup 37 subtable" glyph844
Substitution2: "Single Substitution lookup 36 subtable" glyph843
Substitution2: "Single Substitution lookup 35 subtable" glyph817
Substitution2: "Single Substitution lookup 34 subtable" glyph816
Substitution2: "Single Substitution lookup 33 subtable" uni0ABF
PairPos2: "'dist' Distance in Gujarati lookup 0 subtable" uni0AB2_uni0AB0_uni0ACD.zz04.zz05_uni0ABC.zz07 dx=0 dy=0 dh=0 dv=0 dx=-66 dy=0 dh=0 dv=0
PairPos2: "'dist' Distance in Gujarati lookup 0 subtable" uni0AAF_uni0AB0_uni0ACD.zz04.zz05_uni0ABC.zz07 dx=0 dy=0 dh=0 dv=0 dx=-22 dy=0 dh=0 dv=0
PairPos2: "'dist' Distance in Gujarati lookup 0 subtable" uni0AAE_uni0AB0_uni0ACD.zz04.zz05_uni0ABC.zz07 dx=0 dy=0 dh=0 dv=0 dx=-55 dy=0 dh=0 dv=0
PairPos2: "'dist' Distance in Gujarati lookup 0 subtable" uni0AA8_uni0AB0_uni0ACD.zz04.zz05_uni0ABC.zz07 dx=0 dy=0 dh=0 dv=0 dx=-22 dy=0 dh=0 dv=0
PairPos2: "'dist' Distance in Gujarati lookup 0 subtable" uni0AA7_uni0AB0_uni0ACD.zz04.zz05_uni0ABC.zz07 dx=0 dy=0 dh=0 dv=0 dx=-44 dy=0 dh=0 dv=0
PairPos2: "'dist' Distance in Gujarati lookup 0 subtable" uni0AA5_uni0AB0_uni0ACD.zz04.zz05_uni0ABC.zz07 dx=0 dy=0 dh=0 dv=0 dx=-33 dy=0 dh=0 dv=0
PairPos2: "'dist' Distance in Gujarati lookup 0 subtable" uni0A98_uni0AB0_uni0ACD.zz04.zz05_uni0ABC.zz07 dx=0 dy=0 dh=0 dv=0 dx=-33 dy=0 dh=0 dv=0
PairPos2: "'dist' Distance in Gujarati lookup 0 subtable" uni0AAA_uni0ACD.zz08_uni0AA4.zz13 dx=0 dy=0 dh=0 dv=0 dx=-44 dy=0 dh=0 dv=0
PairPos2: "'dist' Distance in Gujarati lookup 0 subtable" uni0AA6_uni0ACD.zz08_uni0AAC_uni0AB0_uni0ACD.zz04.zz05.zz13 dx=0 dy=0 dh=0 dv=0 dx=-88 dy=0 dh=0 dv=0
PairPos2: "'dist' Distance in Gujarati lookup 0 subtable" uni0AA6_uni0ACD.zz08_uni0AAC.zz13 dx=0 dy=0 dh=0 dv=0 dx=-77 dy=0 dh=0 dv=0
PairPos2: "'dist' Distance in Gujarati lookup 0 subtable" uni0AA6_uni0ACD.zz08_uni0AA7_uni0ACD.zz08_uni0AB5.zz13 dx=0 dy=0 dh=0 dv=0 dx=-99 dy=0 dh=0 dv=0
PairPos2: "'dist' Distance in Gujarati lookup 0 subtable" uni0AA6_uni0ACD.zz08_uni0AA7.zz13 dx=0 dy=0 dh=0 dv=0 dx=-77 dy=0 dh=0 dv=0
PairPos2: "'dist' Distance in Gujarati lookup 0 subtable" uni0AA6_uni0ACD.zz08_uni0A97.zz13 dx=0 dy=0 dh=0 dv=0 dx=-11 dy=0 dh=0 dv=0
PairPos2: "'dist' Distance in Gujarati lookup 0 subtable" uni0A9C_uni0ACD.zz08_uni0A9C.zz13 dx=0 dy=0 dh=0 dv=0 dx=-110 dy=0 dh=0 dv=0
PairPos2: "'dist' Distance in Gujarati lookup 0 subtable" uni0A9A_uni0ACD.zz08_uni0A9A.zz13 dx=0 dy=0 dh=0 dv=0 dx=33 dy=0 dh=0 dv=0
PairPos2: "'dist' Distance in Gujarati lookup 0 subtable" uni0A99_uni0ACD.zz08_uni0A96_uni0ACD.zz08_uni0AAF.zz13 dx=0 dy=0 dh=0 dv=0 dx=-88 dy=0 dh=0 dv=0
PairPos2: "'dist' Distance in Gujarati lookup 0 subtable" uni0A99_uni0ACD.zz08_uni0A95_uni0ACD.zz08_uni0AA4_uni0ACD.zz08.zz12.zz13 dx=0 dy=0 dh=0 dv=0 dx=-33 dy=-11 dh=0 dv=0
PairPos2: "'dist' Distance in Gujarati lookup 0 subtable" uni0AB7_uni0ACD.zz08_uni0AA8.zz13 dx=0 dy=0 dh=0 dv=0 dx=22 dy=0 dh=0 dv=0
PairPos2: "'dist' Distance in Gujarati lookup 0 subtable" uni0AB5_uni0ACD.zz08_uni0AA8.zz13 dx=0 dy=0 dh=0 dv=0 dx=22 dy=0 dh=0 dv=0
PairPos2: "'dist' Distance in Gujarati lookup 0 subtable" uni0AB2_uni0ACD.zz08_uni0AA8.zz13 dx=0 dy=0 dh=0 dv=0 dx=-55 dy=0 dh=0 dv=0
PairPos2: "'dist' Distance in Gujarati lookup 0 subtable" uni0AAE_uni0ACD.zz08_uni0AA8.zz13 dx=0 dy=0 dh=0 dv=0 dx=-55 dy=0 dh=0 dv=0
PairPos2: "'dist' Distance in Gujarati lookup 0 subtable" uni0AAA_uni0ACD.zz08_uni0AA8.zz13 dx=0 dy=0 dh=0 dv=0 dx=-33 dy=0 dh=0 dv=0
PairPos2: "'dist' Distance in Gujarati lookup 0 subtable" uni0AA8_uni0ACD.zz08_uni0AA8.zz13 dx=0 dy=0 dh=0 dv=0 dx=-22 dy=0 dh=0 dv=0
PairPos2: "'dist' Distance in Gujarati lookup 0 subtable" uni0AA7_uni0ACD.zz08_uni0AA8.zz13 dx=0 dy=0 dh=0 dv=0 dx=-44 dy=0 dh=0 dv=0
PairPos2: "'dist' Distance in Gujarati lookup 0 subtable" uni0AA5_uni0ACD.zz08_uni0AA8.zz13 dx=0 dy=0 dh=0 dv=0 dx=-11 dy=0 dh=0 dv=0
PairPos2: "'dist' Distance in Gujarati lookup 0 subtable" uni0AA4_uni0ACD.zz08_uni0AA8.zz13 dx=0 dy=0 dh=0 dv=0 dx=-22 dy=0 dh=0 dv=0
PairPos2: "'dist' Distance in Gujarati lookup 0 subtable" uni0A98_uni0ACD.zz08_uni0AA8.zz13 dx=0 dy=0 dh=0 dv=0 dx=-22 dy=0 dh=0 dv=0
PairPos2: "'dist' Distance in Gujarati lookup 0 subtable" uni0AB2_uni0ABC.zz07 dx=0 dy=0 dh=0 dv=0 dx=-66 dy=0 dh=0 dv=0
PairPos2: "'dist' Distance in Gujarati lookup 0 subtable" uni0AAF_uni0ABC.zz07 dx=0 dy=0 dh=0 dv=0 dx=-22 dy=0 dh=0 dv=0
PairPos2: "'dist' Distance in Gujarati lookup 0 subtable" uni0AAE_uni0ABC.zz07 dx=0 dy=0 dh=0 dv=0 dx=-44 dy=0 dh=0 dv=0
PairPos2: "'dist' Distance in Gujarati lookup 0 subtable" uni0AA8_uni0ABC.zz07 dx=0 dy=0 dh=0 dv=0 dx=-33 dy=0 dh=0 dv=0
PairPos2: "'dist' Distance in Gujarati lookup 0 subtable" uni0AA7_uni0ABC.zz07 dx=0 dy=0 dh=0 dv=0 dx=-55 dy=0 dh=0 dv=0
PairPos2: "'dist' Distance in Gujarati lookup 0 subtable" uni0AA5_uni0ABC.zz07 dx=0 dy=0 dh=0 dv=0 dx=-44 dy=0 dh=0 dv=0
PairPos2: "'dist' Distance in Gujarati lookup 0 subtable" uni0AA4_uni0ABC.zz07 dx=0 dy=0 dh=0 dv=0 dx=-55 dy=0 dh=0 dv=0
PairPos2: "'dist' Distance in Gujarati lookup 0 subtable" uni0A98_uni0ABC.zz07 dx=0 dy=0 dh=0 dv=0 dx=-33 dy=0 dh=0 dv=0
PairPos2: "'dist' Distance in Gujarati lookup 0 subtable" uni0AB2_uni0AB0_uni0ACD.zz04.zz05 dx=0 dy=0 dh=0 dv=0 dx=-77 dy=0 dh=0 dv=0
PairPos2: "'dist' Distance in Gujarati lookup 0 subtable" uni0AAF_uni0AB0_uni0ACD.zz04.zz05 dx=0 dy=0 dh=0 dv=0 dx=-33 dy=0 dh=0 dv=0
PairPos2: "'dist' Distance in Gujarati lookup 0 subtable" uni0AAE_uni0AB0_uni0ACD.zz04.zz05 dx=0 dy=0 dh=0 dv=0 dx=-44 dy=0 dh=0 dv=0
PairPos2: "'dist' Distance in Gujarati lookup 0 subtable" uni0AA8_uni0AB0_uni0ACD.zz04.zz05 dx=0 dy=0 dh=0 dv=0 dx=-33 dy=0 dh=0 dv=0
PairPos2: "'dist' Distance in Gujarati lookup 0 subtable" uni0AA7_uni0AB0_uni0ACD.zz04.zz05 dx=0 dy=0 dh=0 dv=0 dx=-66 dy=0 dh=0 dv=0
PairPos2: "'dist' Distance in Gujarati lookup 0 subtable" uni0AA5_uni0AB0_uni0ACD.zz04.zz05 dx=0 dy=0 dh=0 dv=0 dx=-44 dy=0 dh=0 dv=0
PairPos2: "'dist' Distance in Gujarati lookup 0 subtable" uni0A98_uni0AB0_uni0ACD.zz04.zz05 dx=0 dy=0 dh=0 dv=0 dx=-55 dy=0 dh=0 dv=0
PairPos2: "'dist' Distance in Gujarati lookup 0 subtable" uni0AB7 dx=0 dy=0 dh=0 dv=0 dx=22 dy=0 dh=0 dv=0
PairPos2: "'dist' Distance in Gujarati lookup 0 subtable" uni0AB2 dx=0 dy=0 dh=0 dv=0 dx=-55 dy=0 dh=0 dv=0
PairPos2: "'dist' Distance in Gujarati lookup 0 subtable" uni0AAE dx=0 dy=0 dh=0 dv=0 dx=-44 dy=0 dh=0 dv=0
PairPos2: "'dist' Distance in Gujarati lookup 0 subtable" uni0AAA dx=0 dy=0 dh=0 dv=0 dx=-33 dy=0 dh=0 dv=0
PairPos2: "'dist' Distance in Gujarati lookup 0 subtable" uni0AA8 dx=0 dy=0 dh=0 dv=0 dx=44 dy=0 dh=0 dv=0
PairPos2: "'dist' Distance in Gujarati lookup 0 subtable" uni0AA7 dx=0 dy=0 dh=0 dv=0 dx=-33 dy=0 dh=0 dv=0
PairPos2: "'dist' Distance in Gujarati lookup 0 subtable" uni0AA5 dx=0 dy=0 dh=0 dv=0 dx=-11 dy=0 dh=0 dv=0
PairPos2: "'dist' Distance in Gujarati lookup 0 subtable" uni0AA4 dx=0 dy=0 dh=0 dv=0 dx=-11 dy=0 dh=0 dv=0
EndChar

StartChar: uni0AC0
Encoding: 2752 2752 108
Width: 312
GlyphClass: 4
Flags: W
AnchorPoint: "Anchor-3" 66 1045 basemark 0
LayerCount: 2
Fore
SplineSet
278 85 m 0,0,1
 236 22 236 22 219 6 c 0,2,3
 190 -20 190 -20 138 -20 c 0,4,5
 0 -20 0 -20 0 144 c 2,6,-1
 0 956 l 2,7,8
 0 1012 0 1012 -35 1054 c 0,9,10
 -73 1100 -73 1100 -127 1100 c 0,11,12
 -182 1100 -182 1100 -207 1090 c 0,13,14
 -243 1076 -243 1076 -263 1032 c 0,15,16
 -299 955 -299 955 -298 855 c 0,17,18
 -298 838 -298 838 -327 838 c 256,19,20
 -356 838 -356 838 -356 855 c 0,21,22
 -359 1017 -359 1017 -302 1089 c 0,23,24
 -247 1158 -247 1158 -127 1158 c 0,25,26
 -49 1158 -49 1158 6 1095 c 0,27,28
 58 1036 58 1036 58 956 c 2,29,-1
 58 144 l 2,30,31
 58 38 58 38 138 38 c 0,32,33
 171 38 171 38 194 67 c 2,34,-1
 226 108 l 1,35,36
 232 114 232 114 242 114 c 1,37,-1
 242 114 l 1,38,39
 252 114 252 114 266 106.5 c 128,-1,40
 280 99 280 99 280 90 c 0,41,42
 280 88 280 88 278 85 c 0,0,1
EndSplineSet
Substitution2: "Single Substitution lookup 40 subtable" glyph818
EndChar

StartChar: uni0AC1
Encoding: 2753 2753 109
Width: 0
GlyphClass: 4
Flags: W
AnchorPoint: "Anchor-8" -154 -297 basemark 0
AnchorPoint: "Anchor-6" -176 0 mark 0
LayerCount: 2
Fore
SplineSet
16 -165 m 0,0,1
 16 -258 16 -258 -72 -316 c 1,2,3
 -150 -366 -150 -366 -248 -366 c 0,4,5
 -384 -366 -384 -366 -484 -287 c 0,6,7
 -540 -242 -540 -242 -659 -91 c 0,8,9
 -662 -88 -662 -88 -662 -85 c 1,10,-1
 -662 -85 l 1,11,12
 -662 -74 -662 -74 -639 -64 c 256,13,14
 -616 -54 -616 -54 -607 -65 c 0,15,16
 -513 -186 -513 -186 -460 -229 c 0,17,18
 -364 -308 -364 -308 -248 -308 c 0,19,20
 -172 -308 -172 -308 -113 -275 c 0,21,22
 -42 -235 -42 -235 -42 -165 c 0,23,24
 -42 -112 -42 -112 -91 -81 c 0,25,26
 -134 -54 -134 -54 -190 -54 c 0,27,28
 -255 -54 -255 -54 -297 -126 c 0,29,30
 -301 -132 -301 -132 -308 -132 c 0,31,32
 -322 -132 -322 -132 -337 -119.5 c 128,-1,33
 -352 -107 -352 -107 -346 -94 c 0,34,35
 -297 4 -297 4 -190 4 c 0,36,37
 -108 4 -108 4 -49 -39 c 0,38,39
 16 -86 16 -86 16 -165 c 0,0,1
EndSplineSet
Substitution2: "Single Substitution lookup 41 subtable" glyph820
EndChar

StartChar: uni0AC2
Encoding: 2754 2754 110
Width: 0
GlyphClass: 4
Flags: W
AnchorPoint: "Anchor-8" -154 -352 basemark 0
AnchorPoint: "Anchor-6" -352 -11 mark 0
LayerCount: 2
Fore
SplineSet
75 -427 m 1,0,-1
 75 -427 l 1,1,2
 75 -442 75 -442 52 -452 c 256,3,4
 29 -462 29 -462 22 -447 c 0,5,6
 -154 -71 -154 -71 -362 -71 c 0,7,8
 -422 -71 -422 -71 -466 -98 c 0,9,10
 -518 -130 -518 -130 -518 -187 c 0,11,12
 -518 -279 -518 -279 -385 -279 c 0,13,14
 -331 -279 -331 -279 -284 -261 c 0,15,16
 -272 -256 -272 -256 -262.5 -272 c 128,-1,17
 -253 -288 -253 -288 -253 -301 c 0,18,19
 -253 -312 -253 -312 -261 -313 c 0,20,21
 -325 -323 -325 -323 -392 -323 c 0,22,23
 -576 -323 -576 -323 -576 -187 c 0,24,25
 -576 -104 -576 -104 -508 -56 c 0,26,27
 -448 -13 -448 -13 -362 -13 c 0,28,29
 -204 -13 -204 -13 -66 -140 c 0,30,31
 75 -270 75 -270 75 -427 c 1,0,-1
EndSplineSet
Substitution2: "Single Substitution lookup 41 subtable" glyph821
EndChar

StartChar: uni0AC3
Encoding: 2755 2755 111
Width: 0
GlyphClass: 4
Flags: W
AnchorPoint: "Anchor-8" -66 -286 basemark 0
AnchorPoint: "Anchor-6" -198 -11 mark 0
LayerCount: 2
Fore
SplineSet
38 -252 m 0,0,1
 -37 -359 -37 -359 -174 -359 c 0,2,3
 -274 -359 -274 -359 -334 -315 c 0,4,5
 -403 -264 -403 -264 -403 -168 c 0,6,7
 -403 -108 -403 -108 -336 -58 c 0,8,9
 -314 -42 -314 -42 -217 4 c 0,10,11
 -205 10 -205 10 -196.5 -5 c 128,-1,12
 -188 -20 -188 -20 -188 -33 c 256,13,14
 -188 -46 -188 -46 -197 -51 c 1,15,16
 -214 -58 -214 -58 -294 -94 c 0,17,18
 -345 -117 -345 -117 -345 -168 c 0,19,20
 -345 -301 -345 -301 -174 -301 c 0,21,22
 -121 -301 -121 -301 -80 -269 c 0,23,24
 -61 -255 -61 -255 -3 -211 c 0,25,26
 1 -209 1 -209 6 -209 c 1,27,-1
 6 -209 l 1,28,29
 21 -209 21 -209 34 -224 c 128,-1,30
 47 -239 47 -239 38 -252 c 0,0,1
EndSplineSet
EndChar

StartChar: uni0AC4
Encoding: 2756 2756 112
Width: 0
GlyphClass: 4
Flags: W
AnchorPoint: "Anchor-8" -154 -330 basemark 0
AnchorPoint: "Anchor-6" -275 0 mark 0
LayerCount: 2
Fore
SplineSet
-122 -153 m 1,0,1
 -172 -224 -172 -224 -262 -224 c 0,2,3
 -414 -224 -414 -224 -414 -98 c 0,4,5
 -414 -57 -414 -57 -369 -25 c 0,6,7
 -355 -14 -355 -14 -291 16 c 0,8,9
 -272 25 -272 25 -272 -9 c 0,10,11
 -272 -18 -272 -18 -278 -20 c 2,12,-1
 -340 -48 l 1,13,14
 -375 -68 -375 -68 -375 -98 c 0,15,16
 -375 -187 -375 -187 -262 -187 c 0,17,18
 -229 -187 -229 -187 -200 -165 c 0,19,20
 -150 -128 -150 -128 -143 -125 c 1,21,-1
 -143 -125 l 1,22,23
 -133 -125 -133 -125 -124 -135 c 128,-1,24
 -115 -145 -115 -145 -122 -153 c 1,0,1
-122 -362 m 0,25,26
 -172 -434 -172 -434 -262 -434 c 0,27,28
 -414 -434 -414 -434 -414 -307 c 0,29,30
 -414 -266 -414 -266 -369 -235 c 1,31,32
 -352 -222 -352 -222 -291 -193 c 0,33,34
 -272 -183 -272 -183 -272 -217 c 0,35,36
 -272 -226 -272 -226 -278 -229 c 0,37,38
 -307 -243 -307 -243 -340 -256 c 1,39,40
 -375 -277 -375 -277 -375 -307 c 0,41,42
 -375 -395 -375 -395 -262 -395 c 0,43,44
 -230 -395 -230 -395 -200 -374 c 0,45,46
 -152 -340 -152 -340 -143 -334 c 1,47,-1
 -143 -334 l 1,48,49
 -133 -334 -133 -334 -124 -343.5 c 128,-1,50
 -115 -353 -115 -353 -122 -362 c 0,25,26
EndSplineSet
EndChar

StartChar: uni0AC5
Encoding: 2757 2757 113
Width: 0
GlyphClass: 4
Flags: W
AnchorPoint: "Anchor-3" -11 979 basemark 0
AnchorPoint: "Anchor-0" -66 704 mark 0
LayerCount: 2
Fore
SplineSet
-480 1211 m 1,0,-1
 -480 1211 l 1,1,2
 -480 1225 -480 1225 -457 1227 c 0,3,4
 -432 1230 -432 1230 -424 1214 c 0,5,6
 -329 1036 -329 1036 -319 1022 c 0,7,8
 -251 922 -251 922 -176 922 c 0,9,10
 -144 922 -144 922 -96 942 c 0,11,12
 -83 948 -83 948 -71 933 c 1,13,14
 -62 919 -62 919 -62 905 c 0,15,16
 -62 894 -62 894 -70 890 c 2,17,-1
 -111 870 l 1,18,19
 -130 864 -130 864 -176 864 c 0,20,21
 -257 864 -257 864 -345 987 c 0,22,23
 -360 1008 -360 1008 -419 1105 c 0,24,25
 -480 1206 -480 1206 -480 1211 c 1,0,-1
EndSplineSet
EndChar

StartChar: uni0AC7
Encoding: 2759 2759 114
Width: 0
GlyphClass: 4
Flags: W
AnchorPoint: "Anchor-3" 0 979 basemark 0
AnchorPoint: "Anchor-0" -66 704 mark 0
LayerCount: 2
Fore
SplineSet
-56 880 m 1,0,-1
 -56 880 l 1,1,2
 -56 867 -56 867 -80 864 c 256,3,4
 -104 861 -104 861 -113 877 c 0,5,6
 -207 1055 -207 1055 -217 1070 c 0,7,8
 -285 1170 -285 1170 -361 1170 c 0,9,10
 -393 1170 -393 1170 -440 1149 c 0,11,12
 -454 1143 -454 1143 -465 1159 c 0,13,14
 -475 1172 -475 1172 -475 1187 c 0,15,16
 -475 1197 -475 1197 -466 1201 c 2,17,-1
 -426 1222 l 1,18,19
 -407 1227 -407 1227 -361 1227 c 0,20,21
 -279 1227 -279 1227 -191 1104 c 0,22,23
 -175 1082 -175 1082 -117 987 c 0,24,25
 -56 887 -56 887 -56 880 c 1,0,-1
EndSplineSet
EndChar

StartChar: uni0AC8
Encoding: 2760 2760 115
Width: 0
GlyphClass: 4
Flags: W
AnchorPoint: "Anchor-3" 0 968 basemark 0
AnchorPoint: "Anchor-0" -66 704 mark 0
LayerCount: 2
Fore
SplineSet
-55 895 m 0,0,1
 -49 881 -49 881 -64.5 870 c 128,-1,2
 -80 859 -80 859 -94 859 c 0,3,4
 -104 859 -104 859 -107 866 c 0,5,6
 -167 1018 -167 1018 -211 1085 c 0,7,8
 -279 1186 -279 1186 -372 1215 c 0,9,10
 -396 1222 -396 1222 -440 1208 c 0,11,12
 -453 1203 -453 1203 -464 1218 c 128,-1,13
 -475 1233 -475 1233 -475 1247 c 0,14,15
 -475 1258 -475 1258 -466 1260 c 0,16,17
 -391 1279 -391 1279 -340 1263 c 0,18,19
 -189 1214 -189 1214 -55 895 c 0,0,1
-153 862 m 0,20,21
 -149 858 -149 858 -149 849 c 1,22,-1
 -149 849 l 1,23,24
 -149 833 -149 833 -162 818 c 128,-1,25
 -175 803 -175 803 -188 815 c 0,26,27
 -316 934 -316 934 -348 957 c 0,28,29
 -434 1021 -434 1021 -510 1021 c 0,30,31
 -542 1021 -542 1021 -589 1001 c 0,32,33
 -603 995 -603 995 -613.5 1009.5 c 128,-1,34
 -624 1024 -624 1024 -624 1038 c 0,35,36
 -624 1048 -624 1048 -615 1053 c 2,37,-1
 -575 1073 l 1,38,39
 -556 1079 -556 1079 -510 1079 c 0,40,41
 -429 1079 -429 1079 -330 1009 c 0,42,43
 -287 979 -287 979 -153 862 c 0,20,21
EndSplineSet
EndChar

StartChar: uni0AC9
Encoding: 2761 2761 116
Width: 371
GlyphClass: 4
Flags: W
AnchorPoint: "Anchor-3" 55 957 basemark 0
LayerCount: 2
Fore
SplineSet
279 88 m 0,0,1
 215 -20 215 -20 153 -20 c 0,2,3
 84 -20 84 -20 42 16.5 c 128,-1,4
 0 53 0 53 0 122 c 2,5,-1
 0 788 l 2,6,7
 0 805 0 805 29 805 c 256,8,9
 58 805 58 805 58 788 c 2,10,-1
 58 122 l 2,11,12
 58 38 58 38 153 38 c 0,13,14
 180 38 180 38 226 111 c 1,15,16
 232 117 232 117 242 117 c 1,17,-1
 242 117 l 1,18,19
 255 117 255 117 269 110 c 0,20,21
 287 100 287 100 279 88 c 0,0,1
-351 1187 m 1,22,-1
 -351 1187 l 1,23,24
 -351 1200 -351 1200 -327 1203 c 256,25,26
 -303 1206 -303 1206 -294 1190 c 0,27,28
 -200 1012 -200 1012 -190 998 c 0,29,30
 -122 898 -122 898 -47 898 c 0,31,32
 -14 898 -14 898 33 918 c 0,33,34
 47 924 47 924 57.5 909.5 c 128,-1,35
 68 895 68 895 68 880 c 0,36,37
 68 870 68 870 59 866 c 2,38,-1
 19 846 l 1,39,40
 0 840 0 840 -47 840 c 0,41,42
 -128 840 -128 840 -216 963 c 0,43,44
 -231 984 -231 984 -291 1082.5 c 128,-1,45
 -351 1181 -351 1181 -351 1187 c 1,22,-1
EndSplineSet
EndChar

StartChar: uni0ACB
Encoding: 2763 2763 117
Width: 371
GlyphClass: 4
Flags: W
AnchorPoint: "Anchor-3" 55 957 basemark 0
LayerCount: 2
Fore
SplineSet
279 88 m 0,0,1
 215 -20 215 -20 153 -20 c 0,2,3
 84 -20 84 -20 42 16.5 c 128,-1,4
 0 53 0 53 0 122 c 2,5,-1
 0 788 l 2,6,7
 0 805 0 805 29 805 c 256,8,9
 58 805 58 805 58 788 c 2,10,-1
 58 122 l 2,11,12
 58 38 58 38 153 38 c 0,13,14
 180 38 180 38 226 111 c 1,15,16
 232 117 232 117 242 117 c 1,17,-1
 242 117 l 1,18,19
 255 117 255 117 269 110 c 0,20,21
 287 100 287 100 279 88 c 0,0,1
32 856 m 1,22,-1
 32 856 l 1,23,24
 32 843 32 843 8 840 c 256,25,26
 -16 837 -16 837 -25 853 c 0,27,28
 -119 1031 -119 1031 -129 1045 c 0,29,30
 -197 1145 -197 1145 -272 1145 c 0,31,32
 -305 1145 -305 1145 -352 1125 c 0,33,34
 -366 1119 -366 1119 -377 1135 c 0,35,36
 -387 1148 -387 1148 -387 1163 c 0,37,38
 -387 1173 -387 1173 -378 1177 c 2,39,-1
 -338 1197 l 1,40,41
 -319 1203 -319 1203 -272 1203 c 0,42,43
 -191 1203 -191 1203 -103 1080 c 0,44,45
 -87 1058 -87 1058 -29 963 c 0,46,47
 32 863 32 863 32 856 c 1,22,-1
EndSplineSet
EndChar

StartChar: uni0ACC
Encoding: 2764 2764 118
Width: 371
GlyphClass: 4
Flags: W
AnchorPoint: "Anchor-3" 33 979 basemark 0
LayerCount: 2
Fore
SplineSet
279 88 m 0,0,1
 215 -20 215 -20 153 -20 c 0,2,3
 84 -20 84 -20 42 16.5 c 128,-1,4
 0 53 0 53 0 122 c 2,5,-1
 0 788 l 2,6,7
 0 805 0 805 29 805 c 256,8,9
 58 805 58 805 58 788 c 2,10,-1
 58 122 l 2,11,12
 58 38 58 38 153 38 c 0,13,14
 180 38 180 38 226 111 c 1,15,16
 232 117 232 117 242 117 c 1,17,-1
 242 117 l 1,18,19
 255 117 255 117 269 110 c 0,20,21
 287 100 287 100 279 88 c 0,0,1
39 901 m 0,22,23
 45 887 45 887 29.5 875.5 c 128,-1,24
 14 864 14 864 0 864 c 0,25,26
 -10 864 -10 864 -13 872 c 0,27,28
 -74 1024 -74 1024 -117 1090 c 0,29,30
 -185 1192 -185 1192 -278 1221 c 0,31,32
 -302 1228 -302 1228 -346 1213 c 0,33,34
 -359 1209 -359 1209 -370 1224 c 128,-1,35
 -381 1239 -381 1239 -381 1253 c 0,36,37
 -381 1263 -381 1263 -372 1266 c 0,38,39
 -298 1285 -298 1285 -246 1268 c 0,40,41
 -95 1220 -95 1220 39 901 c 0,22,23
-254 963 m 1,42,43
 -340 1027 -340 1027 -416 1027 c 0,44,45
 -448 1027 -448 1027 -495 1006 c 1,46,47
 -509 1001 -509 1001 -519.5 1015.5 c 128,-1,48
 -530 1030 -530 1030 -530 1044 c 0,49,50
 -530 1054 -530 1054 -521 1058 c 2,51,-1
 -481 1079 l 1,52,53
 -462 1085 -462 1085 -416 1085 c 0,54,55
 -335 1085 -335 1085 -236 1015 c 0,56,57
 -194 985 -194 985 -60 867 c 1,58,59
 -55 864 -55 864 -55 854 c 1,60,-1
 -55 854 l 1,61,62
 -55 844 -55 844 -82 820 c 1,63,-1
 -254 963 l 1,42,43
EndSplineSet
EndChar

StartChar: uni0ACD
Encoding: 2765 2765 119
Width: 0
GlyphClass: 4
Flags: W
LayerCount: 2
Fore
SplineSet
-71 -356 m 1,0,-1
 -71 -356 l 1,1,2
 -71 -371 -71 -371 -91 -381 c 0,3,4
 -113 -391 -113 -391 -122 -379 c 0,5,6
 -322 -96 -322 -96 -418 -96 c 0,7,8
 -479 -96 -479 -96 -568 -130 c 0,9,10
 -580 -135 -580 -135 -589 -120 c 128,-1,11
 -598 -105 -598 -105 -598 -93 c 256,12,13
 -598 -81 -598 -81 -591 -78 c 0,14,15
 -495 -38 -495 -38 -418 -38 c 0,16,17
 -358 -38 -358 -38 -237 -158 c 0,18,19
 -210 -185 -210 -185 -146 -258 c 0,20,21
 -71 -343 -71 -343 -71 -356 c 1,0,-1
EndSplineSet
EndChar

StartChar: uni0AD0
Encoding: 2768 2768 120
Width: 1228
GlyphClass: 2
Flags: W
LayerCount: 2
Fore
SplineSet
408 456 m 1,0,1
 362 421 362 421 261 387 c 0,2,3
 248 382 248 382 241 398 c 1,4,5
 235 409 235 409 235 423 c 0,6,7
 235 438 235 438 243 442 c 0,8,9
 373 499 373 499 382 505 c 0,10,11
 469 560 469 560 469 637 c 0,12,13
 469 696 469 696 420.5 736 c 128,-1,14
 372 776 372 776 313 776 c 0,15,16
 278 776 278 776 227 749 c 0,17,18
 169 717 169 717 146 712 c 0,19,20
 133 710 133 710 120 723.5 c 128,-1,21
 107 737 107 737 107 750 c 0,22,23
 107 759 107 759 114 762 c 0,24,25
 251 834 251 834 313 834 c 0,26,27
 398 834 398 834 461 779 c 0,28,29
 527 721 527 721 527 637 c 0,30,31
 527 560 527 560 456 492 c 1,32,33
 458 489 458 489 527 476 c 1,34,35
 578 476 578 476 624 517 c 1,36,-1
 694 591 l 2,37,38
 763 664 763 664 794 686 c 0,39,40
 850 727 850 727 918 727 c 0,41,42
 1021 727 1021 727 1083 646 c 1,43,44
 1141 572 1141 572 1141 466 c 0,45,46
 1141 349 1141 349 1068 262 c 0,47,48
 990 170 990 170 875 171 c 0,49,50
 710 172 710 172 623 359 c 0,51,52
 614 378 614 378 650 378 c 0,53,54
 675 378 675 378 681 365 c 0,55,56
 713 293 713 293 754 263 c 0,57,58
 800 229 800 229 875 229 c 0,59,60
 967 229 967 229 1027 303 c 0,61,62
 1083 372 1083 372 1083 466 c 0,63,64
 1083 546 1083 546 1041 604 c 0,65,66
 995 669 995 669 918 669 c 0,67,68
 865 669 865 669 818 633 c 0,69,70
 799 618 799 618 657 463 c 1,71,72
 605 417 605 417 546 417 c 0,73,74
 530 417 530 417 513 420 c 1,75,76
 571 332 571 332 571 246 c 0,77,78
 571 148 571 148 506.5 78.5 c 128,-1,79
 442 9 442 9 345 9 c 0,80,81
 210 9 210 9 109 158 c 0,82,83
 39 261 39 261 6 388 c 0,84,85
 0 411 0 411 41 411 c 0,86,87
 59 411 59 411 64 400 c 0,88,89
 90 330 90 330 135 220 c 0,90,91
 197 67 197 67 345 67 c 0,92,93
 419 67 419 67 466 119 c 128,-1,94
 513 171 513 171 513 246 c 0,95,96
 513 352 513 352 408 456 c 1,0,1
782 1082 m 0,97,98
 782 1054 782 1054 760.5 1033 c 128,-1,99
 739 1012 739 1012 711 1012 c 256,100,101
 683 1012 683 1012 661.5 1033 c 128,-1,102
 640 1054 640 1054 640 1082 c 0,103,104
 640 1111 640 1111 661 1132 c 128,-1,105
 682 1153 682 1153 711 1153 c 256,106,107
 740 1153 740 1153 761 1132 c 128,-1,108
 782 1111 782 1111 782 1082 c 0,97,98
1047 1037 m 0,109,110
 1033 945 1033 945 909 876 c 0,111,112
 798 814 798 814 698 817 c 0,113,114
 583 820 583 820 485 898 c 0,115,116
 399 967 399 967 390 1032 c 0,117,118
 388 1042 388 1042 401 1051 c 128,-1,119
 414 1060 414 1060 424 1060 c 0,120,121
 431 1060 431 1060 433 1056 c 0,122,123
 507 863 507 863 698 866 c 0,124,125
 867 869 867 869 992 1048 c 0,126,127
 995 1054 995 1054 1008 1054 c 0,128,129
 1049 1054 1049 1054 1047 1037 c 0,109,110
EndSplineSet
EndChar

StartChar: uni0AE0
Encoding: 2784 2784 121
Width: 1112
GlyphClass: 2
Flags: W
AnchorPoint: "Anchor-4" 539 759 basechar 0
LayerCount: 2
Fore
SplineSet
481 385 m 1,0,1
 475 391 475 391 439 435 c 0,2,3
 416 463 416 463 389 479 c 0,4,5
 301 533 301 533 243 531 c 0,6,7
 200 530 200 530 165 511 c 0,8,9
 148 502 148 502 101 465 c 0,10,11
 98 463 98 463 95 463 c 0,12,13
 85 463 85 463 77 477.5 c 128,-1,14
 69 492 69 492 69 502 c 0,15,16
 69 511 69 511 74 514 c 0,17,18
 98 529 98 529 146 562 c 1,19,20
 194 588 194 588 243 589 c 0,21,22
 311 591 311 591 404 534 c 0,23,24
 433 517 433 517 456 488 c 0,25,26
 496 439 496 439 498 437 c 1,27,-1
 498 332 l 1,28,29
 454 300 454 300 367 221 c 0,30,31
 260 124 260 124 195 71 c 0,32,33
 192 68 192 68 190 68 c 0,34,35
 180 68 180 68 171.5 83 c 128,-1,36
 163 98 163 98 163 109 c 0,37,38
 163 116 163 116 167 120 c 0,39,40
 280 240 280 240 481 385 c 1,0,1
748 455 m 1,41,42
 863 512 863 512 863 597 c 0,43,44
 863 625 863 625 835 642 c 0,45,46
 811 657 811 657 781 657 c 0,47,48
 742 657 742 657 715 627.5 c 128,-1,49
 688 598 688 598 688 558 c 0,50,51
 688 507 688 507 748 455 c 1,41,42
538 405 m 1,52,53
 605 401 605 401 700 436 c 1,54,55
 632 495 632 495 632 558 c 256,56,57
 632 621 632 621 675.5 664.5 c 128,-1,58
 719 708 719 708 781 708 c 0,59,60
 834 708 834 708 874 680 c 0,61,62
 918 648 918 648 918 597 c 0,63,64
 918 493 918 493 794 423 c 1,65,66
 857 383 857 383 874 375 c 0,67,68
 905 360 905 360 936 361 c 0,69,70
 947 362 947 362 955.5 347 c 128,-1,71
 964 332 964 332 964 320 c 0,72,73
 964 309 964 309 955 313 c 0,74,75
 935 322 935 322 895 315 c 0,76,77
 799 299 799 299 799 167 c 0,78,79
 799 123 799 123 838 92.5 c 128,-1,80
 877 62 877 62 922 64 c 0,81,82
 935 65 935 65 970 86 c 128,-1,83
 1005 107 1005 107 1014 107 c 1,84,-1
 1014 107 l 1,85,86
 1028 107 1028 107 1041 92 c 128,-1,87
 1054 77 1054 77 1043 67 c 0,88,89
 994 17 994 17 925 13 c 0,90,91
 857 9 857 9 800 54.5 c 128,-1,92
 743 100 743 100 743 167 c 0,93,94
 743 291 743 291 835 343 c 1,95,96
 809 354 809 354 787 371 c 0,97,98
 751 399 751 399 748 401 c 1,99,100
 642 354 642 354 538 354 c 1,101,-1
 538 405 l 1,52,53
536 415 m 0,102,-1
698 117 m 0,103,104
 694 64 694 64 664.5 31.5 c 128,-1,105
 635 -1 635 -1 593 -1 c 0,106,107
 491 -1 491 -1 491 122 c 2,108,-1
 491 788 l 2,109,110
 491 805 491 805 520 805 c 256,111,112
 549 805 549 805 549 788 c 2,113,-1
 549 122 l 2,114,115
 549 51 549 51 586 51 c 0,116,117
 593 51 593 51 601 52 c 0,118,119
 628 57 628 57 638 103 c 0,120,121
 647 146 647 146 661 146 c 1,122,-1
 661 146 l 1,123,124
 674 146 674 146 690 138 c 0,125,126
 700 132 700 132 698 117 c 0,103,104
EndSplineSet
EndChar

StartChar: uni0AE1
Encoding: 2785 2785 122
Width: 1008
GlyphClass: 2
Flags: W
AnchorPoint: "Anchor-4" 737 781 basechar 0
LayerCount: 2
Fore
SplineSet
733 530 m 1,0,-1
 675 557 l 1,1,-1
 675 799 l 2,2,3
 675 817 675 817 704 817 c 256,4,5
 733 817 733 817 733 799 c 2,6,-1
 733 530 l 1,0,-1
859 330 m 0,7,8
 859 312 859 312 846 308 c 2,9,-1
 801 293 l 2,10,11
 765 281 765 281 727 255 c 0,12,13
 685 227 685 227 667 219 c 0,14,15
 617 198 617 198 617 158 c 0,16,17
 617 55 617 55 720 55 c 0,18,19
 765 55 765 55 792 76 c 0,20,21
 807 88 807 88 820 88 c 0,22,23
 849 88 849 88 849 50 c 0,24,25
 849 22 849 22 829 27 c 1,26,27
 782 8 782 8 731 8 c 0,28,29
 659 8 659 8 612 44 c 0,30,31
 559 85 559 85 559 158 c 0,32,33
 559 209 559 209 625 249 c 1,34,35
 631 260 631 260 694 297 c 1,36,37
 795 346 795 346 830 360 c 0,38,39
 841 365 841 365 850 353 c 128,-1,40
 859 341 859 341 859 330 c 0,7,8
857 330 m 1,41,-1
 799 330 l 1,42,43
 799 404 799 404 745.5 454.5 c 128,-1,44
 692 505 692 505 618 505 c 0,45,46
 568 505 568 505 514.5 482 c 128,-1,47
 461 459 461 459 427 423 c 1,48,49
 458 372 458 372 458 339 c 0,50,51
 458 303 458 303 446 273 c 0,52,53
 430 233 430 233 401 233 c 0,54,55
 370 233 370 233 348 262 c 1,56,57
 327 288 327 288 327 320 c 0,58,59
 327 378 327 378 361 427 c 1,60,61
 306 504 306 504 239 504 c 0,62,63
 165 504 165 504 121 462 c 128,-1,64
 77 420 77 420 77 346 c 0,65,66
 77 317 77 317 136 187 c 0,67,68
 192 64 192 64 216 35 c 0,69,70
 219 32 219 32 219 28 c 0,71,72
 219 17 219 17 204.5 7 c 128,-1,73
 190 -3 190 -3 180 -3 c 0,74,75
 171 -3 171 -3 167 3 c 0,76,77
 136 42 136 42 80 169 c 0,78,79
 19 306 19 306 19 346 c 0,80,81
 19 448 19 448 78 505 c 128,-1,82
 137 562 137 562 239 562 c 0,83,84
 321 562 321 562 395 469 c 1,85,86
 436 509 436 509 499.5 536 c 128,-1,87
 563 563 563 563 618 563 c 0,88,89
 714 563 714 563 785.5 494.5 c 128,-1,90
 857 426 857 426 857 330 c 1,41,-1
400 336 m 0,91,92
 399 354 399 354 392 366 c 1,93,94
 385 342 385 342 385 320 c 0,95,96
 385 290 385 290 395 275 c 1,97,98
 401 286 401 286 400 336 c 0,91,92
818 -190 m 0,99,100
 745 -190 745 -190 704.5 -147 c 128,-1,101
 664 -104 664 -104 664 -37 c 0,102,103
 664 5 664 5 709 37 c 0,104,105
 726 48 726 48 785 77 c 0,106,107
 791 79 791 79 795 79 c 0,108,109
 813 79 813 79 813 47 c 0,110,111
 813 35 813 35 803 30 c 0,112,113
 776 17 776 17 744 4 c 1,114,115
 715 -13 715 -13 715 -37 c 0,116,117
 715 -79 715 -79 740 -107 c 0,118,119
 768 -139 768 -139 818 -139 c 0,120,121
 844 -139 844 -139 876 -118 c 0,122,123
 903 -100 903 -100 929 -82 c 1,124,125
 943 -82 943 -82 954.5 -94 c 128,-1,126
 966 -106 966 -106 957 -119 c 0,127,128
 907 -190 907 -190 818 -190 c 0,99,100
EndSplineSet
EndChar

StartChar: uni0AE2
Encoding: 2786 2786 123
Width: 0
GlyphClass: 4
Flags: W
AnchorPoint: "Anchor-8" -264 -352 basemark 0
AnchorPoint: "Anchor-6" -451 -22 mark 0
LayerCount: 2
Fore
SplineSet
-469 -160 m 1,0,1
 -474 -177 -474 -177 -474 -192 c 0,2,3
 -474 -213 -474 -213 -467 -224 c 1,4,5
 -463 -216 -463 -216 -464 -181 c 0,6,7
 -464 -168 -464 -168 -469 -160 c 1,0,1
-184 -185 m 1,8,9
 -184 -134 -184 -134 -221.5 -98 c 128,-1,10
 -259 -62 -259 -62 -311 -62 c 0,11,12
 -391 -62 -391 -62 -445 -120 c 1,13,14
 -423 -156 -423 -156 -423 -179 c 0,15,16
 -423 -253 -423 -253 -463 -253 c 0,17,18
 -484 -253 -484 -253 -499 -233.5 c 128,-1,19
 -514 -214 -514 -214 -514 -192 c 0,20,21
 -514 -152 -514 -152 -491 -117 c 1,22,23
 -530 -63 -530 -63 -576 -63 c 0,24,25
 -628 -63 -628 -63 -659 -92.5 c 128,-1,26
 -690 -122 -690 -122 -690 -174 c 0,27,28
 -690 -195 -690 -195 -648 -285 c 1,29,30
 -609 -371 -609 -371 -593 -392 c 1,31,32
 -590 -394 -590 -394 -590 -397 c 0,33,34
 -590 -404 -590 -404 -600 -411 c 128,-1,35
 -610 -418 -610 -418 -618 -418 c 0,36,37
 -624 -418 -624 -418 -627 -414 c 0,38,39
 -648 -387 -648 -387 -688 -298 c 0,40,41
 -730 -202 -730 -202 -730 -174 c 0,42,43
 -730 -103 -730 -103 -689 -63 c 128,-1,44
 -648 -23 -648 -23 -576 -23 c 0,45,46
 -519 -23 -519 -23 -467 -88 c 1,47,48
 -399 -22 -399 -22 -311 -22 c 0,49,50
 -244 -22 -244 -22 -193.5 -70 c 128,-1,51
 -143 -118 -143 -118 -143 -185 c 1,52,-1
 -184 -185 l 1,8,9
-70 -401 m 0,53,54
 -122 -476 -122 -476 -217 -476 c 0,55,56
 -287 -476 -287 -476 -330 -445 c 0,57,58
 -378 -410 -378 -410 -378 -342 c 0,59,60
 -378 -299 -378 -299 -331 -265 c 0,61,62
 -320 -257 -320 -257 -262 -224 c 0,63,64
 -167 -169 -167 -169 -161 -169 c 0,65,66
 -146 -169 -146 -169 -146 -196 c 0,67,68
 -146 -205 -146 -205 -152 -208 c 2,69,-1
 -186 -228 l 1,70,71
 -265 -272 -265 -272 -301 -290.5 c 128,-1,72
 -337 -309 -337 -309 -337 -342 c 0,73,74
 -337 -435 -337 -435 -217 -435 c 0,75,76
 -181 -435 -181 -435 -152 -413 c 0,77,78
 -138 -403 -138 -403 -98 -373 c 0,79,80
 -95 -371 -95 -371 -92 -371 c 1,81,-1
 -92 -371 l 1,82,83
 -81 -371 -81 -371 -72 -381.5 c 128,-1,84
 -63 -392 -63 -392 -70 -401 c 0,53,54
EndSplineSet
EndChar

StartChar: uni0AE3
Encoding: 2787 2787 124
Width: 0
GlyphClass: 4
Flags: W
AnchorPoint: "Anchor-8" -264 -451 basemark 0
AnchorPoint: "Anchor-6" -418 -33 mark 0
LayerCount: 2
Fore
SplineSet
-105 -191 m 0,0,1
 -105 -204 -105 -204 -113 -207 c 2,2,-1
 -145 -217 l 2,3,4
 -171 -225 -171 -225 -197 -243 c 0,5,6
 -227 -263 -227 -263 -239 -269 c 1,7,8
 -274 -283 -274 -283 -274 -311 c 0,9,10
 -274 -383 -274 -383 -202 -383 c 0,11,12
 -171 -383 -171 -383 -151 -369 c 1,13,14
 -141 -360 -141 -360 -132 -360 c 0,15,16
 -111 -360 -111 -360 -111 -387 c 0,17,18
 -111 -407 -111 -407 -126 -403 c 1,19,20
 -158 -417 -158 -417 -194 -417 c 0,21,22
 -245 -417 -245 -417 -278 -391 c 0,23,24
 -314 -362 -314 -362 -314 -311 c 0,25,26
 -314 -276 -314 -276 -268 -248 c 1,27,28
 -264 -240 -264 -240 -220 -214 c 1,29,30
 -150 -180 -150 -180 -125 -170 c 0,31,32
 -117 -166 -117 -166 -111 -174.5 c 128,-1,33
 -105 -183 -105 -183 -105 -191 c 0,0,1
-106 -191 m 1,34,-1
 -146 -191 l 1,35,36
 -146 -139 -146 -139 -183.5 -103.5 c 128,-1,37
 -221 -68 -221 -68 -273 -68 c 0,38,39
 -354 -68 -354 -68 -407 -126 c 1,40,41
 -386 -161 -386 -161 -386 -185 c 0,42,43
 -386 -259 -386 -259 -425 -259 c 0,44,45
 -447 -259 -447 -259 -462 -239.5 c 128,-1,46
 -477 -220 -477 -220 -477 -198 c 0,47,48
 -477 -157 -477 -157 -454 -123 c 1,49,50
 -492 -69 -492 -69 -539 -69 c 0,51,52
 -591 -69 -591 -69 -621.5 -98.5 c 128,-1,53
 -652 -128 -652 -128 -652 -180 c 0,54,55
 -652 -200 -652 -200 -611 -291 c 1,56,57
 -571 -377 -571 -377 -555 -398 c 0,58,59
 -553 -400 -553 -400 -553 -403 c 0,60,61
 -553 -410 -553 -410 -563 -417 c 128,-1,62
 -573 -424 -573 -424 -580 -424 c 0,63,64
 -586 -424 -586 -424 -589 -420 c 0,65,66
 -610 -393 -610 -393 -650 -303 c 0,67,68
 -693 -208 -693 -208 -693 -180 c 0,69,70
 -693 -109 -693 -109 -651.5 -69 c 128,-1,71
 -610 -29 -610 -29 -539 -29 c 0,72,73
 -481 -29 -481 -29 -429 -93 c 1,74,75
 -361 -28 -361 -28 -273 -28 c 0,76,77
 -206 -28 -206 -28 -156 -76 c 128,-1,78
 -106 -124 -106 -124 -106 -191 c 1,34,-1
-426 -187 m 0,79,80
 -426 -174 -426 -174 -431 -165 c 1,81,82
 -436 -183 -436 -183 -436 -198 c 0,83,84
 -436 -219 -436 -219 -429 -229 c 1,85,86
 -425 -222 -425 -222 -426 -187 c 0,79,80
-134 -555 m 0,87,88
 -184 -555 -184 -555 -212.5 -524.5 c 128,-1,89
 -241 -494 -241 -494 -241 -448 c 0,90,91
 -241 -418 -241 -418 -209 -396 c 0,92,93
 -197 -388 -197 -388 -157 -368 c 0,94,95
 -137 -359 -137 -359 -137 -389 c 0,96,97
 -137 -397 -137 -397 -144 -401 c 0,98,99
 -163 -410 -163 -410 -185 -419 c 1,100,101
 -206 -431 -206 -431 -206 -448 c 0,102,103
 -206 -477 -206 -477 -187 -498 c 128,-1,104
 -168 -519 -168 -519 -134 -519 c 0,105,106
 -115 -519 -115 -519 -93 -505 c 0,107,108
 -74 -492 -74 -492 -56 -479 c 1,109,110
 -46 -479 -46 -479 -38 -487.5 c 128,-1,111
 -30 -496 -30 -496 -36 -505 c 0,112,113
 -71 -555 -71 -555 -134 -555 c 0,87,88
EndSplineSet
EndChar

StartChar: uni0AE6
Encoding: 2790 2790 125
Width: 811
GlyphClass: 2
Flags: W
LayerCount: 2
Fore
SplineSet
679 421 m 0,0,1
 678 272 678 272 588 169 c 0,2,3
 494 60 494 60 348 58 c 0,4,5
 214 56 214 56 115 146.5 c 128,-1,6
 16 237 16 237 16 369 c 0,7,8
 16 523 16 523 112 626.5 c 128,-1,9
 208 730 208 730 361 733 c 0,10,11
 485 735 485 735 582.5 640 c 128,-1,12
 680 545 680 545 679 421 c 0,0,1
621 421 m 1,13,14
 623 523 623 523 543.5 600 c 128,-1,15
 464 677 464 677 362 675 c 0,16,17
 234 672 234 672 154 585 c 128,-1,18
 74 498 74 498 74 369 c 0,19,20
 74 261 74 261 156.5 187.5 c 128,-1,21
 239 114 239 114 348 116 c 0,22,23
 468 118 468 118 546 211 c 0,24,25
 620 298 620 298 621 421 c 1,13,14
EndSplineSet
EndChar

StartChar: uni0AE7
Encoding: 2791 2791 126
Width: 776
GlyphClass: 2
Flags: W
LayerCount: 2
Fore
SplineSet
330 539 m 1,0,-1
 330 704 l 2,1,2
 330 735 330 735 304 755 c 128,-1,3
 278 775 278 775 246 775 c 0,4,5
 174 775 174 775 127 722.5 c 128,-1,6
 80 670 80 670 80 597 c 0,7,8
 80 547 80 547 116.5 513 c 128,-1,9
 153 479 153 479 203 479 c 0,10,11
 251 479 251 479 330 539 c 1,0,-1
330 466 m 1,12,13
 262 421 262 421 203 421 c 0,14,15
 128 421 128 421 75 471.5 c 128,-1,16
 22 522 22 522 22 597 c 0,17,18
 22 693 22 693 86 763 c 128,-1,19
 150 833 150 833 246 833 c 0,20,21
 300 833 300 833 344 796 c 128,-1,22
 388 759 388 759 388 707 c 2,23,-1
 388 143 l 2,24,25
 388 95 388 95 398 77 c 0,26,27
 415 46 415 46 469 46 c 0,28,29
 501 46 501 46 530 74 c 0,30,31
 541 85 541 85 572 127 c 0,32,33
 575 132 575 132 581 132 c 1,34,-1
 581 132 l 1,35,36
 595 132 595 132 609 117.5 c 128,-1,37
 623 103 623 103 615 90 c 0,38,39
 554 -12 554 -12 469 -12 c 0,40,41
 392 -12 392 -12 359 28 c 0,42,43
 330 64 330 64 330 143 c 2,44,-1
 330 466 l 1,12,13
EndSplineSet
EndChar

StartChar: uni0AE8
Encoding: 2792 2792 127
Width: 776
GlyphClass: 2
Flags: W
LayerCount: 2
Fore
SplineSet
182 332 m 1,0,1
 165 374 165 374 138 381 c 0,2,3
 126 384 126 384 113 377.5 c 128,-1,4
 100 371 100 371 100 359 c 1,5,6
 97 332 97 332 182 332 c 1,0,1
229 337 m 1,7,8
 307 352 307 352 354 412 c 1,9,10
 398 470 398 470 398 552 c 0,11,12
 398 650 398 650 336 710 c 128,-1,13
 274 770 274 770 175 770 c 0,14,15
 144 770 144 770 96 753 c 0,16,17
 38 732 38 732 17 730 c 0,18,19
 5 728 5 728 -5.5 741.5 c 128,-1,20
 -16 755 -16 755 -16 767 c 0,21,22
 -16 777 -16 777 -9 782 c 0,23,24
 65 828 65 828 175 828 c 0,25,26
 300 828 300 828 378 752.5 c 128,-1,27
 456 677 456 677 456 552 c 0,28,29
 456 452 456 452 400.5 378 c 128,-1,30
 345 304 345 304 249 281 c 1,31,32
 259 250 259 250 272 214 c 0,33,34
 335 48 335 48 418 48 c 0,35,36
 495 48 495 48 555 83 c 0,37,38
 557 84 557 84 562 84 c 1,39,-1
 562 84 l 1,40,41
 576 84 576 84 586 67 c 0,42,43
 597 49 597 49 586 41 c 0,44,45
 528 -7 528 -7 418 -7 c 0,46,47
 356 -7 356 -7 295 65 c 0,48,49
 249 120 249 120 220 194 c 0,50,51
 210 220 210 220 198 274 c 1,52,53
 163 274 163 274 119 282 c 0,54,55
 45 297 45 297 48 359 c 0,56,57
 49 394 49 394 73.5 412.5 c 128,-1,58
 98 431 98 431 133 429 c 0,59,60
 194 424 194 424 229 337 c 1,7,8
EndSplineSet
EndChar

StartChar: uni0AE9
Encoding: 2793 2793 128
Width: 811
GlyphClass: 2
Flags: W
LayerCount: 2
Fore
SplineSet
559 430 m 1,0,1
 541 421 541 421 475 401 c 0,2,3
 400 378 400 378 340 385 c 0,4,5
 324 387 324 387 324 413 c 0,6,7
 324 444 324 444 343 443 c 0,8,9
 402 440 402 440 458 456 c 0,10,11
 545 482 545 482 584 505 c 0,12,13
 643 541 643 541 646 604 c 0,14,15
 650 685 650 685 576 729 c 0,16,17
 516 765 516 765 429 765 c 0,18,19
 356 765 356 765 300 746 c 0,20,21
 239 725 239 725 178 704 c 0,22,23
 166 699 166 699 157 715 c 0,24,25
 149 728 149 728 149 741 c 0,26,27
 149 755 149 755 158 759 c 0,28,29
 295 822 295 822 429 822 c 0,30,31
 539 822 539 822 620 769 c 0,32,33
 712 708 712 708 704 601 c 0,34,35
 696 507 696 507 604 453 c 1,36,37
 712 320 712 320 712 211 c 0,38,39
 712 109 712 109 636 49 c 0,40,41
 566 -6 566 -6 460 -6 c 0,42,43
 306 -6 306 -6 6 366 c 0,44,45
 3 369 3 369 3 374 c 1,46,-1
 3 374 l 1,47,48
 3 387 3 387 25 397 c 0,49,50
 46 407 46 407 55 395 c 0,51,52
 186 234 186 234 266 158 c 0,53,54
 378 52 378 52 460 52 c 0,55,56
 540 52 540 52 594 91 c 0,57,58
 654 135 654 135 654 211 c 0,59,60
 654 314 654 314 559 430 c 1,0,1
EndSplineSet
EndChar

StartChar: uni0AEA
Encoding: 2794 2794 129
Width: 846
GlyphClass: 2
Flags: W
LayerCount: 2
Fore
SplineSet
418 458 m 1,0,1
 268 304 268 304 268 178 c 0,2,3
 268 116 268 116 306 74 c 0,4,5
 346 29 346 29 407 33 c 0,6,7
 468 38 468 38 507 85.5 c 128,-1,8
 546 133 546 133 546 195 c 0,9,10
 546 313 546 313 418 458 c 1,0,1
381 497 m 1,11,12
 317 560 317 560 224 639 c 0,13,14
 222 640 222 640 25 792 c 0,15,16
 19 797 19 797 19 804 c 1,17,-1
 19 804 l 1,18,19
 19 817 19 817 33.5 831.5 c 128,-1,20
 48 846 48 846 59 838 c 0,21,22
 131 792 131 792 262 682 c 0,23,24
 356 603 356 603 420 537 c 1,25,-1
 572 681 l 2,26,27
 612 718 612 718 670 762 c 1,28,-1
 760 828 l 1,29,30
 774 828 774 828 784.5 808.5 c 128,-1,31
 795 789 795 789 786 779 c 0,32,33
 760 748 760 748 702 707 c 0,34,35
 634 660 634 660 613 640 c 2,36,-1
 458 497 l 1,37,38
 604 333 604 333 604 195 c 0,39,40
 604 110 604 110 549 45.5 c 128,-1,41
 494 -19 494 -19 410 -25 c 0,42,43
 321 -31 321 -31 264 30 c 0,44,45
 210 88 210 88 210 178 c 0,46,47
 210 320 210 320 381 497 c 1,11,12
EndSplineSet
EndChar

StartChar: uni0AEB
Encoding: 2795 2795 130
Width: 811
GlyphClass: 2
Flags: W
LayerCount: 2
Fore
SplineSet
502 307 m 1,0,1
 405 239 405 239 307 239 c 0,2,3
 231 239 231 239 182 298 c 0,4,5
 136 354 136 354 136 432 c 2,6,-1
 136 688 l 2,7,8
 136 737 136 737 75 730 c 0,9,10
 66 729 66 729 43.5 707.5 c 128,-1,11
 21 686 21 686 16 686 c 0,12,13
 4 686 4 686 -9 695 c 128,-1,14
 -22 704 -22 704 -22 715 c 0,15,16
 -22 720 -22 720 -19 724 c 0,17,18
 17 763 17 763 19 766 c 0,19,20
 40 785 40 785 68 788 c 0,21,22
 119 793 119 793 156.5 765 c 128,-1,23
 194 737 194 737 194 686 c 2,24,-1
 194 432 l 2,25,26
 194 377 194 377 223 339 c 0,27,28
 255 297 255 297 307 297 c 0,29,30
 413 297 413 297 502 379 c 1,31,-1
 504 801 l 2,32,33
 504 818 504 818 533 818 c 256,34,35
 562 818 562 818 562 801 c 2,36,-1
 560 127 l 2,37,38
 560 41 560 41 608 41 c 0,39,40
 639 41 639 41 662 65 c 1,41,42
 671 78 671 78 692 111 c 0,43,44
 697 119 697 119 708 119 c 0,45,46
 720 119 720 119 734 109.5 c 128,-1,47
 748 100 748 100 744 88 c 0,48,49
 713 -17 713 -17 608 -17 c 0,50,51
 558 -17 558 -17 528 32 c 0,52,53
 502 74 502 74 502 127 c 2,54,-1
 502 307 l 1,0,1
EndSplineSet
EndChar

StartChar: uni0AEC
Encoding: 2796 2796 131
Width: 672
GlyphClass: 2
Flags: W
LayerCount: 2
Fore
SplineSet
214 -4 m 1,0,1
 189 0 189 0 189 28 c 0,2,3
 189 50 189 50 209 47 c 0,4,5
 294 30 294 30 356 30 c 0,6,7
 465 30 465 30 475 83 c 0,8,9
 480 112 480 112 451 145 c 0,10,11
 418 182 418 182 366 185 c 0,12,13
 306 189 306 189 235 219 c 0,14,15
 120 268 120 268 112 355 c 0,16,17
 106 417 106 417 185 482 c 1,18,19
 113 501 113 501 66 549 c 128,-1,20
 19 597 19 597 19 648 c 0,21,22
 19 734 19 734 161 771 c 0,23,24
 255 796 255 796 367 792 c 1,25,26
 397 786 397 786 397 755 c 0,27,28
 397 730 397 730 373 733 c 1,29,30
 282 732 282 732 200 714 c 1,31,32
 81 686 81 686 86 633 c 0,33,34
 94 550 94 550 228 525 c 0,35,36
 237 523 237 523 382 511 c 1,37,38
 391 513 391 513 398.5 502 c 128,-1,39
 406 491 406 491 406 478 c 0,40,41
 406 457 406 457 387 458 c 1,42,43
 182 456 182 456 177 365 c 0,44,45
 174 305 174 305 264 266 c 0,46,47
 307 248 307 248 407 225 c 0,48,49
 525 198 525 198 532 76 c 0,50,51
 534 24 534 24 478 -3 c 0,52,53
 430 -26 430 -26 352 -26 c 0,54,55
 273 -26 273 -26 214 -4 c 1,0,1
EndSplineSet
EndChar

StartChar: uni0AED
Encoding: 2797 2797 132
Width: 811
GlyphClass: 2
Flags: W
LayerCount: 2
Fore
SplineSet
652 440 m 0,0,1
 652 277 652 277 576 151 c 0,2,3
 488 3 488 3 333 3 c 0,4,5
 219 3 219 3 103 134 c 0,6,7
 -2 252 -2 252 -21 360 c 0,8,9
 -25 380 -25 380 8 385 c 0,10,11
 24 388 24 388 28 374 c 0,12,13
 60 262 60 262 145 166 c 1,14,15
 240 61 240 61 333 61 c 0,16,17
 462 61 462 61 534 193 c 0,18,19
 594 301 594 301 594 440 c 0,20,21
 594 570 594 570 551 651 c 0,22,23
 494 758 494 758 375 750 c 0,24,25
 310 746 310 746 264 707 c 0,26,27
 214 665 214 665 214 602 c 0,28,29
 214 537 214 537 249 490 c 1,30,31
 286 437 286 437 349 434 c 1,32,33
 392 433 392 433 432 462 c 0,34,35
 449 475 449 475 494 524 c 1,36,37
 497 529 497 529 502 529 c 1,38,-1
 502 529 l 1,39,40
 516 529 516 529 531 513.5 c 128,-1,41
 546 498 546 498 537 487 c 0,42,43
 446 373 446 373 346 376 c 0,44,45
 259 379 259 379 205 449 c 0,46,47
 156 512 156 512 156 602 c 0,48,49
 156 688 156 688 222 747 c 0,50,51
 285 803 285 803 372 808 c 0,52,53
 516 817 516 817 591 694 c 0,54,55
 652 593 652 593 652 440 c 0,0,1
EndSplineSet
EndChar

StartChar: uni0AEE
Encoding: 2798 2798 133
Width: 811
GlyphClass: 2
Flags: W
LayerCount: 2
Fore
SplineSet
556 75 m 0,0,1
 465 21 465 21 434 9 c 0,2,3
 384 -12 384 -12 295 -12 c 0,4,5
 176 -12 176 -12 104 40 c 0,6,7
 22 100 22 100 23 214 c 0,8,9
 25 334 25 334 191 514 c 0,10,11
 318 651 318 651 510 794 c 0,12,13
 514 796 514 796 520 796 c 1,14,-1
 520 796 l 1,15,16
 533 796 533 796 551 784 c 128,-1,17
 569 772 569 772 556 762 c 0,18,19
 404 643 404 643 258 479 c 1,20,21
 91 294 91 294 88 209 c 0,22,23
 83 55 83 55 262 52 c 0,24,25
 329 51 329 51 401 71 c 0,26,27
 481 93 481 93 527 130 c 0,28,29
 530 133 530 133 533 133 c 1,30,-1
 533 133 l 1,31,32
 546 133 546 133 557 107 c 0,33,34
 568 82 568 82 556 75 c 0,0,1
EndSplineSet
EndChar

StartChar: uni0AEF
Encoding: 2799 2799 134
Width: 811
GlyphClass: 2
Flags: W
LayerCount: 2
Fore
SplineSet
741 576 m 0,0,1
 636 500 636 500 391 350 c 0,2,3
 385 346 385 346 371.5 365.5 c 128,-1,4
 358 385 358 385 358 394 c 0,5,6
 358 398 358 398 361 400 c 2,7,-1
 515 492 l 2,8,9
 596 540 596 540 692 620 c 0,10,11
 697 624 697 624 704 624 c 1,12,-1
 704 624 l 1,13,14
 721 624 721 624 739.5 606 c 128,-1,15
 758 588 758 588 741 576 c 0,0,1
717 85 m 0,16,17
 562 -12 562 -12 427 -12 c 0,18,19
 267 -12 267 -12 152 75 c 0,20,21
 25 171 25 171 25 326 c 0,22,23
 25 588 25 588 320 821 c 0,24,25
 324 824 324 824 329 824 c 1,26,-1
 329 824 l 1,27,28
 345 824 345 824 360 807 c 128,-1,29
 375 790 375 790 361 778 c 0,30,31
 233 673 233 673 171 586 c 0,32,33
 83 463 83 463 83 326 c 0,34,35
 83 197 83 197 194 117 c 0,36,37
 293 46 293 46 427 46 c 0,38,39
 572 46 572 46 685 132 c 0,40,41
 688 135 688 135 692 135 c 1,42,-1
 692 135 l 1,43,44
 705 135 705 135 717 113 c 0,45,46
 728 92 728 92 717 85 c 0,16,17
EndSplineSet
EndChar

StartChar: uni0AF1
Encoding: 2801 2801 135
Width: 904
GlyphClass: 2
Flags: W
LayerCount: 2
Fore
SplineSet
846 188 m 0,0,1
 846 81 846 81 783 81 c 1,2,3
 783 18 783 18 676 18 c 0,4,5
 568 18 568 18 568 81 c 1,6,7
 505 81 505 81 505 188 c 0,8,9
 505 298 505 298 568 298 c 1,10,11
 568 360 568 360 676 360 c 0,12,13
 783 360 783 360 783 298 c 1,14,15
 846 298 846 298 846 188 c 0,0,1
-1248 1448 m 1,16,-1
 -1245 1448 l 1,17,-1
 -1248 1448 l 1,16,-1
794 189 m 0,18,19
 794 264 794 264 751 264 c 1,20,21
 751 308 751 308 676 308 c 256,22,23
 601 308 601 308 601 264 c 1,24,25
 557 264 557 264 557 189 c 0,26,27
 557 113 557 113 601 113 c 1,28,29
 601 70 601 70 676 70 c 256,30,31
 751 70 751 70 751 113 c 1,32,33
 794 113 794 113 794 189 c 0,18,19
453 5 m 0,34,35
 402 -17 402 -17 371 -18 c 0,36,37
 261 -23 261 -23 166 169 c 1,38,39
 20 175 20 175 20 243 c 0,40,41
 20 312 20 312 99 314 c 0,42,43
 122 315 122 315 155 282 c 0,44,45
 182 254 182 254 199 224 c 1,46,47
 255 234 255 234 297 261 c 1,48,49
 350 297 350 297 350 347 c 0,50,51
 350 410 350 410 289 484 c 1,52,53
 241 460 241 460 168 460 c 0,54,55
 153 460 153 460 153 481 c 0,56,57
 153 518 153 518 177 515 c 0,58,59
 222 510 222 510 262 532 c 0,60,61
 332 570 332 570 332 633 c 0,62,63
 332 689 332 689 294 722.5 c 128,-1,64
 256 756 256 756 200 756 c 0,65,66
 169 756 169 756 86 717 c 0,67,68
 82 715 82 715 79 715 c 0,69,70
 68 715 68 715 59.5 726.5 c 128,-1,71
 51 738 51 738 51 750 c 0,72,73
 51 761 51 761 59 766 c 0,74,75
 135 810 135 810 200 810 c 0,76,77
 280 810 280 810 332.5 761.5 c 128,-1,78
 385 713 385 713 385 633 c 0,79,80
 385 561 385 561 329 511 c 1,81,82
 404 432 404 432 404 347 c 0,83,84
 404 276 404 276 348 226 c 0,85,86
 297 180 297 180 222 171 c 1,87,88
 292 34 292 34 368 36 c 0,89,90
 383 37 383 37 410 47.5 c 128,-1,91
 437 58 437 58 446 58 c 0,92,93
 464 58 464 58 464 26 c 0,94,95
 464 10 464 10 453 5 c 0,34,35
99 260 m 0,96,97
 69 260 69 260 69 245 c 0,98,99
 69 219 69 219 113 219 c 0,100,101
 123 219 123 219 143 221 c 1,102,103
 121 260 121 260 99 260 c 0,96,97
EndSplineSet
EndChar

StartChar: uni0A95_uni0ACD_uni0AB7.zz01
Encoding: 65539 -1 136
Width: 938
GlyphClass: 3
Flags: W
AnchorPoint: "Anchor-7" 594 0 basechar 0
AnchorPoint: "Anchor-6" 594 0 basechar 0
AnchorPoint: "Anchor-2" 605 759 basechar 0
AnchorPoint: "Anchor-0" 605 759 basechar 0
LayerCount: 2
Fore
SplineSet
342 193 m 1,0,1
 375 204 375 204 375 217 c 0,2,3
 375 245 375 245 352 245 c 0,4,5
 339 245 339 245 333 226 c 0,6,7
 330 217 330 217 342 193 c 1,0,1
195 573 m 1,8,9
 266 624 266 624 279 635 c 0,10,11
 311 664 311 664 311 689 c 0,12,13
 311 731 311 731 282.5 760 c 128,-1,14
 254 789 254 789 211 791 c 1,15,16
 167 792 167 792 137 766 c 1,17,18
 104 739 104 739 104 695 c 0,19,20
 104 636 104 636 194 573 c 1,21,-1
 195 573 l 1,8,9
828 88 m 0,22,23
 764 -20 764 -20 702 -20 c 0,24,25
 633 -20 633 -20 591 16.5 c 128,-1,26
 549 53 549 53 549 122 c 2,27,-1
 549 788 l 2,28,29
 549 805 549 805 578 805 c 256,30,31
 607 805 607 805 607 788 c 2,32,-1
 607 122 l 2,33,34
 607 38 607 38 702 38 c 0,35,36
 728 38 728 38 775 111 c 1,37,38
 781 117 781 117 791 117 c 1,39,-1
 791 117 l 1,40,41
 804 117 804 117 818 110 c 0,42,43
 836 100 836 100 828 88 c 0,22,23
85 1 m 0,45,46
 85 24 85 24 107 29 c 1,47,48
 182 5 182 5 238 5 c 0,49,50
 320 5 320 5 320 62 c 0,51,52
 320 89 320 89 301 129 c 1,53,54
 262 114 262 114 232 114 c 0,55,56
 132 114 132 114 68 166 c 0,57,58
 -1 222 -1 222 -1 320 c 0,59,60
 -1 378 -1 378 51 448 c 0,61,62
 94 505 94 505 145 539 c 1,63,64
 46 614 46 614 46 695 c 0,65,66
 46 763 46 763 94.5 806.5 c 128,-1,67
 143 850 143 850 211 849 c 1,68,69
 278 847 278 847 323.5 801.5 c 128,-1,70
 369 756 369 756 369 689 c 0,71,72
 369 628 369 628 239 539 c 1,73,74
 308 499 308 499 382 502 c 0,75,76
 471 506 471 506 560 572 c 0,77,78
 563 575 563 575 568 575 c 1,79,-1
 568 575 l 1,80,81
 582 575 582 575 592 553 c 0,82,83
 602 533 602 533 592 523 c 0,84,85
 518 449 518 449 385 445 c 0,86,87
 279 441 279 441 188 504 c 1,88,89
 56 411 56 411 56 320 c 0,90,91
 56 249 56 249 110 208 c 0,92,93
 158 172 158 172 232 172 c 0,94,95
 265 172 265 172 288 177 c 1,96,97
 268 203 268 203 275 235 c 0,98,99
 292 305 292 305 353 303 c 0,100,101
 385 301 385 301 404 281 c 128,-1,102
 423 261 423 261 423 233 c 0,103,104
 423 204 423 204 402.5 182.5 c 128,-1,105
 382 161 382 161 353 156 c 1,106,107
 380 95 380 95 380 50 c 0,108,109
 380 -59 380 -59 238 -59 c 0,110,111
 192 -59 192 -59 147 -47 c 0,112,113
 106 -36 106 -36 95.5 -23.5 c 128,-1,44
 85 -11 85 -11 85 1 c 0,45,46
EndSplineSet
Substitution2: "Single Substitution lookup 43 subtable" glyph920
Ligature2: "'akhn' Akhand in Gujarati lookup 0 subtable" uni0A95 uni0ACD uni0AB7
PairPos2: "'dist' Distance in Gujarati lookup 7 subtable" uni0AC0 dx=0 dy=0 dh=0 dv=0 dx=-55 dy=0 dh=0 dv=0
EndChar

StartChar: uni0A9C_uni0ACD_uni0A9E.zz01
Encoding: 65540 -1 137
Width: 938
GlyphClass: 3
Flags: W
AnchorPoint: "Anchor-7" 583 0 basechar 0
AnchorPoint: "Anchor-6" 583 0 basechar 0
AnchorPoint: "Anchor-2" 616 748 basechar 0
AnchorPoint: "Anchor-0" 616 748 basechar 0
LayerCount: 2
Fore
SplineSet
837 103 m 0,0,1
 773 -6 773 -6 711 -6 c 0,2,3
 641 -6 641 -6 601 30 c 1,4,5
 557 68 557 68 557 136 c 2,6,-1
 557 788 l 2,7,8
 557 805 557 805 586 805 c 256,9,10
 615 805 615 805 615 788 c 2,11,-1
 615 136 l 2,12,13
 615 52 615 52 711 52 c 0,14,15
 737 52 737 52 783 126 c 1,16,17
 789 132 789 132 799 132 c 1,18,-1
 799 132 l 1,19,20
 813 132 813 132 828.5 123.5 c 128,-1,21
 844 115 844 115 837 103 c 0,0,1
174 224 m 1,22,23
 175 239 175 239 164.5 258.5 c 128,-1,24
 154 278 154 278 139 278 c 0,25,26
 133 278 133 278 133 252 c 0,27,28
 133 237 133 237 146 229.5 c 128,-1,29
 159 222 159 222 174 224 c 1,22,23
333 691 m 0,30,31
 258 738 258 738 211 738 c 0,32,33
 159 738 159 738 119 704 c 128,-1,34
 79 670 79 670 81 618 c 0,35,36
 85 507 85 507 248 513 c 0,37,38
 327 515 327 515 379 487 c 1,39,40
 443 451 443 451 443 376 c 256,41,42
 443 301 443 301 380 240 c 0,43,44
 321 182 321 182 245 171 c 1,45,46
 291 56 291 56 378 56 c 0,47,48
 419 56 419 56 458 78 c 0,49,50
 468 84 468 84 473.5 70.5 c 128,-1,51
 479 57 479 57 479 45 c 0,52,53
 479 29 479 29 472 23 c 0,54,55
 442 -1 442 -1 378 -1 c 0,56,57
 256 -1 256 -1 193 164 c 1,58,59
 150 161 150 161 115 185 c 1,60,61
 75 211 75 211 75 252 c 0,62,63
 75 282 75 282 93 307.5 c 128,-1,64
 111 333 111 333 140 333 c 0,65,66
 173 333 173 333 199.5 297.5 c 128,-1,67
 226 262 226 262 226 229 c 1,68,69
 283 235 283 235 332 276 c 0,70,71
 385 321 385 321 385 376 c 0,72,73
 385 459 385 459 251 455 c 0,74,75
 157 452 157 452 98 486 c 0,76,77
 25 528 25 528 23 615 c 0,78,79
 21 692 21 692 77.5 744 c 128,-1,80
 134 796 134 796 211 796 c 0,81,82
 286 796 286 796 348 750 c 0,83,84
 402 709 402 709 608 618 c 1,85,-1
 608 557 l 1,86,87
 564 573 564 573 520 593 c 0,88,89
 416 638 416 638 333 691 c 0,30,31
EndSplineSet
Substitution2: "Single Substitution lookup 43 subtable" glyph921
Ligature2: "'akhn' Akhand in Gujarati lookup 0 subtable" uni0A9C uni0ACD uni0A9E
PairPos2: "'dist' Distance in Gujarati lookup 7 subtable" uni0AC0 dx=0 dy=0 dh=0 dv=0 dx=-44 dy=0 dh=0 dv=0
EndChar

StartChar: uni0A95_uni0ACD.zz08
Encoding: 65541 -1 138
Width: 568
GlyphClass: 5
Flags: W
LayerCount: 2
Fore
SplineSet
360 452 m 1,0,1
 451 382 451 382 488 339 c 0,2,3
 543 274 543 274 543 203 c 0,4,5
 543 111 543 111 467 48 c 0,6,7
 395 -12 395 -12 301 -12 c 0,8,9
 212 -12 212 -12 148 12 c 0,10,11
 88 34 88 34 13 90 c 0,12,13
 7 94 7 94 7 103 c 0,14,15
 7 117 7 117 18 133 c 128,-1,16
 29 149 29 149 42 142 c 2,17,-1
 165 75 l 2,18,19
 219 46 219 46 301 46 c 0,20,21
 372 46 372 46 426 88 c 0,22,23
 485 134 485 134 485 203 c 0,24,25
 485 271 485 271 434 332 c 0,26,27
 403 369 403 369 326 427 c 1,28,29
 268 387 268 387 116 303 c 1,30,31
 104 298 104 298 92.5 313 c 128,-1,32
 81 328 81 328 81 340 c 0,33,34
 81 349 81 349 87 352 c 0,35,36
 140 384 140 384 274 465 c 1,37,38
 180 541 180 541 180 621 c 0,39,40
 180 677 180 677 229 727 c 0,41,42
 245 743 245 743 293 781 c 0,43,44
 348 824 348 824 358 824 c 1,45,-1
 358 824 l 1,46,47
 368 824 368 824 376.5 810 c 128,-1,48
 385 796 385 796 385 785 c 0,49,50
 385 778 385 778 381 773 c 0,51,52
 369 760 369 760 291 699 c 0,53,54
 237 658 237 658 237 621 c 0,55,56
 237 569 237 569 312 501 c 1,57,58
 372 533 372 533 545 533 c 0,59,60
 606 533 606 533 664 529 c 1,61,-1
 660 473 l 1,62,63
 646 473 646 473 587 476 c 0,64,65
 536 478 536 478 505 478 c 0,66,67
 393 478 393 478 360 452 c 1,0,1
EndSplineSet
Ligature2: "'half' Half Forms in Gujarati lookup 7 subtable" uni0A95 uni0ACD
EndChar

StartChar: uni0A96_uni0ACD.zz08
Encoding: 65542 -1 139
Width: 741
GlyphClass: 5
Flags: W
LayerCount: 2
Fore
SplineSet
547 518 m 1,0,1
 547 522 547 522 550 529.5 c 128,-1,2
 553 537 553 537 553 540 c 0,3,4
 553 584 553 584 537 582 c 1,5,6
 515 582 515 582 515 565 c 0,7,8
 515 536 515 536 547 518 c 1,0,1
776 529 m 1,9,-1
 776 468 l 1,10,11
 702 440 702 440 675 440 c 0,12,13
 628 440 628 440 595 447 c 1,14,15
 575 354 575 354 518 293 c 0,16,17
 454 224 454 224 365 224 c 0,18,19
 287 224 287 224 235 263 c 0,20,21
 177 306 177 306 177 382 c 2,22,-1
 177 741 l 2,23,24
 177 788 177 788 120 785 c 0,25,26
 90 783 90 783 77 759 c 0,27,28
 74 753 74 753 68 753 c 0,29,30
 56 753 56 753 44 767.5 c 128,-1,31
 32 782 32 782 32 794 c 0,32,33
 32 799 32 799 36 802 c 0,34,35
 66 824 66 824 74 828 c 0,36,37
 99 842 99 842 117 843 c 0,38,39
 235 850 235 850 235 741 c 2,40,-1
 235 382 l 2,41,42
 235 332 235 332 277 305 c 0,43,44
 312 282 312 282 365 282 c 0,45,46
 434 282 434 282 484 341 c 0,47,48
 526 392 526 392 540 466 c 1,49,50
 458 501 458 501 458 565 c 0,51,52
 458 594 458 594 481.5 616.5 c 128,-1,53
 505 639 505 639 534 640 c 0,54,55
 568 642 568 642 588 607 c 0,56,57
 605 577 605 577 605 542 c 0,58,59
 605 515 605 515 604 502 c 1,60,61
 623 492 623 492 672 492 c 0,62,63
 695 492 695 492 725 507 c 1,64,65
 767 526 767 526 776 529 c 1,9,-1
EndSplineSet
Ligature2: "'half' Half Forms in Gujarati lookup 7 subtable" uni0A96 uni0ACD
EndChar

StartChar: uni0A97_uni0ACD.zz08
Encoding: 65543 -1 140
Width: 475
GlyphClass: 5
Flags: W
LayerCount: 2
Fore
SplineSet
471 530 m 0,0,1
 471 422 471 422 425 348 c 0,2,3
 370 259 370 259 269 259 c 256,4,5
 168 259 168 259 100 350 c 0,6,7
 65 396 65 396 17 495 c 0,8,9
 12 507 12 507 27.5 516.5 c 128,-1,10
 43 526 43 526 55 526 c 0,11,12
 66 526 66 526 70 518 c 2,13,-1
 146 379 l 1,14,15
 193 317 193 317 269 317 c 0,16,17
 346 317 346 317 384 389 c 0,18,19
 413 445 413 445 413 530 c 0,20,21
 413 632 413 632 373 701 c 0,22,23
 324 785 324 785 229 785 c 0,24,25
 173 785 173 785 119 753 c 0,26,27
 116 752 116 752 110 752 c 0,28,29
 98 752 98 752 86 762.5 c 128,-1,30
 74 773 74 773 74 785 c 0,31,32
 74 790 74 790 78 794 c 0,33,34
 114 826 114 826 148 835 c 1,35,36
 172 843 172 843 229 843 c 0,37,38
 347 843 347 843 413 741 c 1,39,40
 471 654 471 654 471 530 c 0,0,1
EndSplineSet
Ligature2: "'half' Half Forms in Gujarati lookup 7 subtable" uni0A97 uni0ACD
EndChar

StartChar: uni0A98_uni0ACD.zz08
Encoding: 65544 -1 141
Width: 498
GlyphClass: 5
Flags: W
LayerCount: 2
Fore
SplineSet
117 465 m 1,0,1
 88 494 88 494 64 540 c 0,2,3
 36 592 36 592 38 627 c 0,4,5
 40 676 40 676 70 713 c 128,-1,6
 100 750 100 750 148 750 c 2,7,-1
 319 750 l 2,8,9
 334 750 334 750 334 723 c 0,10,11
 334 695 334 695 319 692 c 0,12,13
 290 687 290 687 148 692 c 0,14,15
 100 694 100 694 96 624 c 0,16,17
 92 567 92 567 168 491 c 1,18,19
 244 520 244 520 294 515 c 0,20,21
 314 514 314 514 314 481 c 0,22,23
 314 458 314 458 300 458 c 0,24,25
 119 455 119 455 119 350 c 0,26,27
 119 292 119 292 167.5 247.5 c 128,-1,28
 216 203 216 203 275 203 c 0,29,30
 343 203 343 203 424 249 c 0,31,32
 493 289 493 289 505 294 c 0,33,34
 509 296 509 296 513 296 c 0,35,36
 524 296 524 296 534 282.5 c 128,-1,37
 544 269 544 269 544 258 c 0,38,39
 544 249 544 249 537 245 c 0,40,41
 453 193 453 193 417 177 c 0,42,43
 344 145 344 145 275 145 c 0,44,45
 189 145 189 145 125 205 c 128,-1,46
 61 265 61 265 61 350 c 0,47,48
 61 423 61 423 117 465 c 1,0,1
EndSplineSet
Ligature2: "'half' Half Forms in Gujarati lookup 7 subtable" uni0A98 uni0ACD
EndChar

StartChar: uni0A99_uni0ACD.zz08
Encoding: 65545 -1 142
Width: 545
GlyphClass: 5
Flags: W
LayerCount: 2
Fore
SplineSet
543 182 m 0,0,1
 543 121 543 121 507 72 c 0,2,3
 468 19 468 19 408 19 c 0,4,5
 198 19 198 19 44 414 c 0,6,7
 39 426 39 426 51.5 438 c 128,-1,8
 64 450 64 450 76 450 c 0,9,10
 83 450 83 450 86 443 c 0,11,12
 160 252 160 252 213 180 c 0,13,14
 289 75 289 75 408 75 c 0,15,16
 445 75 445 75 470 111 c 0,17,18
 493 144 493 144 493 182 c 0,19,20
 493 275 493 275 441 353 c 0,21,22
 416 390 416 390 345 459 c 1,23,24
 292 509 292 509 292 542 c 0,25,26
 292 559 292 559 305 578 c 0,27,28
 384 699 384 699 428 765 c 1,29,30
 432 769 432 769 438 769 c 1,31,-1
 438 769 l 1,32,33
 451 769 451 769 463.5 755 c 128,-1,34
 476 741 476 741 468 730 c 0,35,36
 419 663 419 663 348 549 c 0,37,38
 342 539 342 539 342 529 c 0,39,40
 342 505 342 505 394 456 c 0,41,42
 463 392 463 392 490 352 c 0,43,44
 543 275 543 275 543 182 c 0,0,1
588 562 m 256,45,46
 588 534 588 534 567 512.5 c 128,-1,47
 546 491 546 491 518 491 c 0,48,49
 491 491 491 491 469 512.5 c 128,-1,50
 447 534 447 534 447 562 c 256,51,52
 447 590 447 590 469 610.5 c 128,-1,53
 491 631 491 631 518 631 c 0,54,55
 546 631 546 631 567 610.5 c 128,-1,56
 588 590 588 590 588 562 c 256,45,46
744 -356 m 1,57,-1
 744 -356 l 1,58,59
 744 -371 744 -371 723 -381 c 0,60,61
 701 -391 701 -391 693 -379 c 0,62,63
 493 -96 493 -96 396 -96 c 0,64,65
 336 -96 336 -96 247 -130 c 0,66,67
 235 -135 235 -135 226 -120 c 128,-1,68
 217 -105 217 -105 217 -93 c 256,69,70
 217 -81 217 -81 224 -78 c 0,71,72
 320 -38 320 -38 396 -38 c 0,73,74
 457 -38 457 -38 577 -158 c 0,75,76
 604 -185 604 -185 668 -258 c 0,77,78
 744 -343 744 -343 744 -356 c 1,57,-1
EndSplineSet
Ligature2: "'half' Half Forms in Gujarati lookup 7 subtable" uni0A99 uni0ACD
EndChar

StartChar: uni0A9A_uni0ACD.zz08
Encoding: 65546 -1 143
Width: 568
GlyphClass: 5
Flags: W
LayerCount: 2
Fore
SplineSet
158 408 m 1,0,1
 142 443 142 443 116 443 c 0,2,3
 98 443 98 443 98 429 c 0,4,5
 98 407 98 407 139 407 c 0,6,7
 152 407 152 407 158 408 c 1,0,1
213 426 m 1,8,9
 269 453 269 453 317 512 c 0,10,11
 371 578 371 578 371 634 c 0,12,13
 371 778 371 778 206 778 c 0,14,15
 163 778 163 778 133 762 c 0,16,17
 121 755 121 755 80 733 c 0,18,19
 66 725 66 725 53.5 740.5 c 128,-1,20
 41 756 41 756 41 770 c 0,21,22
 41 779 41 779 48 782 c 2,23,-1
 122 821 l 2,24,25
 149 835 149 835 206 835 c 0,26,27
 429 835 429 835 429 634 c 0,28,29
 429 569 429 569 362 485 c 0,30,31
 303 410 303 410 237 375 c 1,32,33
 266 331 266 331 314 295 c 0,34,35
 369 255 369 255 414 255 c 0,36,37
 467 255 467 255 515 294 c 0,38,39
 539 313 539 313 591 359 c 0,40,41
 594 362 594 362 599 362 c 1,42,-1
 599 362 l 1,43,44
 614 362 614 362 628 345.5 c 128,-1,45
 642 329 642 329 631 319 c 0,46,47
 564 250 564 250 533 230 c 0,48,49
 481 197 481 197 414 197 c 0,50,51
 353 197 353 197 282 249 c 0,52,53
 218 296 218 296 184 355 c 1,54,55
 162 349 162 349 139 349 c 0,56,57
 104 349 104 349 74 371 c 0,58,59
 41 394 41 394 41 429 c 0,60,61
 41 459 41 459 63 480 c 128,-1,62
 85 501 85 501 116 501 c 0,63,64
 174 501 174 501 213 426 c 1,8,9
EndSplineSet
Ligature2: "'half' Half Forms in Gujarati lookup 7 subtable" uni0A9A uni0ACD
EndChar

StartChar: uni0A9B_uni0ACD.zz08
Encoding: 65547 -1 144
Width: 776
GlyphClass: 5
Flags: W
LayerCount: 2
Fore
SplineSet
683 339 m 1,0,1
 725 469 725 469 725 513 c 0,2,3
 725 597 725 597 697 656 c 0,4,5
 660 733 660 733 584 733 c 0,6,7
 524 733 524 733 491 692.5 c 128,-1,8
 458 652 458 652 458 591 c 0,9,10
 458 487 458 487 520.5 415 c 128,-1,11
 583 343 583 343 683 339 c 1,0,1
109 417 m 1,12,13
 -3 515 -3 515 -3 601 c 0,14,15
 -3 676 -3 676 54 737 c 1,16,17
 104 792 104 792 181 817 c 0,18,19
 194 821 194 821 204 807.5 c 128,-1,20
 214 794 214 794 214 780 c 0,21,22
 214 769 214 769 207 765 c 0,23,24
 127 715 127 715 109 699 c 0,25,26
 55 653 55 653 55 601 c 0,27,28
 55 540 55 540 159 453 c 1,29,30
 211 502 211 502 282 497 c 0,31,32
 304 495 304 495 304 460 c 0,33,34
 304 441 304 441 291 439 c 0,35,36
 209 423 209 423 152 381 c 0,37,38
 81 329 81 329 80 255 c 0,39,40
 78 167 78 167 162 114 c 0,41,42
 216 81 216 81 329 70 c 1,43,44
 410 61 410 61 515.5 128.5 c 128,-1,45
 621 196 621 196 662 282 c 1,46,47
 543 293 543 293 470 382 c 0,48,49
 400 468 400 468 400 591 c 0,50,51
 400 678 400 678 447 733 c 1,52,53
 498 791 498 791 584 791 c 0,54,55
 684 791 684 791 739 697 c 0,56,57
 783 620 783 620 783 513 c 0,58,59
 783 313 783 313 647.5 158 c 128,-1,60
 512 3 512 3 334 3 c 0,61,62
 223 3 223 3 122.5 72 c 128,-1,63
 22 141 22 141 22 255 c 0,64,65
 22 348 22 348 109 417 c 1,12,13
744 -356 m 1,66,-1
 744 -356 l 1,67,68
 744 -371 744 -371 723 -381 c 0,69,70
 701 -391 701 -391 693 -379 c 0,71,72
 493 -96 493 -96 396 -96 c 0,73,74
 336 -96 336 -96 247 -130 c 0,75,76
 235 -135 235 -135 226 -120 c 128,-1,77
 217 -105 217 -105 217 -93 c 256,78,79
 217 -81 217 -81 224 -78 c 0,80,81
 320 -38 320 -38 396 -38 c 0,82,83
 457 -38 457 -38 577 -158 c 0,84,85
 604 -185 604 -185 668 -258 c 0,86,87
 744 -343 744 -343 744 -356 c 1,66,-1
EndSplineSet
Ligature2: "'half' Half Forms in Gujarati lookup 7 subtable" uni0A9B uni0ACD
EndChar

StartChar: uni0A9C_uni0ACD.zz08
Encoding: 65548 -1 145
Width: 753
GlyphClass: 5
Flags: W
LayerCount: 2
Fore
SplineSet
552 476 m 1,0,1
 385 279 385 279 381 181 c 0,2,3
 378 113 378 113 392 84 c 0,4,5
 417 34 417 34 502 38 c 1,6,7
 568 40 568 40 611 87.5 c 128,-1,8
 654 135 654 135 654 201 c 0,9,10
 654 306 654 306 552 476 c 1,0,1
297 747 m 1,11,12
 246 775 246 775 204 775 c 0,13,14
 151 775 151 775 118 729 c 1,15,16
 88 689 88 689 85 633 c 1,17,18
 83 576 83 576 110 531 c 0,19,20
 141 481 141 481 195 481 c 0,21,22
 311 481 311 481 306 652 c 0,23,24
 305 677 305 677 297 747 c 1,11,12
518 526 m 1,25,26
 442 637 442 637 361 704 c 1,27,28
 363 687 363 687 363 653 c 0,29,30
 365 557 365 557 329 497 c 0,31,32
 285 423 285 423 195 423 c 0,33,34
 115 423 115 423 67 491 c 1,35,36
 25 553 25 553 28 636 c 0,37,38
 30 716 30 716 76 772 c 0,39,40
 126 833 126 833 204 833 c 0,41,42
 361 833 361 833 553 566 c 1,43,44
 632 655 632 655 819 654 c 0,45,46
 852 654 852 654 852 621 c 0,47,48
 852 605 852 605 840 603 c 0,49,50
 784 598 784 598 727 592 c 1,51,52
 640 576 640 576 586 517 c 1,53,54
 712 326 712 326 712 201 c 0,55,56
 712 108 712 108 655 45.5 c 128,-1,57
 598 -17 598 -17 505 -20 c 0,58,59
 379 -24 379 -24 342 45 c 0,60,61
 320 86 320 86 323 184 c 0,62,63
 327 296 327 296 518 526 c 1,25,26
EndSplineSet
Ligature2: "'half' Half Forms in Gujarati lookup 7 subtable" uni0A9C uni0ACD
EndChar

StartChar: uni0A9D_uni0ACD.zz08
Encoding: 65549 -1 146
Width: 753
GlyphClass: 5
Flags: W
LayerCount: 2
Fore
SplineSet
817 321 m 0,0,1
 814 132 814 132 633 16 c 0,2,3
 630 14 630 14 626 14 c 0,4,5
 614 14 614 14 602.5 25.5 c 128,-1,6
 591 37 591 37 591 49 c 0,7,8
 591 56 591 56 595 59 c 0,9,10
 679 121 679 121 712 167 c 1,11,12
 757 227 757 227 759 321 c 0,13,14
 760 393 760 393 724 439 c 0,15,16
 684 489 684 489 614 489 c 0,17,18
 556 489 556 489 485 439 c 1,19,20
 488 415 488 415 489 384 c 0,21,22
 497 255 497 255 439 145 c 0,23,24
 372 17 372 17 248 17 c 0,25,26
 86 17 86 17 14 295 c 0,27,28
 10 314 10 314 41 314 c 0,29,30
 68 314 68 314 72 298 c 0,31,32
 104 189 104 189 130 145 c 0,33,34
 173 75 173 75 248 75 c 0,35,36
 349 75 349 75 398 184 c 0,37,38
 436 268 436 268 432 381 c 1,39,40
 427 490 427 490 379 571 c 0,41,42
 321 669 321 669 220 669 c 0,43,44
 184 669 184 669 97 613 c 0,45,46
 94 611 94 611 91 611 c 0,47,48
 80 611 80 611 71 624 c 128,-1,49
 62 637 62 637 62 649 c 0,50,51
 62 657 62 657 68 662 c 0,52,53
 117 699 117 699 132 707 c 0,54,55
 171 727 171 727 220 727 c 0,56,57
 316 727 316 727 384 658 c 0,58,59
 444 598 444 598 472 500 c 1,60,61
 562 549 562 549 646 546 c 1,62,63
 730 536 730 536 776 470 c 0,64,65
 818 409 818 409 817 321 c 0,0,1
EndSplineSet
Ligature2: "'half' Half Forms in Gujarati lookup 7 subtable" uni0A9D uni0ACD
EndChar

StartChar: uni0A9E_uni0ACD.zz08
Encoding: 65550 -1 147
Width: 672
GlyphClass: 5
Flags: W
LayerCount: 2
Fore
SplineSet
711 494 m 1,0,1
 686 483 686 483 661 472 c 1,2,3
 623 458 623 458 588 456 c 0,4,5
 540 454 540 454 501 472 c 1,6,7
 502 368 502 368 455 291 c 0,8,9
 399 201 399 201 300 201 c 0,10,11
 199 201 199 201 131 292 c 0,12,13
 96 338 96 338 48 437 c 0,14,15
 42 449 42 449 59 459 c 0,16,17
 73 468 73 468 85 468 c 0,18,19
 96 468 96 468 100 460 c 2,20,-1
 177 321 l 1,21,22
 223 259 223 259 300 259 c 256,23,24
 377 259 377 259 414 331 c 0,25,26
 443 387 443 387 443 472 c 0,27,28
 443 574 443 574 403 643 c 0,29,30
 354 727 354 727 259 727 c 0,31,32
 203 727 203 727 149 695 c 0,33,34
 147 694 147 694 140 694 c 0,35,36
 129 694 129 694 116.5 704.5 c 128,-1,37
 104 715 104 715 104 727 c 0,38,39
 104 732 104 732 109 736 c 0,40,41
 145 768 145 768 178 778 c 0,42,43
 203 785 203 785 259 785 c 0,44,45
 364 785 364 785 429 703 c 1,46,47
 484 632 484 632 498 521 c 1,48,49
 535 505 535 505 581 508 c 1,50,51
 626 512 626 512 711 546 c 1,52,-1
 711 494 l 1,0,1
EndSplineSet
Ligature2: "'half' Half Forms in Gujarati lookup 7 subtable" uni0A9E uni0ACD
EndChar

